<?xml version="1.0" encoding="utf-8" standalone="no"?>
<!DOCTYPE svg PUBLIC "-//W3C//DTD SVG 1.1//EN"
  "http://www.w3.org/Graphics/SVG/1.1/DTD/svg11.dtd">
<!-- Created with matplotlib (http://matplotlib.org/) -->
<svg height="115.2pt" version="1.1" viewBox="0 0 648 115.2" width="648pt" xmlns="http://www.w3.org/2000/svg" xmlns:xlink="http://www.w3.org/1999/xlink">
 <defs>
  <style type="text/css">
*{stroke-linecap:butt;stroke-linejoin:round;}
  </style>
 </defs>
 <g id="figure_1">
  <g id="patch_1">
   <path d="M 0 115.2 
L 648 115.2 
L 648 0 
L 0 0 
z
" style="fill:#ffffff;"/>
  </g>
  <g id="axes_1">
   <g id="patch_2">
    <path d="M 58.32 81.792 
L 502.662857 81.792 
L 502.662857 13.824 
L 58.32 13.824 
z
" style="fill:#ffffff;"/>
   </g>
   <g id="matplotlib.axis_1">
    <g id="xtick_1">
     <g id="line2d_1">
      <defs>
       <path d="M 0 0 
L 0 -3.5 
" id="mae170e77c2" style="stroke:#000000;stroke-width:0.8;"/>
      </defs>
      <g>
       <use style="stroke:#000000;stroke-width:0.8;" x="58.32" xlink:href="#mae170e77c2" y="81.792"/>
      </g>
     </g>
     <g id="line2d_2">
      <defs>
       <path d="M 0 0 
L 0 3.5 
" id="m023c206576" style="stroke:#000000;stroke-width:0.8;"/>
      </defs>
      <g>
       <use style="stroke:#000000;stroke-width:0.8;" x="58.32" xlink:href="#m023c206576" y="13.824"/>
      </g>
     </g>
     <g id="text_1">
      <!-- 0 -->
      <defs>
       <path d="M 31.78125 66.40625 
Q 24.171875 66.40625 20.328125 58.90625 
Q 16.5 51.421875 16.5 36.375 
Q 16.5 21.390625 20.328125 13.890625 
Q 24.171875 6.390625 31.78125 6.390625 
Q 39.453125 6.390625 43.28125 13.890625 
Q 47.125 21.390625 47.125 36.375 
Q 47.125 51.421875 43.28125 58.90625 
Q 39.453125 66.40625 31.78125 66.40625 
z
M 31.78125 74.21875 
Q 44.046875 74.21875 50.515625 64.515625 
Q 56.984375 54.828125 56.984375 36.375 
Q 56.984375 17.96875 50.515625 8.265625 
Q 44.046875 -1.421875 31.78125 -1.421875 
Q 19.53125 -1.421875 13.0625 8.265625 
Q 6.59375 17.96875 6.59375 36.375 
Q 6.59375 54.828125 13.0625 64.515625 
Q 19.53125 74.21875 31.78125 74.21875 
z
" id="DejaVuSans-30"/>
      </defs>
      <g transform="translate(55.13875 92.890438)scale(0.1 -0.1)">
       <use xlink:href="#DejaVuSans-30"/>
      </g>
     </g>
    </g>
    <g id="xtick_2">
     <g id="line2d_3">
      <g>
       <use style="stroke:#000000;stroke-width:0.8;" x="141.06678" xlink:href="#mae170e77c2" y="81.792"/>
      </g>
     </g>
     <g id="line2d_4">
      <g>
       <use style="stroke:#000000;stroke-width:0.8;" x="141.06678" xlink:href="#m023c206576" y="13.824"/>
      </g>
     </g>
     <g id="text_2">
      <!-- 5 -->
      <defs>
       <path d="M 10.796875 72.90625 
L 49.515625 72.90625 
L 49.515625 64.59375 
L 19.828125 64.59375 
L 19.828125 46.734375 
Q 21.96875 47.46875 24.109375 47.828125 
Q 26.265625 48.1875 28.421875 48.1875 
Q 40.625 48.1875 47.75 41.5 
Q 54.890625 34.8125 54.890625 23.390625 
Q 54.890625 11.625 47.5625 5.09375 
Q 40.234375 -1.421875 26.90625 -1.421875 
Q 22.3125 -1.421875 17.546875 -0.640625 
Q 12.796875 0.140625 7.71875 1.703125 
L 7.71875 11.625 
Q 12.109375 9.234375 16.796875 8.0625 
Q 21.484375 6.890625 26.703125 6.890625 
Q 35.15625 6.890625 40.078125 11.328125 
Q 45.015625 15.765625 45.015625 23.390625 
Q 45.015625 31 40.078125 35.4375 
Q 35.15625 39.890625 26.703125 39.890625 
Q 22.75 39.890625 18.8125 39.015625 
Q 14.890625 38.140625 10.796875 36.28125 
z
" id="DejaVuSans-35"/>
      </defs>
      <g transform="translate(137.88553 92.890438)scale(0.1 -0.1)">
       <use xlink:href="#DejaVuSans-35"/>
      </g>
     </g>
    </g>
    <g id="xtick_3">
     <g id="line2d_5">
      <g>
       <use style="stroke:#000000;stroke-width:0.8;" x="223.813559" xlink:href="#mae170e77c2" y="81.792"/>
      </g>
     </g>
     <g id="line2d_6">
      <g>
       <use style="stroke:#000000;stroke-width:0.8;" x="223.813559" xlink:href="#m023c206576" y="13.824"/>
      </g>
     </g>
     <g id="text_3">
      <!-- 10 -->
      <defs>
       <path d="M 12.40625 8.296875 
L 28.515625 8.296875 
L 28.515625 63.921875 
L 10.984375 60.40625 
L 10.984375 69.390625 
L 28.421875 72.90625 
L 38.28125 72.90625 
L 38.28125 8.296875 
L 54.390625 8.296875 
L 54.390625 0 
L 12.40625 0 
z
" id="DejaVuSans-31"/>
      </defs>
      <g transform="translate(217.451059 92.890438)scale(0.1 -0.1)">
       <use xlink:href="#DejaVuSans-31"/>
       <use x="63.623047" xlink:href="#DejaVuSans-30"/>
      </g>
     </g>
    </g>
    <g id="xtick_4">
     <g id="line2d_7">
      <g>
       <use style="stroke:#000000;stroke-width:0.8;" x="306.560339" xlink:href="#mae170e77c2" y="81.792"/>
      </g>
     </g>
     <g id="line2d_8">
      <g>
       <use style="stroke:#000000;stroke-width:0.8;" x="306.560339" xlink:href="#m023c206576" y="13.824"/>
      </g>
     </g>
     <g id="text_4">
      <!-- 15 -->
      <g transform="translate(300.197839 92.890438)scale(0.1 -0.1)">
       <use xlink:href="#DejaVuSans-31"/>
       <use x="63.623047" xlink:href="#DejaVuSans-35"/>
      </g>
     </g>
    </g>
    <g id="xtick_5">
     <g id="line2d_9">
      <g>
       <use style="stroke:#000000;stroke-width:0.8;" x="389.307118" xlink:href="#mae170e77c2" y="81.792"/>
      </g>
     </g>
     <g id="line2d_10">
      <g>
       <use style="stroke:#000000;stroke-width:0.8;" x="389.307118" xlink:href="#m023c206576" y="13.824"/>
      </g>
     </g>
     <g id="text_5">
      <!-- 20 -->
      <defs>
       <path d="M 19.1875 8.296875 
L 53.609375 8.296875 
L 53.609375 0 
L 7.328125 0 
L 7.328125 8.296875 
Q 12.9375 14.109375 22.625 23.890625 
Q 32.328125 33.6875 34.8125 36.53125 
Q 39.546875 41.84375 41.421875 45.53125 
Q 43.3125 49.21875 43.3125 52.78125 
Q 43.3125 58.59375 39.234375 62.25 
Q 35.15625 65.921875 28.609375 65.921875 
Q 23.96875 65.921875 18.8125 64.3125 
Q 13.671875 62.703125 7.8125 59.421875 
L 7.8125 69.390625 
Q 13.765625 71.78125 18.9375 73 
Q 24.125 74.21875 28.421875 74.21875 
Q 39.75 74.21875 46.484375 68.546875 
Q 53.21875 62.890625 53.21875 53.421875 
Q 53.21875 48.921875 51.53125 44.890625 
Q 49.859375 40.875 45.40625 35.40625 
Q 44.1875 33.984375 37.640625 27.21875 
Q 31.109375 20.453125 19.1875 8.296875 
z
" id="DejaVuSans-32"/>
      </defs>
      <g transform="translate(382.944618 92.890438)scale(0.1 -0.1)">
       <use xlink:href="#DejaVuSans-32"/>
       <use x="63.623047" xlink:href="#DejaVuSans-30"/>
      </g>
     </g>
    </g>
    <g id="xtick_6">
     <g id="line2d_11">
      <g>
       <use style="stroke:#000000;stroke-width:0.8;" x="472.053898" xlink:href="#mae170e77c2" y="81.792"/>
      </g>
     </g>
     <g id="line2d_12">
      <g>
       <use style="stroke:#000000;stroke-width:0.8;" x="472.053898" xlink:href="#m023c206576" y="13.824"/>
      </g>
     </g>
     <g id="text_6">
      <!-- 25 -->
      <g transform="translate(465.691398 92.890438)scale(0.1 -0.1)">
       <use xlink:href="#DejaVuSans-32"/>
       <use x="63.623047" xlink:href="#DejaVuSans-35"/>
      </g>
     </g>
    </g>
    <g id="text_7">
     <!-- Position [m] -->
     <defs>
      <path d="M 19.671875 64.796875 
L 19.671875 37.40625 
L 32.078125 37.40625 
Q 38.96875 37.40625 42.71875 40.96875 
Q 46.484375 44.53125 46.484375 51.125 
Q 46.484375 57.671875 42.71875 61.234375 
Q 38.96875 64.796875 32.078125 64.796875 
z
M 9.8125 72.90625 
L 32.078125 72.90625 
Q 44.34375 72.90625 50.609375 67.359375 
Q 56.890625 61.8125 56.890625 51.125 
Q 56.890625 40.328125 50.609375 34.8125 
Q 44.34375 29.296875 32.078125 29.296875 
L 19.671875 29.296875 
L 19.671875 0 
L 9.8125 0 
z
" id="DejaVuSans-50"/>
      <path d="M 30.609375 48.390625 
Q 23.390625 48.390625 19.1875 42.75 
Q 14.984375 37.109375 14.984375 27.296875 
Q 14.984375 17.484375 19.15625 11.84375 
Q 23.34375 6.203125 30.609375 6.203125 
Q 37.796875 6.203125 41.984375 11.859375 
Q 46.1875 17.53125 46.1875 27.296875 
Q 46.1875 37.015625 41.984375 42.703125 
Q 37.796875 48.390625 30.609375 48.390625 
z
M 30.609375 56 
Q 42.328125 56 49.015625 48.375 
Q 55.71875 40.765625 55.71875 27.296875 
Q 55.71875 13.875 49.015625 6.21875 
Q 42.328125 -1.421875 30.609375 -1.421875 
Q 18.84375 -1.421875 12.171875 6.21875 
Q 5.515625 13.875 5.515625 27.296875 
Q 5.515625 40.765625 12.171875 48.375 
Q 18.84375 56 30.609375 56 
z
" id="DejaVuSans-6f"/>
      <path d="M 44.28125 53.078125 
L 44.28125 44.578125 
Q 40.484375 46.53125 36.375 47.5 
Q 32.28125 48.484375 27.875 48.484375 
Q 21.1875 48.484375 17.84375 46.4375 
Q 14.5 44.390625 14.5 40.28125 
Q 14.5 37.15625 16.890625 35.375 
Q 19.28125 33.59375 26.515625 31.984375 
L 29.59375 31.296875 
Q 39.15625 29.25 43.1875 25.515625 
Q 47.21875 21.78125 47.21875 15.09375 
Q 47.21875 7.46875 41.1875 3.015625 
Q 35.15625 -1.421875 24.609375 -1.421875 
Q 20.21875 -1.421875 15.453125 -0.5625 
Q 10.6875 0.296875 5.421875 2 
L 5.421875 11.28125 
Q 10.40625 8.6875 15.234375 7.390625 
Q 20.0625 6.109375 24.8125 6.109375 
Q 31.15625 6.109375 34.5625 8.28125 
Q 37.984375 10.453125 37.984375 14.40625 
Q 37.984375 18.0625 35.515625 20.015625 
Q 33.0625 21.96875 24.703125 23.78125 
L 21.578125 24.515625 
Q 13.234375 26.265625 9.515625 29.90625 
Q 5.8125 33.546875 5.8125 39.890625 
Q 5.8125 47.609375 11.28125 51.796875 
Q 16.75 56 26.8125 56 
Q 31.78125 56 36.171875 55.265625 
Q 40.578125 54.546875 44.28125 53.078125 
z
" id="DejaVuSans-73"/>
      <path d="M 9.421875 54.6875 
L 18.40625 54.6875 
L 18.40625 0 
L 9.421875 0 
z
M 9.421875 75.984375 
L 18.40625 75.984375 
L 18.40625 64.59375 
L 9.421875 64.59375 
z
" id="DejaVuSans-69"/>
      <path d="M 18.3125 70.21875 
L 18.3125 54.6875 
L 36.8125 54.6875 
L 36.8125 47.703125 
L 18.3125 47.703125 
L 18.3125 18.015625 
Q 18.3125 11.328125 20.140625 9.421875 
Q 21.96875 7.515625 27.59375 7.515625 
L 36.8125 7.515625 
L 36.8125 0 
L 27.59375 0 
Q 17.1875 0 13.234375 3.875 
Q 9.28125 7.765625 9.28125 18.015625 
L 9.28125 47.703125 
L 2.6875 47.703125 
L 2.6875 54.6875 
L 9.28125 54.6875 
L 9.28125 70.21875 
z
" id="DejaVuSans-74"/>
      <path d="M 54.890625 33.015625 
L 54.890625 0 
L 45.90625 0 
L 45.90625 32.71875 
Q 45.90625 40.484375 42.875 44.328125 
Q 39.84375 48.1875 33.796875 48.1875 
Q 26.515625 48.1875 22.3125 43.546875 
Q 18.109375 38.921875 18.109375 30.90625 
L 18.109375 0 
L 9.078125 0 
L 9.078125 54.6875 
L 18.109375 54.6875 
L 18.109375 46.1875 
Q 21.34375 51.125 25.703125 53.5625 
Q 30.078125 56 35.796875 56 
Q 45.21875 56 50.046875 50.171875 
Q 54.890625 44.34375 54.890625 33.015625 
z
" id="DejaVuSans-6e"/>
      <path id="DejaVuSans-20"/>
      <path d="M 8.59375 75.984375 
L 29.296875 75.984375 
L 29.296875 69 
L 17.578125 69 
L 17.578125 -6.203125 
L 29.296875 -6.203125 
L 29.296875 -13.1875 
L 8.59375 -13.1875 
z
" id="DejaVuSans-5b"/>
      <path d="M 52 44.1875 
Q 55.375 50.25 60.0625 53.125 
Q 64.75 56 71.09375 56 
Q 79.640625 56 84.28125 50.015625 
Q 88.921875 44.046875 88.921875 33.015625 
L 88.921875 0 
L 79.890625 0 
L 79.890625 32.71875 
Q 79.890625 40.578125 77.09375 44.375 
Q 74.3125 48.1875 68.609375 48.1875 
Q 61.625 48.1875 57.5625 43.546875 
Q 53.515625 38.921875 53.515625 30.90625 
L 53.515625 0 
L 44.484375 0 
L 44.484375 32.71875 
Q 44.484375 40.625 41.703125 44.40625 
Q 38.921875 48.1875 33.109375 48.1875 
Q 26.21875 48.1875 22.15625 43.53125 
Q 18.109375 38.875 18.109375 30.90625 
L 18.109375 0 
L 9.078125 0 
L 9.078125 54.6875 
L 18.109375 54.6875 
L 18.109375 46.1875 
Q 21.1875 51.21875 25.484375 53.609375 
Q 29.78125 56 35.6875 56 
Q 41.65625 56 45.828125 52.96875 
Q 50 49.953125 52 44.1875 
z
" id="DejaVuSans-6d"/>
      <path d="M 30.421875 75.984375 
L 30.421875 -13.1875 
L 9.71875 -13.1875 
L 9.71875 -6.203125 
L 21.390625 -6.203125 
L 21.390625 69 
L 9.71875 69 
L 9.71875 75.984375 
z
" id="DejaVuSans-5d"/>
     </defs>
     <g transform="translate(250.487522 106.568563)scale(0.1 -0.1)">
      <use xlink:href="#DejaVuSans-50"/>
      <use x="60.255859" xlink:href="#DejaVuSans-6f"/>
      <use x="121.4375" xlink:href="#DejaVuSans-73"/>
      <use x="173.537109" xlink:href="#DejaVuSans-69"/>
      <use x="201.320312" xlink:href="#DejaVuSans-74"/>
      <use x="240.529297" xlink:href="#DejaVuSans-69"/>
      <use x="268.3125" xlink:href="#DejaVuSans-6f"/>
      <use x="329.494141" xlink:href="#DejaVuSans-6e"/>
      <use x="392.873047" xlink:href="#DejaVuSans-20"/>
      <use x="424.660156" xlink:href="#DejaVuSans-5b"/>
      <use x="463.673828" xlink:href="#DejaVuSans-6d"/>
      <use x="561.085938" xlink:href="#DejaVuSans-5d"/>
     </g>
    </g>
   </g>
   <g id="matplotlib.axis_2">
    <g id="ytick_1">
     <g id="line2d_13">
      <defs>
       <path d="M 0 0 
L 3.5 0 
" id="m427b42b994" style="stroke:#000000;stroke-width:0.8;"/>
      </defs>
      <g>
       <use style="stroke:#000000;stroke-width:0.8;" x="58.32" xlink:href="#m427b42b994" y="81.792"/>
      </g>
     </g>
     <g id="line2d_14">
      <defs>
       <path d="M 0 0 
L -3.5 0 
" id="mbcdff892f5" style="stroke:#000000;stroke-width:0.8;"/>
      </defs>
      <g>
       <use style="stroke:#000000;stroke-width:0.8;" x="502.662857" xlink:href="#mbcdff892f5" y="81.792"/>
      </g>
     </g>
     <g id="text_8">
      <!-- −0.2 -->
      <defs>
       <path d="M 10.59375 35.5 
L 73.1875 35.5 
L 73.1875 27.203125 
L 10.59375 27.203125 
z
" id="DejaVuSans-2212"/>
       <path d="M 10.6875 12.40625 
L 21 12.40625 
L 21 0 
L 10.6875 0 
z
" id="DejaVuSans-2e"/>
      </defs>
      <g transform="translate(30.537187 85.591219)scale(0.1 -0.1)">
       <use xlink:href="#DejaVuSans-2212"/>
       <use x="83.789062" xlink:href="#DejaVuSans-30"/>
       <use x="147.412109" xlink:href="#DejaVuSans-2e"/>
       <use x="179.199219" xlink:href="#DejaVuSans-32"/>
      </g>
     </g>
    </g>
    <g id="ytick_2">
     <g id="line2d_15">
      <g>
       <use style="stroke:#000000;stroke-width:0.8;" x="58.32" xlink:href="#m427b42b994" y="47.808"/>
      </g>
     </g>
     <g id="line2d_16">
      <g>
       <use style="stroke:#000000;stroke-width:0.8;" x="502.662857" xlink:href="#mbcdff892f5" y="47.808"/>
      </g>
     </g>
     <g id="text_9">
      <!-- 0.0 -->
      <g transform="translate(38.916875 51.607219)scale(0.1 -0.1)">
       <use xlink:href="#DejaVuSans-30"/>
       <use x="63.623047" xlink:href="#DejaVuSans-2e"/>
       <use x="95.410156" xlink:href="#DejaVuSans-30"/>
      </g>
     </g>
    </g>
    <g id="ytick_3">
     <g id="line2d_17">
      <g>
       <use style="stroke:#000000;stroke-width:0.8;" x="58.32" xlink:href="#m427b42b994" y="13.824"/>
      </g>
     </g>
     <g id="line2d_18">
      <g>
       <use style="stroke:#000000;stroke-width:0.8;" x="502.662857" xlink:href="#mbcdff892f5" y="13.824"/>
      </g>
     </g>
     <g id="text_10">
      <!-- 0.2 -->
      <g transform="translate(38.916875 17.623219)scale(0.1 -0.1)">
       <use xlink:href="#DejaVuSans-30"/>
       <use x="63.623047" xlink:href="#DejaVuSans-2e"/>
       <use x="95.410156" xlink:href="#DejaVuSans-32"/>
      </g>
     </g>
    </g>
    <g id="text_11">
     <!-- Distance to -->
     <defs>
      <path d="M 19.671875 64.796875 
L 19.671875 8.109375 
L 31.59375 8.109375 
Q 46.6875 8.109375 53.6875 14.9375 
Q 60.6875 21.78125 60.6875 36.53125 
Q 60.6875 51.171875 53.6875 57.984375 
Q 46.6875 64.796875 31.59375 64.796875 
z
M 9.8125 72.90625 
L 30.078125 72.90625 
Q 51.265625 72.90625 61.171875 64.09375 
Q 71.09375 55.28125 71.09375 36.53125 
Q 71.09375 17.671875 61.125 8.828125 
Q 51.171875 0 30.078125 0 
L 9.8125 0 
z
" id="DejaVuSans-44"/>
      <path d="M 34.28125 27.484375 
Q 23.390625 27.484375 19.1875 25 
Q 14.984375 22.515625 14.984375 16.5 
Q 14.984375 11.71875 18.140625 8.90625 
Q 21.296875 6.109375 26.703125 6.109375 
Q 34.1875 6.109375 38.703125 11.40625 
Q 43.21875 16.703125 43.21875 25.484375 
L 43.21875 27.484375 
z
M 52.203125 31.203125 
L 52.203125 0 
L 43.21875 0 
L 43.21875 8.296875 
Q 40.140625 3.328125 35.546875 0.953125 
Q 30.953125 -1.421875 24.3125 -1.421875 
Q 15.921875 -1.421875 10.953125 3.296875 
Q 6 8.015625 6 15.921875 
Q 6 25.140625 12.171875 29.828125 
Q 18.359375 34.515625 30.609375 34.515625 
L 43.21875 34.515625 
L 43.21875 35.40625 
Q 43.21875 41.609375 39.140625 45 
Q 35.0625 48.390625 27.6875 48.390625 
Q 23 48.390625 18.546875 47.265625 
Q 14.109375 46.140625 10.015625 43.890625 
L 10.015625 52.203125 
Q 14.9375 54.109375 19.578125 55.046875 
Q 24.21875 56 28.609375 56 
Q 40.484375 56 46.34375 49.84375 
Q 52.203125 43.703125 52.203125 31.203125 
z
" id="DejaVuSans-61"/>
      <path d="M 48.78125 52.59375 
L 48.78125 44.1875 
Q 44.96875 46.296875 41.140625 47.34375 
Q 37.3125 48.390625 33.40625 48.390625 
Q 24.65625 48.390625 19.8125 42.84375 
Q 14.984375 37.3125 14.984375 27.296875 
Q 14.984375 17.28125 19.8125 11.734375 
Q 24.65625 6.203125 33.40625 6.203125 
Q 37.3125 6.203125 41.140625 7.25 
Q 44.96875 8.296875 48.78125 10.40625 
L 48.78125 2.09375 
Q 45.015625 0.34375 40.984375 -0.53125 
Q 36.96875 -1.421875 32.421875 -1.421875 
Q 20.0625 -1.421875 12.78125 6.34375 
Q 5.515625 14.109375 5.515625 27.296875 
Q 5.515625 40.671875 12.859375 48.328125 
Q 20.21875 56 33.015625 56 
Q 37.15625 56 41.109375 55.140625 
Q 45.0625 54.296875 48.78125 52.59375 
z
" id="DejaVuSans-63"/>
      <path d="M 56.203125 29.59375 
L 56.203125 25.203125 
L 14.890625 25.203125 
Q 15.484375 15.921875 20.484375 11.0625 
Q 25.484375 6.203125 34.421875 6.203125 
Q 39.59375 6.203125 44.453125 7.46875 
Q 49.3125 8.734375 54.109375 11.28125 
L 54.109375 2.78125 
Q 49.265625 0.734375 44.1875 -0.34375 
Q 39.109375 -1.421875 33.890625 -1.421875 
Q 20.796875 -1.421875 13.15625 6.1875 
Q 5.515625 13.8125 5.515625 26.8125 
Q 5.515625 40.234375 12.765625 48.109375 
Q 20.015625 56 32.328125 56 
Q 43.359375 56 49.78125 48.890625 
Q 56.203125 41.796875 56.203125 29.59375 
z
M 47.21875 32.234375 
Q 47.125 39.59375 43.09375 43.984375 
Q 39.0625 48.390625 32.421875 48.390625 
Q 24.90625 48.390625 20.390625 44.140625 
Q 15.875 39.890625 15.1875 32.171875 
z
" id="DejaVuSans-65"/>
     </defs>
     <g transform="translate(13.259687 76.279094)rotate(-90)scale(0.1 -0.1)">
      <use xlink:href="#DejaVuSans-44"/>
      <use x="77.001953" xlink:href="#DejaVuSans-69"/>
      <use x="104.785156" xlink:href="#DejaVuSans-73"/>
      <use x="156.884766" xlink:href="#DejaVuSans-74"/>
      <use x="196.09375" xlink:href="#DejaVuSans-61"/>
      <use x="257.373047" xlink:href="#DejaVuSans-6e"/>
      <use x="320.751953" xlink:href="#DejaVuSans-63"/>
      <use x="375.732422" xlink:href="#DejaVuSans-65"/>
      <use x="437.255859" xlink:href="#DejaVuSans-20"/>
      <use x="469.042969" xlink:href="#DejaVuSans-74"/>
      <use x="508.251953" xlink:href="#DejaVuSans-6f"/>
     </g>
     <!-- Lane-Center [m] -->
     <defs>
      <path d="M 9.8125 72.90625 
L 19.671875 72.90625 
L 19.671875 8.296875 
L 55.171875 8.296875 
L 55.171875 0 
L 9.8125 0 
z
" id="DejaVuSans-4c"/>
      <path d="M 4.890625 31.390625 
L 31.203125 31.390625 
L 31.203125 23.390625 
L 4.890625 23.390625 
z
" id="DejaVuSans-2d"/>
      <path d="M 64.40625 67.28125 
L 64.40625 56.890625 
Q 59.421875 61.53125 53.78125 63.8125 
Q 48.140625 66.109375 41.796875 66.109375 
Q 29.296875 66.109375 22.65625 58.46875 
Q 16.015625 50.828125 16.015625 36.375 
Q 16.015625 21.96875 22.65625 14.328125 
Q 29.296875 6.6875 41.796875 6.6875 
Q 48.140625 6.6875 53.78125 8.984375 
Q 59.421875 11.28125 64.40625 15.921875 
L 64.40625 5.609375 
Q 59.234375 2.09375 53.4375 0.328125 
Q 47.65625 -1.421875 41.21875 -1.421875 
Q 24.65625 -1.421875 15.125 8.703125 
Q 5.609375 18.84375 5.609375 36.375 
Q 5.609375 53.953125 15.125 64.078125 
Q 24.65625 74.21875 41.21875 74.21875 
Q 47.75 74.21875 53.53125 72.484375 
Q 59.328125 70.75 64.40625 67.28125 
z
" id="DejaVuSans-43"/>
      <path d="M 41.109375 46.296875 
Q 39.59375 47.171875 37.8125 47.578125 
Q 36.03125 48 33.890625 48 
Q 26.265625 48 22.1875 43.046875 
Q 18.109375 38.09375 18.109375 28.8125 
L 18.109375 0 
L 9.078125 0 
L 9.078125 54.6875 
L 18.109375 54.6875 
L 18.109375 46.1875 
Q 20.953125 51.171875 25.484375 53.578125 
Q 30.03125 56 36.53125 56 
Q 37.453125 56 38.578125 55.875 
Q 39.703125 55.765625 41.0625 55.515625 
z
" id="DejaVuSans-72"/>
     </defs>
     <g transform="translate(24.4575 88.897063)rotate(-90)scale(0.1 -0.1)">
      <use xlink:href="#DejaVuSans-4c"/>
      <use x="55.712891" xlink:href="#DejaVuSans-61"/>
      <use x="116.992188" xlink:href="#DejaVuSans-6e"/>
      <use x="180.371094" xlink:href="#DejaVuSans-65"/>
      <use x="241.894531" xlink:href="#DejaVuSans-2d"/>
      <use x="277.978516" xlink:href="#DejaVuSans-43"/>
      <use x="347.802734" xlink:href="#DejaVuSans-65"/>
      <use x="409.326172" xlink:href="#DejaVuSans-6e"/>
      <use x="472.705078" xlink:href="#DejaVuSans-74"/>
      <use x="511.914062" xlink:href="#DejaVuSans-65"/>
      <use x="573.4375" xlink:href="#DejaVuSans-72"/>
      <use x="614.550781" xlink:href="#DejaVuSans-20"/>
      <use x="646.337891" xlink:href="#DejaVuSans-5b"/>
      <use x="685.351562" xlink:href="#DejaVuSans-6d"/>
      <use x="782.763672" xlink:href="#DejaVuSans-5d"/>
     </g>
    </g>
   </g>
   <g id="line2d_19">
    <path clip-path="url(#p7375c5b95f)" d="M 58.32 47.808 
L 502.662857 47.808 
" style="fill:none;stroke:#000000;stroke-linecap:square;stroke-width:0.5;"/>
   </g>
   <g id="line2d_20">
    <path clip-path="url(#p7375c5b95f)" d="M 110.311335 81.792 
L 110.311335 13.824 
" style="fill:none;stroke:#bfbfbf;stroke-dasharray:5.55,2.4;stroke-dashoffset:0;stroke-width:1.5;"/>
   </g>
   <g id="line2d_21">
    <path clip-path="url(#p7375c5b95f)" d="M 176.508759 81.792 
L 176.508759 13.824 
" style="fill:none;stroke:#bfbfbf;stroke-dasharray:5.55,2.4;stroke-dashoffset:0;stroke-width:1.5;"/>
   </g>
   <g id="line2d_22">
    <path clip-path="url(#p7375c5b95f)" d="M 280.491429 81.792 
L 280.491429 13.824 
" style="fill:none;stroke:#bfbfbf;stroke-dasharray:5.55,2.4;stroke-dashoffset:0;stroke-width:1.5;"/>
   </g>
   <g id="line2d_23">
    <path clip-path="url(#p7375c5b95f)" d="M 332.482764 81.792 
L 332.482764 13.824 
" style="fill:none;stroke:#bfbfbf;stroke-dasharray:5.55,2.4;stroke-dashoffset:0;stroke-width:1.5;"/>
   </g>
   <g id="line2d_24">
    <path clip-path="url(#p7375c5b95f)" d="M 398.680187 81.792 
L 398.680187 13.824 
" style="fill:none;stroke:#bfbfbf;stroke-dasharray:5.55,2.4;stroke-dashoffset:0;stroke-width:1.5;"/>
   </g>
   <g id="line2d_25">
    <path clip-path="url(#p7375c5b95f)" d="M 58.445159 47.769823 
L 58.444645 47.768547 
L 59.070585 47.658894 
L 59.835479 47.363786 
L 62.291671 46.265053 
L 63.571729 46.132063 
L 64.879768 46.342465 
L 66.194394 46.772195 
L 67.977168 47.689224 
L 71.173182 49.455115 
L 73.451029 50.342719 
L 79.850244 52.521314 
L 79.850244 52.521314 
L 81.728421 52.925741 
L 81.728421 52.925741 
L 83.122374 52.907192 
L 83.122374 52.907192 
L 84.493136 52.696965 
L 84.493136 52.696965 
L 85.370605 52.552144 
L 85.370605 52.552144 
L 86.734116 52.610397 
L 86.734116 52.610397 
L 94.977484 53.105464 
L 94.977484 53.105464 
L 96.83857 53.059227 
L 96.83857 53.059227 
L 100.534011 52.474159 
L 100.534011 52.474159 
L 102.833931 51.757944 
L 102.833931 51.757944 
L 106.467514 50.187194 
L 106.467514 50.187194 
L 108.709773 49.333105 
L 108.709773 49.333105 
L 110.498068 48.836521 
L 110.498068 48.836521 
L 111.425143 48.85864 
L 111.425143 48.85864 
L 113.302108 49.303868 
L 113.302108 49.303868 
L 116.537703 50.754849 
L 116.537703 50.754849 
L 117.458245 51.286287 
L 117.458245 51.286287 
L 118.842158 52.433346 
L 118.842158 52.433346 
L 120.183912 53.505782 
L 120.183912 53.505782 
L 122.083407 54.268057 
L 122.083407 54.268057 
L 124.820462 55.185899 
L 124.820462 55.185899 
L 126.176973 54.963893 
L 126.176973 54.963893 
L 127.581159 54.2683 
L 127.581159 54.2683 
L 129.433882 53.127399 
L 129.433882 53.127399 
L 130.850012 52.609816 
L 130.850012 52.609816 
L 134.121185 51.663049 
L 134.121185 51.663049 
L 135.056329 51.650328 
L 135.056329 51.650328 
L 137.889213 52.093368 
L 140.689426 52.89567 
L 140.689426 52.89567 
L 141.624195 53.33401 
L 141.624195 53.33401 
L 144.427036 54.974588 
L 144.427036 54.974588 
L 145.355777 55.324531 
L 145.355777 55.324531 
L 147.221236 55.710368 
L 147.221236 55.710368 
L 148.144508 55.729247 
L 148.144508 55.729247 
L 149.57416 55.471995 
L 149.57416 55.471995 
L 151.454021 54.995492 
L 151.454021 54.995492 
L 153.781787 54.226735 
L 153.781787 54.226735 
L 155.184538 53.437721 
L 155.184538 53.437721 
L 157.063538 52.071087 
L 157.063538 52.071087 
L 157.980458 51.380356 
L 157.980458 51.380356 
L 159.843637 50.516071 
L 159.843637 50.516071 
L 161.259218 50.284909 
L 161.259218 50.284909 
L 162.627515 50.071815 
L 162.627515 50.071815 
L 163.554567 49.710042 
L 163.554567 49.710042 
L 168.3001 47.286042 
L 168.3001 47.286042 
L 174.917689 44.883838 
L 174.917689 44.883838 
L 176.80092 44.020896 
L 176.80092 44.020896 
L 178.202072 43.794781 
L 178.202072 43.794781 
L 179.15376 43.918769 
L 179.15376 43.918769 
L 180.107195 44.284216 
L 180.107195 44.284216 
L 181.058745 44.951688 
L 181.058745 44.951688 
L 181.997302 45.908361 
L 181.997302 45.908361 
L 184.957589 49.652895 
L 184.957589 49.652895 
L 186.228149 50.834884 
L 186.228149 50.834884 
L 187.969682 52.103024 
L 187.969682 52.103024 
L 189.281096 53.104211 
L 189.281096 53.104211 
L 190.977584 54.362753 
L 190.977584 54.362753 
L 192.253314 55.119166 
L 198.245082 57.935674 
L 201.602338 58.881774 
L 201.602338 58.881774 
L 202.905872 58.820915 
L 202.905872 58.820915 
L 204.23736 58.886894 
L 204.23736 58.886894 
L 205.50276 59.090204 
L 205.50276 59.090204 
L 207.190636 59.077442 
L 207.190636 59.077442 
L 210.691625 58.341041 
L 212.435642 58.139239 
L 212.435642 58.139239 
L 214.197809 57.982113 
L 215.454905 57.992216 
L 216.288242 57.827332 
L 217.545353 57.299776 
L 218.8317 56.46587 
L 218.8317 56.46587 
L 222.801754 53.739941 
L 222.801754 53.739941 
L 227.211373 51.738289 
L 229.408884 50.905661 
L 229.408884 50.905661 
L 230.717335 50.401846 
L 230.717335 50.401846 
L 232.934201 49.495883 
L 232.934201 49.495883 
L 233.796355 49.201109 
L 233.796355 49.201109 
L 239.546874 46.63031 
L 241.295894 45.783284 
L 241.295894 45.783284 
L 244.425119 43.960095 
L 254.880326 38.332388 
L 257.219768 37.345491 
L 257.219768 37.345491 
L 259.950132 36.623583 
L 261.353081 36.184162 
L 261.353081 36.184162 
L 263.660066 35.711335 
L 263.660066 35.711335 
L 265.075289 35.484234 
L 265.075289 35.484234 
L 268.811522 35.443027 
L 268.811522 35.443027 
L 270.166072 35.73599 
L 271.50727 35.913566 
L 272.915813 35.913477 
L 272.915813 35.913477 
L 277.491662 36.575227 
L 277.491662 36.575227 
L 280.689667 37.042549 
L 288.53241 37.998756 
L 288.53241 37.998756 
L 290.394325 38.69238 
L 294.014666 40.285071 
L 294.014666 40.285071 
L 298.070736 41.785211 
L 298.070736 41.785211 
L 300.848996 42.534882 
L 300.848996 42.534882 
L 301.771691 42.994408 
L 303.531536 44.054644 
L 304.857853 44.588607 
L 308.965939 45.95124 
L 308.965939 45.95124 
L 312.894029 47.989497 
L 312.894029 47.989497 
L 314.628948 48.630971 
L 314.628948 48.630971 
L 316.43537 49.151502 
L 316.43537 49.151502 
L 318.263024 49.931034 
L 318.263024 49.931034 
L 319.173093 50.503868 
L 319.173093 50.503868 
L 320.973715 51.947391 
L 320.973715 51.947391 
L 322.315334 53.251916 
L 322.315334 53.251916 
L 324.11731 55.289903 
L 324.11731 55.289903 
L 325.894631 57.83972 
L 325.894631 57.83972 
L 329.672278 64.054967 
L 329.672278 64.054967 
L 331.352209 66.800004 
L 331.352209 66.800004 
L 333.026398 69.426707 
L 334.40609 70.90321 
L 334.40609 70.90321 
L 337.15306 73.375339 
L 337.15306 73.375339 
L 338.020091 73.945911 
L 338.918552 74.205188 
L 338.918552 74.205188 
L 340.26147 74.224553 
L 340.26147 74.224553 
L 341.168131 73.932137 
L 341.168131 73.932137 
L 342.026228 73.551972 
L 342.026228 73.551972 
L 342.842951 72.927032 
L 342.842951 72.927032 
L 343.250224 72.447612 
L 343.250224 72.447612 
L 344.139184 70.872502 
L 344.139184 70.872502 
L 346.465829 65.987069 
L 346.465829 65.987069 
L 349.147025 60.293338 
L 349.147025 60.293338 
L 350.533622 58.130155 
L 350.533622 58.130155 
L 352.339746 55.633476 
L 352.339746 55.633476 
L 353.696237 53.315132 
L 353.696237 53.315132 
L 358.308067 44.667341 
L 358.308067 44.667341 
L 362.505894 38.328982 
L 362.505894 38.328982 
L 363.857358 36.560387 
L 363.857358 36.560387 
L 364.750516 35.695373 
L 364.750516 35.695373 
L 365.657295 35.067273 
L 365.657295 35.067273 
L 366.561257 34.634037 
L 366.561257 34.634037 
L 367.470554 34.459106 
L 367.470554 34.459106 
L 368.388041 34.503588 
L 368.388041 34.503588 
L 369.316411 34.772994 
L 369.316411 34.772994 
L 370.241427 35.200801 
L 370.241427 35.200801 
L 371.159127 35.806781 
L 372.529271 36.77583 
L 372.529271 36.77583 
L 373.44518 37.261003 
L 374.851213 37.719357 
L 374.851213 37.719357 
L 376.748786 38.045317 
L 376.748786 38.045317 
L 380.012817 38.437393 
L 380.012817 38.437393 
L 381.403628 39.059496 
L 381.403628 39.059496 
L 385.18676 40.796006 
L 385.18676 40.796006 
L 387.076757 41.52652 
L 387.076757 41.52652 
L 388.968376 42.238561 
L 388.968376 42.238561 
L 390.860978 43.124317 
L 390.860978 43.124317 
L 393.670302 44.628693 
L 393.670302 44.628693 
L 394.605569 45.101469 
L 396.484976 46.140847 
L 396.484976 46.140847 
L 398.365666 46.936828 
L 399.306831 47.154367 
L 399.306831 47.154367 
L 400.247564 46.9898 
L 401.177325 46.582973 
L 401.177325 46.582973 
L 402.09911 45.988847 
L 402.09911 45.988847 
L 411.342331 38.690924 
L 413.513048 37.403646 
L 413.513048 37.403646 
L 414.793997 36.761515 
L 414.793997 36.761515 
L 416.073812 36.265284 
L 419.095163 35.537396 
L 419.095163 35.537396 
L 420.830621 35.326013 
L 420.830621 35.326013 
L 424.338516 34.992153 
L 427.315519 34.516554 
L 429.06305 34.804619 
L 430.840283 34.96615 
L 434.7279 34.863664 
L 434.7279 34.863664 
L 437.797383 35.130426 
L 439.139171 35.126864 
L 440.904883 34.815788 
L 443.081306 34.14064 
L 444.778148 33.659609 
L 446.040531 33.538446 
L 447.305033 33.652025 
L 448.552964 33.986998 
L 449.819423 34.731078 
L 455.958403 38.828966 
L 457.728635 39.662957 
L 459.971418 40.510709 
L 464.403584 41.323596 
L 466.134342 41.492963 
L 467.425935 41.837679 
L 469.179997 42.614879 
L 471.836192 43.990152 
L 475.435343 45.849855 
L 477.268624 46.590077 
L 478.63384 46.915922 
L 480.832921 47.293917 
L 482.159172 47.738007 
L 485.791772 49.092422 
L 488.944045 50.058923 
L 490.773659 50.624511 
L 495.731706 51.933084 
L 500.770692 53.855621 
L 500.770692 53.855621 
" style="fill:none;stroke:#008000;stroke-linecap:square;stroke-width:1.5;"/>
   </g>
   <g id="patch_3">
    <path d="M 58.32 81.792 
L 58.32 13.824 
" style="fill:none;stroke:#000000;stroke-linecap:square;stroke-linejoin:miter;stroke-width:0.8;"/>
   </g>
   <g id="patch_4">
    <path d="M 502.662857 81.792 
L 502.662857 13.824 
" style="fill:none;stroke:#000000;stroke-linecap:square;stroke-linejoin:miter;stroke-width:0.8;"/>
   </g>
   <g id="patch_5">
    <path d="M 58.32 81.792 
L 502.662857 81.792 
" style="fill:none;stroke:#000000;stroke-linecap:square;stroke-linejoin:miter;stroke-width:0.8;"/>
   </g>
   <g id="patch_6">
    <path d="M 58.32 13.824 
L 502.662857 13.824 
" style="fill:none;stroke:#000000;stroke-linecap:square;stroke-linejoin:miter;stroke-width:0.8;"/>
   </g>
  </g>
  <g id="axes_2">
   <g id="patch_7">
    <path d="M 502.662857 81.792 
L 576.72 81.792 
L 576.72 13.824 
L 502.662857 13.824 
z
" style="fill:#ffffff;"/>
   </g>
   <g id="patch_8">
    <path clip-path="url(#pa5079adae9)" d="M 502.662857 86.8896 
L 502.662857 86.8896 
L 502.662857 85.1904 
L 502.662857 85.1904 
z
" style="fill:#008000;"/>
   </g>
   <g id="patch_9">
    <path clip-path="url(#pa5079adae9)" d="M 502.662857 85.1904 
L 502.662857 85.1904 
L 502.662857 83.4912 
L 502.662857 83.4912 
z
" style="fill:#008000;"/>
   </g>
   <g id="patch_10">
    <path clip-path="url(#pa5079adae9)" d="M 502.662857 83.4912 
L 502.662857 83.4912 
L 502.662857 81.792 
L 502.662857 81.792 
z
" style="fill:#008000;"/>
   </g>
   <g id="patch_11">
    <path clip-path="url(#pa5079adae9)" d="M 502.662857 81.792 
L 502.662857 81.792 
L 502.662857 80.0928 
L 502.662857 80.0928 
z
" style="fill:#008000;"/>
   </g>
   <g id="patch_12">
    <path clip-path="url(#pa5079adae9)" d="M 502.662857 80.0928 
L 502.662857 80.0928 
L 502.662857 78.3936 
L 502.662857 78.3936 
z
" style="fill:#008000;"/>
   </g>
   <g id="patch_13">
    <path clip-path="url(#pa5079adae9)" d="M 502.662857 78.3936 
L 502.662857 78.3936 
L 502.662857 76.6944 
L 502.662857 76.6944 
z
" style="fill:#008000;"/>
   </g>
   <g id="patch_14">
    <path clip-path="url(#pa5079adae9)" d="M 502.662857 76.6944 
L 502.662857 76.6944 
L 502.662857 74.9952 
L 502.662857 74.9952 
z
" style="fill:#008000;"/>
   </g>
   <g id="patch_15">
    <path clip-path="url(#pa5079adae9)" d="M 502.662857 74.9952 
L 511.479184 74.9952 
L 511.479184 73.296 
L 502.662857 73.296 
z
" style="fill:#008000;"/>
   </g>
   <g id="patch_16">
    <path clip-path="url(#pa5079adae9)" d="M 502.662857 73.296 
L 508.412635 73.296 
L 508.412635 71.5968 
L 502.662857 71.5968 
z
" style="fill:#008000;"/>
   </g>
   <g id="patch_17">
    <path clip-path="url(#pa5079adae9)" d="M 502.662857 71.5968 
L 506.879361 71.5968 
L 506.879361 69.8976 
L 502.662857 69.8976 
z
" style="fill:#008000;"/>
   </g>
   <g id="patch_18">
    <path clip-path="url(#pa5079adae9)" d="M 502.662857 69.8976 
L 504.57945 69.8976 
L 504.57945 68.1984 
L 502.662857 68.1984 
z
" style="fill:#008000;"/>
   </g>
   <g id="patch_19">
    <path clip-path="url(#pa5079adae9)" d="M 502.662857 68.1984 
L 506.496043 68.1984 
L 506.496043 66.4992 
L 502.662857 66.4992 
z
" style="fill:#008000;"/>
   </g>
   <g id="patch_20">
    <path clip-path="url(#pa5079adae9)" d="M 502.662857 66.4992 
L 505.346087 66.4992 
L 505.346087 64.8 
L 502.662857 64.8 
z
" style="fill:#008000;"/>
   </g>
   <g id="patch_21">
    <path clip-path="url(#pa5079adae9)" d="M 502.662857 64.8 
L 505.729406 64.8 
L 505.729406 63.1008 
L 502.662857 63.1008 
z
" style="fill:#008000;"/>
   </g>
   <g id="patch_22">
    <path clip-path="url(#pa5079adae9)" d="M 502.662857 63.1008 
L 504.962768 63.1008 
L 504.962768 61.4016 
L 502.662857 61.4016 
z
" style="fill:#008000;"/>
   </g>
   <g id="patch_23">
    <path clip-path="url(#pa5079adae9)" d="M 502.662857 61.4016 
L 506.496043 61.4016 
L 506.496043 59.7024 
L 502.662857 59.7024 
z
" style="fill:#008000;"/>
   </g>
   <g id="patch_24">
    <path clip-path="url(#pa5079adae9)" d="M 502.662857 59.7024 
L 531.411748 59.7024 
L 531.411748 58.0032 
L 502.662857 58.0032 
z
" style="fill:#008000;"/>
   </g>
   <g id="patch_25">
    <path clip-path="url(#pa5079adae9)" d="M 502.662857 58.0032 
L 518.762236 58.0032 
L 518.762236 56.304 
L 502.662857 56.304 
z
" style="fill:#008000;"/>
   </g>
   <g id="patch_26">
    <path clip-path="url(#pa5079adae9)" d="M 502.662857 56.304 
L 537.928163 56.304 
L 537.928163 54.6048 
L 502.662857 54.6048 
z
" style="fill:#008000;"/>
   </g>
   <g id="patch_27">
    <path clip-path="url(#pa5079adae9)" d="M 502.662857 54.6048 
L 550.960994 54.6048 
L 550.960994 52.9056 
L 502.662857 52.9056 
z
" style="fill:#008000;"/>
   </g>
   <g id="patch_28">
    <path clip-path="url(#pa5079adae9)" d="M 502.662857 52.9056 
L 573.193469 52.9056 
L 573.193469 51.2064 
L 502.662857 51.2064 
z
" style="fill:#008000;"/>
   </g>
   <g id="patch_29">
    <path clip-path="url(#pa5079adae9)" d="M 502.662857 51.2064 
L 548.277764 51.2064 
L 548.277764 49.5072 
L 502.662857 49.5072 
z
" style="fill:#008000;"/>
   </g>
   <g id="patch_30">
    <path clip-path="url(#pa5079adae9)" d="M 502.662857 49.5072 
L 544.06126 49.5072 
L 544.06126 47.808 
L 502.662857 47.808 
z
" style="fill:#008000;"/>
   </g>
   <g id="patch_31">
    <path clip-path="url(#pa5079adae9)" d="M 502.662857 47.808 
L 547.511127 47.808 
L 547.511127 46.1088 
L 502.662857 46.1088 
z
" style="fill:#008000;"/>
   </g>
   <g id="patch_32">
    <path clip-path="url(#pa5079adae9)" d="M 502.662857 46.1088 
L 537.161526 46.1088 
L 537.161526 44.4096 
L 502.662857 44.4096 
z
" style="fill:#008000;"/>
   </g>
   <g id="patch_33">
    <path clip-path="url(#pa5079adae9)" d="M 502.662857 44.4096 
L 528.3452 44.4096 
L 528.3452 42.7104 
L 502.662857 42.7104 
z
" style="fill:#008000;"/>
   </g>
   <g id="patch_34">
    <path clip-path="url(#pa5079adae9)" d="M 502.662857 42.7104 
L 532.561704 42.7104 
L 532.561704 41.0112 
L 502.662857 41.0112 
z
" style="fill:#008000;"/>
   </g>
   <g id="patch_35">
    <path clip-path="url(#pa5079adae9)" d="M 502.662857 41.0112 
L 528.3452 41.0112 
L 528.3452 39.312 
L 502.662857 39.312 
z
" style="fill:#008000;"/>
   </g>
   <g id="patch_36">
    <path clip-path="url(#pa5079adae9)" d="M 502.662857 39.312 
L 533.711659 39.312 
L 533.711659 37.6128 
L 502.662857 37.6128 
z
" style="fill:#008000;"/>
   </g>
   <g id="patch_37">
    <path clip-path="url(#pa5079adae9)" d="M 502.662857 37.6128 
L 543.294623 37.6128 
L 543.294623 35.9136 
L 502.662857 35.9136 
z
" style="fill:#008000;"/>
   </g>
   <g id="patch_38">
    <path clip-path="url(#pa5079adae9)" d="M 502.662857 35.9136 
L 556.327453 35.9136 
L 556.327453 34.2144 
L 502.662857 34.2144 
z
" style="fill:#008000;"/>
   </g>
   <g id="patch_39">
    <path clip-path="url(#pa5079adae9)" d="M 502.662857 34.2144 
L 508.412635 34.2144 
L 508.412635 32.5152 
L 502.662857 32.5152 
z
" style="fill:#008000;"/>
   </g>
   <g id="patch_40">
    <path clip-path="url(#pa5079adae9)" d="M 502.662857 32.5152 
L 502.662857 32.5152 
L 502.662857 30.816 
L 502.662857 30.816 
z
" style="fill:#008000;"/>
   </g>
   <g id="patch_41">
    <path clip-path="url(#pa5079adae9)" d="M 502.662857 30.816 
L 502.662857 30.816 
L 502.662857 29.1168 
L 502.662857 29.1168 
z
" style="fill:#008000;"/>
   </g>
   <g id="patch_42">
    <path clip-path="url(#pa5079adae9)" d="M 502.662857 29.1168 
L 502.662857 29.1168 
L 502.662857 27.4176 
L 502.662857 27.4176 
z
" style="fill:#008000;"/>
   </g>
   <g id="patch_43">
    <path clip-path="url(#pa5079adae9)" d="M 502.662857 27.4176 
L 502.662857 27.4176 
L 502.662857 25.7184 
L 502.662857 25.7184 
z
" style="fill:#008000;"/>
   </g>
   <g id="patch_44">
    <path clip-path="url(#pa5079adae9)" d="M 502.662857 25.7184 
L 502.662857 25.7184 
L 502.662857 24.0192 
L 502.662857 24.0192 
z
" style="fill:#008000;"/>
   </g>
   <g id="patch_45">
    <path clip-path="url(#pa5079adae9)" d="M 502.662857 24.0192 
L 502.662857 24.0192 
L 502.662857 22.32 
L 502.662857 22.32 
z
" style="fill:#008000;"/>
   </g>
   <g id="patch_46">
    <path clip-path="url(#pa5079adae9)" d="M 502.662857 22.32 
L 502.662857 22.32 
L 502.662857 20.6208 
L 502.662857 20.6208 
z
" style="fill:#008000;"/>
   </g>
   <g id="patch_47">
    <path clip-path="url(#pa5079adae9)" d="M 502.662857 20.6208 
L 502.662857 20.6208 
L 502.662857 18.9216 
L 502.662857 18.9216 
z
" style="fill:#008000;"/>
   </g>
   <g id="patch_48">
    <path clip-path="url(#pa5079adae9)" d="M 502.662857 18.9216 
L 502.662857 18.9216 
L 502.662857 17.2224 
L 502.662857 17.2224 
z
" style="fill:#008000;"/>
   </g>
   <g id="patch_49">
    <path clip-path="url(#pa5079adae9)" d="M 502.662857 17.2224 
L 502.662857 17.2224 
L 502.662857 15.5232 
L 502.662857 15.5232 
z
" style="fill:#008000;"/>
   </g>
   <g id="patch_50">
    <path clip-path="url(#pa5079adae9)" d="M 502.662857 15.5232 
L 502.662857 15.5232 
L 502.662857 13.824 
L 502.662857 13.824 
z
" style="fill:#008000;"/>
   </g>
   <g id="patch_51">
    <path clip-path="url(#pa5079adae9)" d="M 502.662857 13.824 
L 502.662857 13.824 
L 502.662857 12.1248 
L 502.662857 12.1248 
z
" style="fill:#008000;"/>
   </g>
   <g id="patch_52">
    <path clip-path="url(#pa5079adae9)" d="M 502.662857 12.1248 
L 502.662857 12.1248 
L 502.662857 10.4256 
L 502.662857 10.4256 
z
" style="fill:#008000;"/>
   </g>
   <g id="patch_53">
    <path clip-path="url(#pa5079adae9)" d="M 502.662857 10.4256 
L 502.662857 10.4256 
L 502.662857 8.7264 
L 502.662857 8.7264 
z
" style="fill:#008000;"/>
   </g>
   <g id="matplotlib.axis_3">
    <g id="xtick_7">
     <g id="line2d_26">
      <g>
       <use style="stroke:#000000;stroke-width:0.8;" x="502.662857" xlink:href="#mae170e77c2" y="81.792"/>
      </g>
     </g>
     <g id="line2d_27">
      <g>
       <use style="stroke:#000000;stroke-width:0.8;" x="502.662857" xlink:href="#m023c206576" y="13.824"/>
      </g>
     </g>
    </g>
    <g id="xtick_8">
     <g id="line2d_28">
      <g>
       <use style="stroke:#000000;stroke-width:0.8;" x="564.070488" xlink:href="#mae170e77c2" y="81.792"/>
      </g>
     </g>
     <g id="line2d_29">
      <g>
       <use style="stroke:#000000;stroke-width:0.8;" x="564.070488" xlink:href="#m023c206576" y="13.824"/>
      </g>
     </g>
    </g>
    <g id="text_12">
     <!-- Histogram -->
     <defs>
      <path d="M 9.8125 72.90625 
L 19.671875 72.90625 
L 19.671875 43.015625 
L 55.515625 43.015625 
L 55.515625 72.90625 
L 65.375 72.90625 
L 65.375 0 
L 55.515625 0 
L 55.515625 34.71875 
L 19.671875 34.71875 
L 19.671875 0 
L 9.8125 0 
z
" id="DejaVuSans-48"/>
      <path d="M 45.40625 27.984375 
Q 45.40625 37.75 41.375 43.109375 
Q 37.359375 48.484375 30.078125 48.484375 
Q 22.859375 48.484375 18.828125 43.109375 
Q 14.796875 37.75 14.796875 27.984375 
Q 14.796875 18.265625 18.828125 12.890625 
Q 22.859375 7.515625 30.078125 7.515625 
Q 37.359375 7.515625 41.375 12.890625 
Q 45.40625 18.265625 45.40625 27.984375 
z
M 54.390625 6.78125 
Q 54.390625 -7.171875 48.1875 -13.984375 
Q 42 -20.796875 29.203125 -20.796875 
Q 24.46875 -20.796875 20.265625 -20.09375 
Q 16.0625 -19.390625 12.109375 -17.921875 
L 12.109375 -9.1875 
Q 16.0625 -11.328125 19.921875 -12.34375 
Q 23.78125 -13.375 27.78125 -13.375 
Q 36.625 -13.375 41.015625 -8.765625 
Q 45.40625 -4.15625 45.40625 5.171875 
L 45.40625 9.625 
Q 42.625 4.78125 38.28125 2.390625 
Q 33.9375 0 27.875 0 
Q 17.828125 0 11.671875 7.65625 
Q 5.515625 15.328125 5.515625 27.984375 
Q 5.515625 40.671875 11.671875 48.328125 
Q 17.828125 56 27.875 56 
Q 33.9375 56 38.28125 53.609375 
Q 42.625 51.21875 45.40625 46.390625 
L 45.40625 54.6875 
L 54.390625 54.6875 
z
" id="DejaVuSans-67"/>
     </defs>
     <g transform="translate(513.753929 96.890438)scale(0.1 -0.1)">
      <use xlink:href="#DejaVuSans-48"/>
      <use x="75.195312" xlink:href="#DejaVuSans-69"/>
      <use x="102.978516" xlink:href="#DejaVuSans-73"/>
      <use x="155.078125" xlink:href="#DejaVuSans-74"/>
      <use x="194.287109" xlink:href="#DejaVuSans-6f"/>
      <use x="255.46875" xlink:href="#DejaVuSans-67"/>
      <use x="318.945312" xlink:href="#DejaVuSans-72"/>
      <use x="360.058594" xlink:href="#DejaVuSans-61"/>
      <use x="421.337891" xlink:href="#DejaVuSans-6d"/>
     </g>
    </g>
   </g>
   <g id="matplotlib.axis_4">
    <g id="ytick_4">
     <g id="line2d_30">
      <g>
       <use style="stroke:#000000;stroke-width:0.8;" x="502.662857" xlink:href="#m427b42b994" y="81.792"/>
      </g>
     </g>
    </g>
    <g id="ytick_5">
     <g id="line2d_31">
      <g>
       <use style="stroke:#000000;stroke-width:0.8;" x="502.662857" xlink:href="#m427b42b994" y="47.808"/>
      </g>
     </g>
    </g>
    <g id="ytick_6">
     <g id="line2d_32">
      <g>
       <use style="stroke:#000000;stroke-width:0.8;" x="502.662857" xlink:href="#m427b42b994" y="13.824"/>
      </g>
     </g>
    </g>
   </g>
   <g id="line2d_33">
    <path clip-path="url(#pa5079adae9)" d="M 502.662857 47.808 
L 576.72 47.808 
" style="fill:none;stroke:#000000;stroke-linecap:square;stroke-width:0.5;"/>
   </g>
   <g id="patch_54">
    <path d="M 502.662857 81.792 
L 502.662857 13.824 
" style="fill:none;stroke:#000000;stroke-linecap:square;stroke-linejoin:miter;stroke-width:0.8;"/>
   </g>
   <g id="patch_55">
    <path d="M 576.72 81.792 
L 576.72 13.824 
" style="fill:none;stroke:#000000;stroke-linecap:square;stroke-linejoin:miter;stroke-width:0.8;"/>
   </g>
   <g id="patch_56">
    <path d="M 502.662857 81.792 
L 576.72 81.792 
" style="fill:none;stroke:#000000;stroke-linecap:square;stroke-linejoin:miter;stroke-width:0.8;"/>
   </g>
   <g id="patch_57">
    <path d="M 502.662857 13.824 
L 576.72 13.824 
" style="fill:none;stroke:#000000;stroke-linecap:square;stroke-linejoin:miter;stroke-width:0.8;"/>
   </g>
   <g id="text_13">
    <!-- R-STDP  -->
    <defs>
     <path d="M 44.390625 34.1875 
Q 47.5625 33.109375 50.5625 29.59375 
Q 53.5625 26.078125 56.59375 19.921875 
L 66.609375 0 
L 56 0 
L 46.6875 18.703125 
Q 43.0625 26.03125 39.671875 28.421875 
Q 36.28125 30.8125 30.421875 30.8125 
L 19.671875 30.8125 
L 19.671875 0 
L 9.8125 0 
L 9.8125 72.90625 
L 32.078125 72.90625 
Q 44.578125 72.90625 50.734375 67.671875 
Q 56.890625 62.453125 56.890625 51.90625 
Q 56.890625 45.015625 53.6875 40.46875 
Q 50.484375 35.9375 44.390625 34.1875 
z
M 19.671875 64.796875 
L 19.671875 38.921875 
L 32.078125 38.921875 
Q 39.203125 38.921875 42.84375 42.21875 
Q 46.484375 45.515625 46.484375 51.90625 
Q 46.484375 58.296875 42.84375 61.546875 
Q 39.203125 64.796875 32.078125 64.796875 
z
" id="DejaVuSans-52"/>
     <path d="M 53.515625 70.515625 
L 53.515625 60.890625 
Q 47.90625 63.578125 42.921875 64.890625 
Q 37.9375 66.21875 33.296875 66.21875 
Q 25.25 66.21875 20.875 63.09375 
Q 16.5 59.96875 16.5 54.203125 
Q 16.5 49.359375 19.40625 46.890625 
Q 22.3125 44.4375 30.421875 42.921875 
L 36.375 41.703125 
Q 47.40625 39.59375 52.65625 34.296875 
Q 57.90625 29 57.90625 20.125 
Q 57.90625 9.515625 50.796875 4.046875 
Q 43.703125 -1.421875 29.984375 -1.421875 
Q 24.8125 -1.421875 18.96875 -0.25 
Q 13.140625 0.921875 6.890625 3.21875 
L 6.890625 13.375 
Q 12.890625 10.015625 18.65625 8.296875 
Q 24.421875 6.59375 29.984375 6.59375 
Q 38.421875 6.59375 43.015625 9.90625 
Q 47.609375 13.234375 47.609375 19.390625 
Q 47.609375 24.75 44.3125 27.78125 
Q 41.015625 30.8125 33.5 32.328125 
L 27.484375 33.5 
Q 16.453125 35.6875 11.515625 40.375 
Q 6.59375 45.0625 6.59375 53.421875 
Q 6.59375 63.09375 13.40625 68.65625 
Q 20.21875 74.21875 32.171875 74.21875 
Q 37.3125 74.21875 42.625 73.28125 
Q 47.953125 72.359375 53.515625 70.515625 
z
" id="DejaVuSans-53"/>
     <path d="M -0.296875 72.90625 
L 61.375 72.90625 
L 61.375 64.59375 
L 35.5 64.59375 
L 35.5 0 
L 25.59375 0 
L 25.59375 64.59375 
L -0.296875 64.59375 
z
" id="DejaVuSans-54"/>
    </defs>
    <g transform="translate(584.125714 39.802775)scale(0.1 -0.1)">
     <use xlink:href="#DejaVuSans-52"/>
     <use x="69.419922" xlink:href="#DejaVuSans-2d"/>
     <use x="105.503906" xlink:href="#DejaVuSans-53"/>
     <use x="168.980469" xlink:href="#DejaVuSans-54"/>
     <use x="230.064453" xlink:href="#DejaVuSans-44"/>
     <use x="307.066406" xlink:href="#DejaVuSans-50"/>
     <use x="367.369141" xlink:href="#DejaVuSans-20"/>
    </g>
    <!-- e = 0.042 -->
    <defs>
     <path d="M 10.59375 45.40625 
L 73.1875 45.40625 
L 73.1875 37.203125 
L 10.59375 37.203125 
z
M 10.59375 25.484375 
L 73.1875 25.484375 
L 73.1875 17.1875 
L 10.59375 17.1875 
z
" id="DejaVuSans-3d"/>
     <path d="M 37.796875 64.3125 
L 12.890625 25.390625 
L 37.796875 25.390625 
z
M 35.203125 72.90625 
L 47.609375 72.90625 
L 47.609375 25.390625 
L 58.015625 25.390625 
L 58.015625 17.1875 
L 47.609375 17.1875 
L 47.609375 0 
L 37.796875 0 
L 37.796875 17.1875 
L 4.890625 17.1875 
L 4.890625 26.703125 
z
" id="DejaVuSans-34"/>
    </defs>
    <g transform="translate(584.125714 51.000588)scale(0.1 -0.1)">
     <use xlink:href="#DejaVuSans-65"/>
     <use x="61.523438" xlink:href="#DejaVuSans-20"/>
     <use x="93.310547" xlink:href="#DejaVuSans-3d"/>
     <use x="177.099609" xlink:href="#DejaVuSans-20"/>
     <use x="208.886719" xlink:href="#DejaVuSans-30"/>
     <use x="272.509766" xlink:href="#DejaVuSans-2e"/>
     <use x="304.296875" xlink:href="#DejaVuSans-30"/>
     <use x="367.919922" xlink:href="#DejaVuSans-34"/>
     <use x="431.542969" xlink:href="#DejaVuSans-32"/>
    </g>
    <!-- MSE =0.052 -->
    <defs>
     <path d="M 9.8125 72.90625 
L 24.515625 72.90625 
L 43.109375 23.296875 
L 61.8125 72.90625 
L 76.515625 72.90625 
L 76.515625 0 
L 66.890625 0 
L 66.890625 64.015625 
L 48.09375 14.015625 
L 38.1875 14.015625 
L 19.390625 64.015625 
L 19.390625 0 
L 9.8125 0 
z
" id="DejaVuSans-4d"/>
     <path d="M 9.8125 72.90625 
L 55.90625 72.90625 
L 55.90625 64.59375 
L 19.671875 64.59375 
L 19.671875 43.015625 
L 54.390625 43.015625 
L 54.390625 34.71875 
L 19.671875 34.71875 
L 19.671875 8.296875 
L 56.78125 8.296875 
L 56.78125 0 
L 9.8125 0 
z
" id="DejaVuSans-45"/>
    </defs>
    <g transform="translate(584.125714 62.1984)scale(0.1 -0.1)">
     <use xlink:href="#DejaVuSans-4d"/>
     <use x="86.279297" xlink:href="#DejaVuSans-53"/>
     <use x="149.755859" xlink:href="#DejaVuSans-45"/>
     <use x="212.939453" xlink:href="#DejaVuSans-20"/>
     <use x="244.726562" xlink:href="#DejaVuSans-3d"/>
     <use x="328.515625" xlink:href="#DejaVuSans-30"/>
     <use x="392.138672" xlink:href="#DejaVuSans-2e"/>
     <use x="423.925781" xlink:href="#DejaVuSans-30"/>
     <use x="487.548828" xlink:href="#DejaVuSans-35"/>
     <use x="551.171875" xlink:href="#DejaVuSans-32"/>
    </g>
   </g>
  </g>
 </g>
 <defs>
  <clipPath id="p7375c5b95f">
   <rect height="67.968" width="444.342857" x="58.32" y="13.824"/>
  </clipPath>
  <clipPath id="pa5079adae9">
   <rect height="67.968" width="74.057143" x="502.662857" y="13.824"/>
  </clipPath>
 </defs>
</svg>
