<?xml version="1.0" encoding="utf-8" standalone="no"?>
<!DOCTYPE svg PUBLIC "-//W3C//DTD SVG 1.1//EN"
  "http://www.w3.org/Graphics/SVG/1.1/DTD/svg11.dtd">
<!-- Created with matplotlib (http://matplotlib.org/) -->
<svg height="115.2pt" version="1.1" viewBox="0 0 648 115.2" width="648pt" xmlns="http://www.w3.org/2000/svg" xmlns:xlink="http://www.w3.org/1999/xlink">
 <defs>
  <style type="text/css">
*{stroke-linecap:butt;stroke-linejoin:round;}
  </style>
 </defs>
 <g id="figure_1">
  <g id="patch_1">
   <path d="M 0 115.2 
L 648 115.2 
L 648 0 
L 0 0 
z
" style="fill:#ffffff;"/>
  </g>
  <g id="axes_1">
   <g id="patch_2">
    <path d="M 58.32 81.792 
L 502.662857 81.792 
L 502.662857 13.824 
L 58.32 13.824 
z
" style="fill:#ffffff;"/>
   </g>
   <g id="matplotlib.axis_1">
    <g id="xtick_1">
     <g id="line2d_1">
      <defs>
       <path d="M 0 0 
L 0 -3.5 
" id="me445893f3c" style="stroke:#000000;stroke-width:0.8;"/>
      </defs>
      <g>
       <use style="stroke:#000000;stroke-width:0.8;" x="58.32" xlink:href="#me445893f3c" y="81.792"/>
      </g>
     </g>
     <g id="line2d_2">
      <defs>
       <path d="M 0 0 
L 0 3.5 
" id="m37d0275757" style="stroke:#000000;stroke-width:0.8;"/>
      </defs>
      <g>
       <use style="stroke:#000000;stroke-width:0.8;" x="58.32" xlink:href="#m37d0275757" y="13.824"/>
      </g>
     </g>
     <g id="text_1">
      <!-- 0 -->
      <defs>
       <path d="M 31.78125 66.40625 
Q 24.171875 66.40625 20.328125 58.90625 
Q 16.5 51.421875 16.5 36.375 
Q 16.5 21.390625 20.328125 13.890625 
Q 24.171875 6.390625 31.78125 6.390625 
Q 39.453125 6.390625 43.28125 13.890625 
Q 47.125 21.390625 47.125 36.375 
Q 47.125 51.421875 43.28125 58.90625 
Q 39.453125 66.40625 31.78125 66.40625 
z
M 31.78125 74.21875 
Q 44.046875 74.21875 50.515625 64.515625 
Q 56.984375 54.828125 56.984375 36.375 
Q 56.984375 17.96875 50.515625 8.265625 
Q 44.046875 -1.421875 31.78125 -1.421875 
Q 19.53125 -1.421875 13.0625 8.265625 
Q 6.59375 17.96875 6.59375 36.375 
Q 6.59375 54.828125 13.0625 64.515625 
Q 19.53125 74.21875 31.78125 74.21875 
z
" id="DejaVuSans-30"/>
      </defs>
      <g transform="translate(55.13875 92.890438)scale(0.1 -0.1)">
       <use xlink:href="#DejaVuSans-30"/>
      </g>
     </g>
    </g>
    <g id="xtick_2">
     <g id="line2d_3">
      <g>
       <use style="stroke:#000000;stroke-width:0.8;" x="127.767781" xlink:href="#me445893f3c" y="81.792"/>
      </g>
     </g>
     <g id="line2d_4">
      <g>
       <use style="stroke:#000000;stroke-width:0.8;" x="127.767781" xlink:href="#m37d0275757" y="13.824"/>
      </g>
     </g>
     <g id="text_2">
      <!-- 5 -->
      <defs>
       <path d="M 10.796875 72.90625 
L 49.515625 72.90625 
L 49.515625 64.59375 
L 19.828125 64.59375 
L 19.828125 46.734375 
Q 21.96875 47.46875 24.109375 47.828125 
Q 26.265625 48.1875 28.421875 48.1875 
Q 40.625 48.1875 47.75 41.5 
Q 54.890625 34.8125 54.890625 23.390625 
Q 54.890625 11.625 47.5625 5.09375 
Q 40.234375 -1.421875 26.90625 -1.421875 
Q 22.3125 -1.421875 17.546875 -0.640625 
Q 12.796875 0.140625 7.71875 1.703125 
L 7.71875 11.625 
Q 12.109375 9.234375 16.796875 8.0625 
Q 21.484375 6.890625 26.703125 6.890625 
Q 35.15625 6.890625 40.078125 11.328125 
Q 45.015625 15.765625 45.015625 23.390625 
Q 45.015625 31 40.078125 35.4375 
Q 35.15625 39.890625 26.703125 39.890625 
Q 22.75 39.890625 18.8125 39.015625 
Q 14.890625 38.140625 10.796875 36.28125 
z
" id="DejaVuSans-35"/>
      </defs>
      <g transform="translate(124.586531 92.890438)scale(0.1 -0.1)">
       <use xlink:href="#DejaVuSans-35"/>
      </g>
     </g>
    </g>
    <g id="xtick_3">
     <g id="line2d_5">
      <g>
       <use style="stroke:#000000;stroke-width:0.8;" x="197.215562" xlink:href="#me445893f3c" y="81.792"/>
      </g>
     </g>
     <g id="line2d_6">
      <g>
       <use style="stroke:#000000;stroke-width:0.8;" x="197.215562" xlink:href="#m37d0275757" y="13.824"/>
      </g>
     </g>
     <g id="text_3">
      <!-- 10 -->
      <defs>
       <path d="M 12.40625 8.296875 
L 28.515625 8.296875 
L 28.515625 63.921875 
L 10.984375 60.40625 
L 10.984375 69.390625 
L 28.421875 72.90625 
L 38.28125 72.90625 
L 38.28125 8.296875 
L 54.390625 8.296875 
L 54.390625 0 
L 12.40625 0 
z
" id="DejaVuSans-31"/>
      </defs>
      <g transform="translate(190.853062 92.890438)scale(0.1 -0.1)">
       <use xlink:href="#DejaVuSans-31"/>
       <use x="63.623047" xlink:href="#DejaVuSans-30"/>
      </g>
     </g>
    </g>
    <g id="xtick_4">
     <g id="line2d_7">
      <g>
       <use style="stroke:#000000;stroke-width:0.8;" x="266.663344" xlink:href="#me445893f3c" y="81.792"/>
      </g>
     </g>
     <g id="line2d_8">
      <g>
       <use style="stroke:#000000;stroke-width:0.8;" x="266.663344" xlink:href="#m37d0275757" y="13.824"/>
      </g>
     </g>
     <g id="text_4">
      <!-- 15 -->
      <g transform="translate(260.300844 92.890438)scale(0.1 -0.1)">
       <use xlink:href="#DejaVuSans-31"/>
       <use x="63.623047" xlink:href="#DejaVuSans-35"/>
      </g>
     </g>
    </g>
    <g id="xtick_5">
     <g id="line2d_9">
      <g>
       <use style="stroke:#000000;stroke-width:0.8;" x="336.111125" xlink:href="#me445893f3c" y="81.792"/>
      </g>
     </g>
     <g id="line2d_10">
      <g>
       <use style="stroke:#000000;stroke-width:0.8;" x="336.111125" xlink:href="#m37d0275757" y="13.824"/>
      </g>
     </g>
     <g id="text_5">
      <!-- 20 -->
      <defs>
       <path d="M 19.1875 8.296875 
L 53.609375 8.296875 
L 53.609375 0 
L 7.328125 0 
L 7.328125 8.296875 
Q 12.9375 14.109375 22.625 23.890625 
Q 32.328125 33.6875 34.8125 36.53125 
Q 39.546875 41.84375 41.421875 45.53125 
Q 43.3125 49.21875 43.3125 52.78125 
Q 43.3125 58.59375 39.234375 62.25 
Q 35.15625 65.921875 28.609375 65.921875 
Q 23.96875 65.921875 18.8125 64.3125 
Q 13.671875 62.703125 7.8125 59.421875 
L 7.8125 69.390625 
Q 13.765625 71.78125 18.9375 73 
Q 24.125 74.21875 28.421875 74.21875 
Q 39.75 74.21875 46.484375 68.546875 
Q 53.21875 62.890625 53.21875 53.421875 
Q 53.21875 48.921875 51.53125 44.890625 
Q 49.859375 40.875 45.40625 35.40625 
Q 44.1875 33.984375 37.640625 27.21875 
Q 31.109375 20.453125 19.1875 8.296875 
z
" id="DejaVuSans-32"/>
      </defs>
      <g transform="translate(329.748625 92.890438)scale(0.1 -0.1)">
       <use xlink:href="#DejaVuSans-32"/>
       <use x="63.623047" xlink:href="#DejaVuSans-30"/>
      </g>
     </g>
    </g>
    <g id="xtick_6">
     <g id="line2d_11">
      <g>
       <use style="stroke:#000000;stroke-width:0.8;" x="405.558906" xlink:href="#me445893f3c" y="81.792"/>
      </g>
     </g>
     <g id="line2d_12">
      <g>
       <use style="stroke:#000000;stroke-width:0.8;" x="405.558906" xlink:href="#m37d0275757" y="13.824"/>
      </g>
     </g>
     <g id="text_6">
      <!-- 25 -->
      <g transform="translate(399.196406 92.890438)scale(0.1 -0.1)">
       <use xlink:href="#DejaVuSans-32"/>
       <use x="63.623047" xlink:href="#DejaVuSans-35"/>
      </g>
     </g>
    </g>
    <g id="xtick_7">
     <g id="line2d_13">
      <g>
       <use style="stroke:#000000;stroke-width:0.8;" x="475.006687" xlink:href="#me445893f3c" y="81.792"/>
      </g>
     </g>
     <g id="line2d_14">
      <g>
       <use style="stroke:#000000;stroke-width:0.8;" x="475.006687" xlink:href="#m37d0275757" y="13.824"/>
      </g>
     </g>
     <g id="text_7">
      <!-- 30 -->
      <defs>
       <path d="M 40.578125 39.3125 
Q 47.65625 37.796875 51.625 33 
Q 55.609375 28.21875 55.609375 21.1875 
Q 55.609375 10.40625 48.1875 4.484375 
Q 40.765625 -1.421875 27.09375 -1.421875 
Q 22.515625 -1.421875 17.65625 -0.515625 
Q 12.796875 0.390625 7.625 2.203125 
L 7.625 11.71875 
Q 11.71875 9.328125 16.59375 8.109375 
Q 21.484375 6.890625 26.8125 6.890625 
Q 36.078125 6.890625 40.9375 10.546875 
Q 45.796875 14.203125 45.796875 21.1875 
Q 45.796875 27.640625 41.28125 31.265625 
Q 36.765625 34.90625 28.71875 34.90625 
L 20.21875 34.90625 
L 20.21875 43.015625 
L 29.109375 43.015625 
Q 36.375 43.015625 40.234375 45.921875 
Q 44.09375 48.828125 44.09375 54.296875 
Q 44.09375 59.90625 40.109375 62.90625 
Q 36.140625 65.921875 28.71875 65.921875 
Q 24.65625 65.921875 20.015625 65.03125 
Q 15.375 64.15625 9.8125 62.3125 
L 9.8125 71.09375 
Q 15.4375 72.65625 20.34375 73.4375 
Q 25.25 74.21875 29.59375 74.21875 
Q 40.828125 74.21875 47.359375 69.109375 
Q 53.90625 64.015625 53.90625 55.328125 
Q 53.90625 49.265625 50.4375 45.09375 
Q 46.96875 40.921875 40.578125 39.3125 
z
" id="DejaVuSans-33"/>
      </defs>
      <g transform="translate(468.644187 92.890438)scale(0.1 -0.1)">
       <use xlink:href="#DejaVuSans-33"/>
       <use x="63.623047" xlink:href="#DejaVuSans-30"/>
      </g>
     </g>
    </g>
    <g id="text_8">
     <!-- Position [m] -->
     <defs>
      <path d="M 19.671875 64.796875 
L 19.671875 37.40625 
L 32.078125 37.40625 
Q 38.96875 37.40625 42.71875 40.96875 
Q 46.484375 44.53125 46.484375 51.125 
Q 46.484375 57.671875 42.71875 61.234375 
Q 38.96875 64.796875 32.078125 64.796875 
z
M 9.8125 72.90625 
L 32.078125 72.90625 
Q 44.34375 72.90625 50.609375 67.359375 
Q 56.890625 61.8125 56.890625 51.125 
Q 56.890625 40.328125 50.609375 34.8125 
Q 44.34375 29.296875 32.078125 29.296875 
L 19.671875 29.296875 
L 19.671875 0 
L 9.8125 0 
z
" id="DejaVuSans-50"/>
      <path d="M 30.609375 48.390625 
Q 23.390625 48.390625 19.1875 42.75 
Q 14.984375 37.109375 14.984375 27.296875 
Q 14.984375 17.484375 19.15625 11.84375 
Q 23.34375 6.203125 30.609375 6.203125 
Q 37.796875 6.203125 41.984375 11.859375 
Q 46.1875 17.53125 46.1875 27.296875 
Q 46.1875 37.015625 41.984375 42.703125 
Q 37.796875 48.390625 30.609375 48.390625 
z
M 30.609375 56 
Q 42.328125 56 49.015625 48.375 
Q 55.71875 40.765625 55.71875 27.296875 
Q 55.71875 13.875 49.015625 6.21875 
Q 42.328125 -1.421875 30.609375 -1.421875 
Q 18.84375 -1.421875 12.171875 6.21875 
Q 5.515625 13.875 5.515625 27.296875 
Q 5.515625 40.765625 12.171875 48.375 
Q 18.84375 56 30.609375 56 
z
" id="DejaVuSans-6f"/>
      <path d="M 44.28125 53.078125 
L 44.28125 44.578125 
Q 40.484375 46.53125 36.375 47.5 
Q 32.28125 48.484375 27.875 48.484375 
Q 21.1875 48.484375 17.84375 46.4375 
Q 14.5 44.390625 14.5 40.28125 
Q 14.5 37.15625 16.890625 35.375 
Q 19.28125 33.59375 26.515625 31.984375 
L 29.59375 31.296875 
Q 39.15625 29.25 43.1875 25.515625 
Q 47.21875 21.78125 47.21875 15.09375 
Q 47.21875 7.46875 41.1875 3.015625 
Q 35.15625 -1.421875 24.609375 -1.421875 
Q 20.21875 -1.421875 15.453125 -0.5625 
Q 10.6875 0.296875 5.421875 2 
L 5.421875 11.28125 
Q 10.40625 8.6875 15.234375 7.390625 
Q 20.0625 6.109375 24.8125 6.109375 
Q 31.15625 6.109375 34.5625 8.28125 
Q 37.984375 10.453125 37.984375 14.40625 
Q 37.984375 18.0625 35.515625 20.015625 
Q 33.0625 21.96875 24.703125 23.78125 
L 21.578125 24.515625 
Q 13.234375 26.265625 9.515625 29.90625 
Q 5.8125 33.546875 5.8125 39.890625 
Q 5.8125 47.609375 11.28125 51.796875 
Q 16.75 56 26.8125 56 
Q 31.78125 56 36.171875 55.265625 
Q 40.578125 54.546875 44.28125 53.078125 
z
" id="DejaVuSans-73"/>
      <path d="M 9.421875 54.6875 
L 18.40625 54.6875 
L 18.40625 0 
L 9.421875 0 
z
M 9.421875 75.984375 
L 18.40625 75.984375 
L 18.40625 64.59375 
L 9.421875 64.59375 
z
" id="DejaVuSans-69"/>
      <path d="M 18.3125 70.21875 
L 18.3125 54.6875 
L 36.8125 54.6875 
L 36.8125 47.703125 
L 18.3125 47.703125 
L 18.3125 18.015625 
Q 18.3125 11.328125 20.140625 9.421875 
Q 21.96875 7.515625 27.59375 7.515625 
L 36.8125 7.515625 
L 36.8125 0 
L 27.59375 0 
Q 17.1875 0 13.234375 3.875 
Q 9.28125 7.765625 9.28125 18.015625 
L 9.28125 47.703125 
L 2.6875 47.703125 
L 2.6875 54.6875 
L 9.28125 54.6875 
L 9.28125 70.21875 
z
" id="DejaVuSans-74"/>
      <path d="M 54.890625 33.015625 
L 54.890625 0 
L 45.90625 0 
L 45.90625 32.71875 
Q 45.90625 40.484375 42.875 44.328125 
Q 39.84375 48.1875 33.796875 48.1875 
Q 26.515625 48.1875 22.3125 43.546875 
Q 18.109375 38.921875 18.109375 30.90625 
L 18.109375 0 
L 9.078125 0 
L 9.078125 54.6875 
L 18.109375 54.6875 
L 18.109375 46.1875 
Q 21.34375 51.125 25.703125 53.5625 
Q 30.078125 56 35.796875 56 
Q 45.21875 56 50.046875 50.171875 
Q 54.890625 44.34375 54.890625 33.015625 
z
" id="DejaVuSans-6e"/>
      <path id="DejaVuSans-20"/>
      <path d="M 8.59375 75.984375 
L 29.296875 75.984375 
L 29.296875 69 
L 17.578125 69 
L 17.578125 -6.203125 
L 29.296875 -6.203125 
L 29.296875 -13.1875 
L 8.59375 -13.1875 
z
" id="DejaVuSans-5b"/>
      <path d="M 52 44.1875 
Q 55.375 50.25 60.0625 53.125 
Q 64.75 56 71.09375 56 
Q 79.640625 56 84.28125 50.015625 
Q 88.921875 44.046875 88.921875 33.015625 
L 88.921875 0 
L 79.890625 0 
L 79.890625 32.71875 
Q 79.890625 40.578125 77.09375 44.375 
Q 74.3125 48.1875 68.609375 48.1875 
Q 61.625 48.1875 57.5625 43.546875 
Q 53.515625 38.921875 53.515625 30.90625 
L 53.515625 0 
L 44.484375 0 
L 44.484375 32.71875 
Q 44.484375 40.625 41.703125 44.40625 
Q 38.921875 48.1875 33.109375 48.1875 
Q 26.21875 48.1875 22.15625 43.53125 
Q 18.109375 38.875 18.109375 30.90625 
L 18.109375 0 
L 9.078125 0 
L 9.078125 54.6875 
L 18.109375 54.6875 
L 18.109375 46.1875 
Q 21.1875 51.21875 25.484375 53.609375 
Q 29.78125 56 35.6875 56 
Q 41.65625 56 45.828125 52.96875 
Q 50 49.953125 52 44.1875 
z
" id="DejaVuSans-6d"/>
      <path d="M 30.421875 75.984375 
L 30.421875 -13.1875 
L 9.71875 -13.1875 
L 9.71875 -6.203125 
L 21.390625 -6.203125 
L 21.390625 69 
L 9.71875 69 
L 9.71875 75.984375 
z
" id="DejaVuSans-5d"/>
     </defs>
     <g transform="translate(250.487522 106.568563)scale(0.1 -0.1)">
      <use xlink:href="#DejaVuSans-50"/>
      <use x="60.255859" xlink:href="#DejaVuSans-6f"/>
      <use x="121.4375" xlink:href="#DejaVuSans-73"/>
      <use x="173.537109" xlink:href="#DejaVuSans-69"/>
      <use x="201.320312" xlink:href="#DejaVuSans-74"/>
      <use x="240.529297" xlink:href="#DejaVuSans-69"/>
      <use x="268.3125" xlink:href="#DejaVuSans-6f"/>
      <use x="329.494141" xlink:href="#DejaVuSans-6e"/>
      <use x="392.873047" xlink:href="#DejaVuSans-20"/>
      <use x="424.660156" xlink:href="#DejaVuSans-5b"/>
      <use x="463.673828" xlink:href="#DejaVuSans-6d"/>
      <use x="561.085938" xlink:href="#DejaVuSans-5d"/>
     </g>
    </g>
   </g>
   <g id="matplotlib.axis_2">
    <g id="ytick_1">
     <g id="line2d_15">
      <defs>
       <path d="M 0 0 
L 3.5 0 
" id="m4bb6e00d8d" style="stroke:#000000;stroke-width:0.8;"/>
      </defs>
      <g>
       <use style="stroke:#000000;stroke-width:0.8;" x="58.32" xlink:href="#m4bb6e00d8d" y="81.792"/>
      </g>
     </g>
     <g id="line2d_16">
      <defs>
       <path d="M 0 0 
L -3.5 0 
" id="mc735c45ce5" style="stroke:#000000;stroke-width:0.8;"/>
      </defs>
      <g>
       <use style="stroke:#000000;stroke-width:0.8;" x="502.662857" xlink:href="#mc735c45ce5" y="81.792"/>
      </g>
     </g>
     <g id="text_9">
      <!-- −0.2 -->
      <defs>
       <path d="M 10.59375 35.5 
L 73.1875 35.5 
L 73.1875 27.203125 
L 10.59375 27.203125 
z
" id="DejaVuSans-2212"/>
       <path d="M 10.6875 12.40625 
L 21 12.40625 
L 21 0 
L 10.6875 0 
z
" id="DejaVuSans-2e"/>
      </defs>
      <g transform="translate(30.537187 85.591219)scale(0.1 -0.1)">
       <use xlink:href="#DejaVuSans-2212"/>
       <use x="83.789062" xlink:href="#DejaVuSans-30"/>
       <use x="147.412109" xlink:href="#DejaVuSans-2e"/>
       <use x="179.199219" xlink:href="#DejaVuSans-32"/>
      </g>
     </g>
    </g>
    <g id="ytick_2">
     <g id="line2d_17">
      <g>
       <use style="stroke:#000000;stroke-width:0.8;" x="58.32" xlink:href="#m4bb6e00d8d" y="47.808"/>
      </g>
     </g>
     <g id="line2d_18">
      <g>
       <use style="stroke:#000000;stroke-width:0.8;" x="502.662857" xlink:href="#mc735c45ce5" y="47.808"/>
      </g>
     </g>
     <g id="text_10">
      <!-- 0.0 -->
      <g transform="translate(38.916875 51.607219)scale(0.1 -0.1)">
       <use xlink:href="#DejaVuSans-30"/>
       <use x="63.623047" xlink:href="#DejaVuSans-2e"/>
       <use x="95.410156" xlink:href="#DejaVuSans-30"/>
      </g>
     </g>
    </g>
    <g id="ytick_3">
     <g id="line2d_19">
      <g>
       <use style="stroke:#000000;stroke-width:0.8;" x="58.32" xlink:href="#m4bb6e00d8d" y="13.824"/>
      </g>
     </g>
     <g id="line2d_20">
      <g>
       <use style="stroke:#000000;stroke-width:0.8;" x="502.662857" xlink:href="#mc735c45ce5" y="13.824"/>
      </g>
     </g>
     <g id="text_11">
      <!-- 0.2 -->
      <g transform="translate(38.916875 17.623219)scale(0.1 -0.1)">
       <use xlink:href="#DejaVuSans-30"/>
       <use x="63.623047" xlink:href="#DejaVuSans-2e"/>
       <use x="95.410156" xlink:href="#DejaVuSans-32"/>
      </g>
     </g>
    </g>
    <g id="text_12">
     <!-- Distance to -->
     <defs>
      <path d="M 19.671875 64.796875 
L 19.671875 8.109375 
L 31.59375 8.109375 
Q 46.6875 8.109375 53.6875 14.9375 
Q 60.6875 21.78125 60.6875 36.53125 
Q 60.6875 51.171875 53.6875 57.984375 
Q 46.6875 64.796875 31.59375 64.796875 
z
M 9.8125 72.90625 
L 30.078125 72.90625 
Q 51.265625 72.90625 61.171875 64.09375 
Q 71.09375 55.28125 71.09375 36.53125 
Q 71.09375 17.671875 61.125 8.828125 
Q 51.171875 0 30.078125 0 
L 9.8125 0 
z
" id="DejaVuSans-44"/>
      <path d="M 34.28125 27.484375 
Q 23.390625 27.484375 19.1875 25 
Q 14.984375 22.515625 14.984375 16.5 
Q 14.984375 11.71875 18.140625 8.90625 
Q 21.296875 6.109375 26.703125 6.109375 
Q 34.1875 6.109375 38.703125 11.40625 
Q 43.21875 16.703125 43.21875 25.484375 
L 43.21875 27.484375 
z
M 52.203125 31.203125 
L 52.203125 0 
L 43.21875 0 
L 43.21875 8.296875 
Q 40.140625 3.328125 35.546875 0.953125 
Q 30.953125 -1.421875 24.3125 -1.421875 
Q 15.921875 -1.421875 10.953125 3.296875 
Q 6 8.015625 6 15.921875 
Q 6 25.140625 12.171875 29.828125 
Q 18.359375 34.515625 30.609375 34.515625 
L 43.21875 34.515625 
L 43.21875 35.40625 
Q 43.21875 41.609375 39.140625 45 
Q 35.0625 48.390625 27.6875 48.390625 
Q 23 48.390625 18.546875 47.265625 
Q 14.109375 46.140625 10.015625 43.890625 
L 10.015625 52.203125 
Q 14.9375 54.109375 19.578125 55.046875 
Q 24.21875 56 28.609375 56 
Q 40.484375 56 46.34375 49.84375 
Q 52.203125 43.703125 52.203125 31.203125 
z
" id="DejaVuSans-61"/>
      <path d="M 48.78125 52.59375 
L 48.78125 44.1875 
Q 44.96875 46.296875 41.140625 47.34375 
Q 37.3125 48.390625 33.40625 48.390625 
Q 24.65625 48.390625 19.8125 42.84375 
Q 14.984375 37.3125 14.984375 27.296875 
Q 14.984375 17.28125 19.8125 11.734375 
Q 24.65625 6.203125 33.40625 6.203125 
Q 37.3125 6.203125 41.140625 7.25 
Q 44.96875 8.296875 48.78125 10.40625 
L 48.78125 2.09375 
Q 45.015625 0.34375 40.984375 -0.53125 
Q 36.96875 -1.421875 32.421875 -1.421875 
Q 20.0625 -1.421875 12.78125 6.34375 
Q 5.515625 14.109375 5.515625 27.296875 
Q 5.515625 40.671875 12.859375 48.328125 
Q 20.21875 56 33.015625 56 
Q 37.15625 56 41.109375 55.140625 
Q 45.0625 54.296875 48.78125 52.59375 
z
" id="DejaVuSans-63"/>
      <path d="M 56.203125 29.59375 
L 56.203125 25.203125 
L 14.890625 25.203125 
Q 15.484375 15.921875 20.484375 11.0625 
Q 25.484375 6.203125 34.421875 6.203125 
Q 39.59375 6.203125 44.453125 7.46875 
Q 49.3125 8.734375 54.109375 11.28125 
L 54.109375 2.78125 
Q 49.265625 0.734375 44.1875 -0.34375 
Q 39.109375 -1.421875 33.890625 -1.421875 
Q 20.796875 -1.421875 13.15625 6.1875 
Q 5.515625 13.8125 5.515625 26.8125 
Q 5.515625 40.234375 12.765625 48.109375 
Q 20.015625 56 32.328125 56 
Q 43.359375 56 49.78125 48.890625 
Q 56.203125 41.796875 56.203125 29.59375 
z
M 47.21875 32.234375 
Q 47.125 39.59375 43.09375 43.984375 
Q 39.0625 48.390625 32.421875 48.390625 
Q 24.90625 48.390625 20.390625 44.140625 
Q 15.875 39.890625 15.1875 32.171875 
z
" id="DejaVuSans-65"/>
     </defs>
     <g transform="translate(13.259687 76.279094)rotate(-90)scale(0.1 -0.1)">
      <use xlink:href="#DejaVuSans-44"/>
      <use x="77.001953" xlink:href="#DejaVuSans-69"/>
      <use x="104.785156" xlink:href="#DejaVuSans-73"/>
      <use x="156.884766" xlink:href="#DejaVuSans-74"/>
      <use x="196.09375" xlink:href="#DejaVuSans-61"/>
      <use x="257.373047" xlink:href="#DejaVuSans-6e"/>
      <use x="320.751953" xlink:href="#DejaVuSans-63"/>
      <use x="375.732422" xlink:href="#DejaVuSans-65"/>
      <use x="437.255859" xlink:href="#DejaVuSans-20"/>
      <use x="469.042969" xlink:href="#DejaVuSans-74"/>
      <use x="508.251953" xlink:href="#DejaVuSans-6f"/>
     </g>
     <!-- Lane-Center [m] -->
     <defs>
      <path d="M 9.8125 72.90625 
L 19.671875 72.90625 
L 19.671875 8.296875 
L 55.171875 8.296875 
L 55.171875 0 
L 9.8125 0 
z
" id="DejaVuSans-4c"/>
      <path d="M 4.890625 31.390625 
L 31.203125 31.390625 
L 31.203125 23.390625 
L 4.890625 23.390625 
z
" id="DejaVuSans-2d"/>
      <path d="M 64.40625 67.28125 
L 64.40625 56.890625 
Q 59.421875 61.53125 53.78125 63.8125 
Q 48.140625 66.109375 41.796875 66.109375 
Q 29.296875 66.109375 22.65625 58.46875 
Q 16.015625 50.828125 16.015625 36.375 
Q 16.015625 21.96875 22.65625 14.328125 
Q 29.296875 6.6875 41.796875 6.6875 
Q 48.140625 6.6875 53.78125 8.984375 
Q 59.421875 11.28125 64.40625 15.921875 
L 64.40625 5.609375 
Q 59.234375 2.09375 53.4375 0.328125 
Q 47.65625 -1.421875 41.21875 -1.421875 
Q 24.65625 -1.421875 15.125 8.703125 
Q 5.609375 18.84375 5.609375 36.375 
Q 5.609375 53.953125 15.125 64.078125 
Q 24.65625 74.21875 41.21875 74.21875 
Q 47.75 74.21875 53.53125 72.484375 
Q 59.328125 70.75 64.40625 67.28125 
z
" id="DejaVuSans-43"/>
      <path d="M 41.109375 46.296875 
Q 39.59375 47.171875 37.8125 47.578125 
Q 36.03125 48 33.890625 48 
Q 26.265625 48 22.1875 43.046875 
Q 18.109375 38.09375 18.109375 28.8125 
L 18.109375 0 
L 9.078125 0 
L 9.078125 54.6875 
L 18.109375 54.6875 
L 18.109375 46.1875 
Q 20.953125 51.171875 25.484375 53.578125 
Q 30.03125 56 36.53125 56 
Q 37.453125 56 38.578125 55.875 
Q 39.703125 55.765625 41.0625 55.515625 
z
" id="DejaVuSans-72"/>
     </defs>
     <g transform="translate(24.4575 88.897063)rotate(-90)scale(0.1 -0.1)">
      <use xlink:href="#DejaVuSans-4c"/>
      <use x="55.712891" xlink:href="#DejaVuSans-61"/>
      <use x="116.992188" xlink:href="#DejaVuSans-6e"/>
      <use x="180.371094" xlink:href="#DejaVuSans-65"/>
      <use x="241.894531" xlink:href="#DejaVuSans-2d"/>
      <use x="277.978516" xlink:href="#DejaVuSans-43"/>
      <use x="347.802734" xlink:href="#DejaVuSans-65"/>
      <use x="409.326172" xlink:href="#DejaVuSans-6e"/>
      <use x="472.705078" xlink:href="#DejaVuSans-74"/>
      <use x="511.914062" xlink:href="#DejaVuSans-65"/>
      <use x="573.4375" xlink:href="#DejaVuSans-72"/>
      <use x="614.550781" xlink:href="#DejaVuSans-20"/>
      <use x="646.337891" xlink:href="#DejaVuSans-5b"/>
      <use x="685.351562" xlink:href="#DejaVuSans-6d"/>
      <use x="782.763672" xlink:href="#DejaVuSans-5d"/>
     </g>
    </g>
   </g>
   <g id="line2d_21">
    <path clip-path="url(#pb912e0903e)" d="M 58.32 47.808 
L 502.662857 47.808 
" style="fill:none;stroke:#000000;stroke-linecap:square;stroke-width:0.5;"/>
   </g>
   <g id="line2d_22">
    <path clip-path="url(#pb912e0903e)" d="M 127.767781 81.792 
L 127.767781 13.824 
" style="fill:none;stroke:#bfbfbf;stroke-dasharray:5.55,2.4;stroke-dashoffset:0;stroke-width:1.5;"/>
   </g>
   <g id="line2d_23">
    <path clip-path="url(#pb912e0903e)" d="M 176.857525 81.792 
L 176.857525 13.824 
" style="fill:none;stroke:#bfbfbf;stroke-dasharray:5.55,2.4;stroke-dashoffset:0;stroke-width:1.5;"/>
   </g>
   <g id="line2d_24">
    <path clip-path="url(#pb912e0903e)" d="M 246.305306 81.792 
L 246.305306 13.824 
" style="fill:none;stroke:#bfbfbf;stroke-dasharray:5.55,2.4;stroke-dashoffset:0;stroke-width:1.5;"/>
   </g>
   <g id="line2d_25">
    <path clip-path="url(#pb912e0903e)" d="M 344.484794 81.792 
L 344.484794 13.824 
" style="fill:none;stroke:#bfbfbf;stroke-dasharray:5.55,2.4;stroke-dashoffset:0;stroke-width:1.5;"/>
   </g>
   <g id="line2d_26">
    <path clip-path="url(#pb912e0903e)" d="M 404.48337 81.792 
L 404.48337 13.824 
" style="fill:none;stroke:#bfbfbf;stroke-dasharray:5.55,2.4;stroke-dashoffset:0;stroke-width:1.5;"/>
   </g>
   <g id="line2d_27">
    <path clip-path="url(#pb912e0903e)" d="M 65.254383 47.800396 
L 65.254012 47.799242 
L 65.254012 47.799242 
L 66.100654 47.853591 
L 66.100654 47.853591 
L 66.569077 47.935431 
L 66.569077 47.935431 
L 67.515253 47.618193 
L 67.515253 47.618193 
L 68.458459 47.801624 
L 68.458459 47.801624 
L 69.410235 47.591496 
L 69.410235 47.591496 
L 70.608055 47.841873 
L 70.608055 47.841873 
L 71.31707 47.656439 
L 71.31707 47.656439 
L 72.265286 47.849322 
L 72.265286 47.849322 
L 72.969903 47.690145 
L 72.969903 47.690145 
L 74.169875 47.932438 
L 74.169875 47.932438 
L 74.880953 47.777682 
L 74.880953 47.777682 
L 75.806369 48.035789 
L 75.806369 48.035789 
L 76.506284 47.757841 
L 76.506284 47.757841 
L 76.984462 47.843185 
L 76.984462 47.843185 
L 77.445248 48.003045 
L 77.445248 48.003045 
L 77.917343 47.937796 
L 77.917343 47.937796 
L 78.384348 47.794226 
L 78.384348 47.794226 
L 79.334197 47.939553 
L 79.334197 47.939553 
L 79.799884 47.77929 
L 79.799884 47.77929 
L 80.286162 47.869259 
L 80.286162 47.869259 
L 80.995835 47.980703 
L 80.995835 47.980703 
L 81.951503 47.765158 
L 81.951503 47.765158 
L 82.906554 47.95317 
L 82.906554 47.95317 
L 83.620208 47.806488 
L 83.620208 47.806488 
L 84.558682 47.997065 
L 84.558682 47.997065 
L 85.505806 47.775725 
L 85.505806 47.775725 
L 86.445796 48.028877 
L 86.445796 48.028877 
L 87.626052 47.884568 
L 87.626052 47.884568 
L 88.331281 48.070245 
L 88.331281 48.070245 
L 89.036465 47.894615 
L 89.036465 47.894615 
L 89.986019 48.042524 
L 89.986019 48.042524 
L 90.698368 47.863233 
L 90.698368 47.863233 
L 91.648446 48.06824 
L 91.648446 48.06824 
L 92.128995 47.952107 
L 92.128995 47.952107 
L 92.598497 47.812588 
L 92.598497 47.812588 
L 93.295163 47.97336 
L 93.295163 47.97336 
L 93.99069 47.773172 
L 93.99069 47.773172 
L 95.405514 48.138568 
L 95.405514 48.138568 
L 96.349743 47.84598 
L 96.349743 47.84598 
L 97.292177 48.025454 
L 97.292177 48.025454 
L 98.235718 47.874982 
L 98.235718 47.874982 
L 98.924463 48.017199 
L 98.924463 48.017199 
L 99.627414 47.682899 
L 99.627414 47.682899 
L 100.096817 47.722626 
L 100.096817 47.722626 
L 100.788264 47.883565 
L 100.788264 47.883565 
L 101.736308 47.584267 
L 101.736308 47.584267 
L 102.90737 47.727933 
L 102.90737 47.727933 
L 103.375448 47.559757 
L 103.375448 47.559757 
L 103.854295 47.644744 
L 103.854295 47.644744 
L 104.324314 47.75222 
L 104.324314 47.75222 
L 105.275868 47.647091 
L 105.275868 47.647091 
L 105.744562 47.753154 
L 105.744562 47.753154 
L 106.453077 47.587204 
L 106.453077 47.587204 
L 107.634663 47.833148 
L 107.634663 47.833148 
L 108.345072 47.615616 
L 108.345072 47.615616 
L 108.827522 47.685314 
L 108.827522 47.685314 
L 109.550733 47.854052 
L 109.550733 47.854052 
L 110.03776 47.831603 
L 110.03776 47.831603 
L 110.760593 47.703788 
L 110.760593 47.703788 
L 111.723255 47.901791 
L 111.723255 47.901791 
L 112.944619 47.758899 
L 112.944619 47.758899 
L 113.654664 47.924133 
L 113.654664 47.924133 
L 115.871944 47.772876 
L 115.871944 47.772876 
L 117.10572 47.8282 
L 117.10572 47.8282 
L 118.106722 48.085928 
L 118.106722 48.085928 
L 119.852712 48.75658 
L 119.852712 48.75658 
L 121.600232 49.708635 
L 121.600232 49.708635 
L 123.589599 51.041391 
L 123.589599 51.041391 
L 126.813518 53.473808 
L 126.813518 53.473808 
L 128.304769 54.318246 
L 128.304769 54.318246 
L 129.55707 54.761669 
L 129.55707 54.761669 
L 130.573598 54.898113 
L 130.573598 54.898113 
L 131.329129 54.757897 
L 131.329129 54.757897 
L 132.089156 54.494597 
L 132.089156 54.494597 
L 133.31282 53.831022 
L 133.31282 53.831022 
L 135.764931 52.784468 
L 135.764931 52.784468 
L 138.488919 51.816712 
L 138.488919 51.816712 
L 139.698214 51.290433 
L 139.698214 51.290433 
L 142.142148 50.716853 
L 142.142148 50.716853 
L 144.09757 50.560401 
L 144.09757 50.560401 
L 145.814063 50.361701 
L 145.814063 50.361701 
L 150.462898 49.618587 
L 150.462898 49.618587 
L 151.436718 49.513302 
L 151.436718 49.513302 
L 154.130094 49.265822 
L 154.130094 49.265822 
L 155.342504 49.136269 
L 155.342504 49.136269 
L 156.572755 49.071217 
L 156.572755 49.071217 
L 157.5307 48.982374 
L 157.5307 48.982374 
L 159.754806 48.911312 
L 159.754806 48.911312 
L 162.450904 48.29461 
L 162.450904 48.29461 
L 163.186949 47.910536 
L 163.186949 47.910536 
L 168.039197 44.684493 
L 168.039197 44.684493 
L 171.590815 41.867541 
L 171.590815 41.867541 
L 172.034183 41.670009 
L 172.034183 41.670009 
L 172.720528 41.694756 
L 172.720528 41.694756 
L 173.180744 41.867454 
L 173.180744 41.867454 
L 174.122868 42.458262 
L 174.122868 42.458262 
L 175.303251 43.436807 
L 175.303251 43.436807 
L 176.019577 44.134981 
L 176.019577 44.134981 
L 176.486847 44.416258 
L 176.486847 44.416258 
L 177.683062 44.46867 
L 177.683062 44.46867 
L 178.637571 44.853049 
L 178.637571 44.853049 
L 179.592245 44.885134 
L 179.592245 44.885134 
L 180.304303 45.138416 
L 180.304303 45.138416 
L 181.007575 45.085912 
L 181.007575 45.085912 
L 181.950036 45.463161 
L 181.950036 45.463161 
L 182.910903 45.414222 
L 182.910903 45.414222 
L 183.609138 45.698131 
L 183.609138 45.698131 
L 185.034384 45.738643 
L 185.034384 45.738643 
L 185.506806 45.851752 
L 185.506806 45.851752 
L 186.218844 45.708664 
L 186.218844 45.708664 
L 186.697506 45.843812 
L 186.697506 45.843812 
L 187.407981 46.023362 
L 187.407981 46.023362 
L 188.349978 45.868605 
L 188.349978 45.868605 
L 189.303397 46.21393 
L 189.303397 46.21393 
L 189.777459 46.194971 
L 189.777459 46.194971 
L 190.253392 46.113298 
L 190.253392 46.113298 
L 191.440575 46.277453 
L 191.440575 46.277453 
L 191.910567 46.169853 
L 191.910567 46.169853 
L 192.379277 46.304678 
L 192.379277 46.304678 
L 192.846027 46.424593 
L 192.846027 46.424593 
L 194.290857 46.344055 
L 194.290857 46.344055 
L 195.000196 46.534624 
L 195.000196 46.534624 
L 196.17704 46.399314 
L 196.17704 46.399314 
L 196.897622 46.655674 
L 196.897622 46.655674 
L 197.374006 46.708826 
L 197.374006 46.708826 
L 198.075771 46.541754 
L 198.075771 46.541754 
L 199.770744 47.026603 
L 199.770744 47.026603 
L 200.491001 46.852725 
L 200.491001 46.852725 
L 200.962927 46.90215 
L 200.962927 46.90215 
L 201.67686 47.086885 
L 201.67686 47.086885 
L 202.629586 46.956598 
L 202.629586 46.956598 
L 203.821339 47.263356 
L 203.821339 47.263356 
L 205.001396 47.092881 
L 205.001396 47.092881 
L 206.202805 47.518258 
L 206.202805 47.518258 
L 206.679354 47.489575 
L 206.679354 47.489575 
L 207.391253 47.347459 
L 207.391253 47.347459 
L 208.345211 47.570437 
L 208.345211 47.570437 
L 209.522506 47.481959 
L 209.522506 47.481959 
L 210.474325 47.754848 
L 210.474325 47.754848 
L 211.67335 47.649679 
L 211.67335 47.649679 
L 212.617699 47.965511 
L 212.617699 47.965511 
L 213.088976 47.866337 
L 213.088976 47.866337 
L 213.562498 47.716929 
L 213.562498 47.716929 
L 214.038636 47.788878 
L 214.038636 47.788878 
L 214.759741 47.972965 
L 214.759741 47.972965 
L 215.476064 47.898585 
L 215.476064 47.898585 
L 215.947109 47.81351 
L 215.947109 47.81351 
L 217.386134 48.076838 
L 217.386134 48.076838 
L 218.34 47.836196 
L 218.34 47.836196 
L 220.016063 48.146843 
L 220.016063 48.146843 
L 220.73593 47.917707 
L 220.73593 47.917707 
L 221.21289 47.969076 
L 221.21289 47.969076 
L 221.920987 48.117188 
L 221.920987 48.117188 
L 222.868813 47.951089 
L 222.868813 47.951089 
L 223.578089 48.154621 
L 223.578089 48.154621 
L 224.051955 48.07457 
L 224.051955 48.07457 
L 224.520265 47.950116 
L 224.520265 47.950116 
L 225.730404 48.125453 
L 225.730404 48.125453 
L 226.695952 47.971831 
L 226.695952 47.971831 
L 228.145501 48.217496 
L 228.145501 48.217496 
L 229.350315 48.018987 
L 229.350315 48.018987 
L 230.324758 48.281343 
L 230.324758 48.281343 
L 231.308302 48.274537 
L 231.308302 48.274537 
L 232.544926 48.215065 
L 232.544926 48.215065 
L 233.522456 48.219927 
L 233.522456 48.219927 
L 234.509364 48.125291 
L 234.509364 48.125291 
L 235.503704 48.196592 
L 235.503704 48.196592 
L 237.22444 48.593934 
L 237.22444 48.593934 
L 238.217269 49.084941 
L 238.217269 49.084941 
L 240.18647 50.193838 
L 240.18647 50.193838 
L 244.150574 52.161429 
L 244.150574 52.161429 
L 245.396126 52.552613 
L 245.396126 52.552613 
L 246.385343 52.918416 
L 246.385343 52.918416 
L 247.40301 53.065296 
L 247.40301 53.065296 
L 248.414901 52.8663 
L 248.414901 52.8663 
L 250.595067 52.019236 
L 250.595067 52.019236 
L 251.34061 51.796819 
L 251.34061 51.796819 
L 253.043183 51.260186 
L 253.043183 51.260186 
L 255.005703 50.853307 
L 255.005703 50.853307 
L 260.120253 49.812246 
L 260.120253 49.812246 
L 261.846708 49.643776 
L 261.846708 49.643776 
L 263.544275 49.312216 
L 263.544275 49.312216 
L 269.160462 48.545241 
L 269.160462 48.545241 
L 270.630994 48.213911 
L 270.630994 48.213911 
L 272.097779 47.635756 
L 272.097779 47.635756 
L 275.478682 46.144629 
L 275.478682 46.144629 
L 277.657847 45.412692 
L 277.657847 45.412692 
L 278.603709 45.134193 
L 278.603709 45.134193 
L 281.72995 44.746368 
L 281.72995 44.746368 
L 282.916218 44.785765 
L 282.916218 44.785765 
L 283.881785 44.878781 
L 283.881785 44.878781 
L 293.039026 45.398078 
L 293.039026 45.398078 
L 295.199385 45.449463 
L 295.199385 45.449463 
L 296.415261 45.608472 
L 296.415261 45.608472 
L 297.374698 45.566432 
L 297.374698 45.566432 
L 298.336504 45.650055 
L 298.336504 45.650055 
L 299.306974 45.723519 
L 299.306974 45.723519 
L 300.251939 45.654518 
L 300.251939 45.654518 
L 301.704602 45.809429 
L 301.704602 45.809429 
L 307.00957 46.052993 
L 307.00957 46.052993 
L 307.752824 46.199816 
L 307.752824 46.199816 
L 309.673503 46.194938 
L 309.673503 46.194938 
L 310.657764 46.285614 
L 310.657764 46.285614 
L 311.850791 46.21721 
L 311.850791 46.21721 
L 320.303917 47.384015 
L 320.303917 47.384015 
L 321.269294 47.744194 
L 321.269294 47.744194 
L 322.720978 48.453416 
L 322.720978 48.453416 
L 323.953179 49.043938 
L 323.953179 49.043938 
L 325.181416 49.434899 
L 325.181416 49.434899 
L 328.145502 49.70695 
L 328.145502 49.70695 
L 330.355424 49.216016 
L 330.355424 49.216016 
L 330.851299 49.042667 
L 330.851299 49.042667 
L 332.084071 48.203621 
L 332.084071 48.203621 
L 333.074923 47.26277 
L 333.074923 47.26277 
L 334.303322 45.677051 
L 334.303322 45.677051 
L 335.984794 42.833435 
L 335.984794 42.833435 
L 337.169632 40.376684 
L 337.169632 40.376684 
L 338.108552 38.031311 
L 338.108552 38.031311 
L 339.865126 33.651487 
L 339.865126 33.651487 
L 340.50664 32.624755 
L 340.50664 32.624755 
L 341.420939 31.792718 
L 341.420939 31.792718 
L 342.799545 30.909096 
L 342.799545 30.909096 
L 343.944982 30.441127 
L 343.944982 30.441127 
L 344.650061 30.293326 
L 344.650061 30.293326 
L 345.154539 30.390436 
L 345.154539 30.390436 
L 345.928648 30.823076 
L 345.928648 30.823076 
L 346.696179 31.554356 
L 346.696179 31.554356 
L 347.462885 32.573941 
L 347.462885 32.573941 
L 348.738726 34.621714 
L 348.738726 34.621714 
L 349.990543 37.181888 
L 349.990543 37.181888 
L 351.899768 41.201252 
L 351.899768 41.201252 
L 353.321793 43.741328 
L 353.321793 43.741328 
L 355.47488 46.930384 
L 355.47488 46.930384 
L 356.648488 48.470096 
L 356.648488 48.470096 
L 360.239064 52.465315 
L 360.239064 52.465315 
L 361.185128 53.28152 
L 361.185128 53.28152 
L 363.0817 54.797269 
L 363.0817 54.797269 
L 364.728405 55.832245 
L 364.728405 55.832245 
L 366.151782 56.389587 
L 366.151782 56.389587 
L 368.038935 56.851938 
L 368.038935 56.851938 
L 369.210943 56.956717 
L 369.210943 56.956717 
L 370.138915 56.858867 
L 370.138915 56.858867 
L 371.313861 56.359089 
L 371.313861 56.359089 
L 372.019249 55.91464 
L 372.019249 55.91464 
L 373.203671 54.962949 
L 373.203671 54.962949 
L 373.932593 54.305382 
L 373.932593 54.305382 
L 374.663672 53.85686 
L 374.663672 53.85686 
L 378.019949 52.503642 
L 378.019949 52.503642 
L 379.464243 51.602683 
L 379.464243 51.602683 
L 380.176792 51.113632 
L 380.176792 51.113632 
L 381.868031 49.875247 
L 381.868031 49.875247 
L 383.562196 48.506324 
L 383.562196 48.506324 
L 384.801253 47.490695 
L 384.801253 47.490695 
L 385.520706 46.981248 
L 385.520706 46.981248 
L 388.719529 44.743595 
L 388.719529 44.743595 
L 389.714698 44.516416 
L 389.714698 44.516416 
L 390.719773 44.59476 
L 390.719773 44.59476 
L 391.70993 45.020481 
L 391.70993 45.020481 
L 392.939152 45.926944 
L 392.939152 45.926944 
L 394.193848 47.224148 
L 394.193848 47.224148 
L 395.415492 48.930996 
L 395.415492 48.930996 
L 396.378113 50.589159 
L 396.378113 50.589159 
L 397.532001 52.556309 
L 397.532001 52.556309 
L 398.450875 53.797992 
L 398.450875 53.797992 
L 401.517697 57.013239 
L 401.517697 57.013239 
L 402.461258 57.720592 
L 402.461258 57.720592 
L 405.397665 59.786779 
L 405.397665 59.786779 
L 406.164941 60.045846 
L 406.164941 60.045846 
L 407.192068 60.167402 
L 407.192068 60.167402 
L 407.962763 60.056865 
L 407.962763 60.056865 
L 408.74276 59.749602 
L 408.74276 59.749602 
L 409.752812 59.068846 
L 409.752812 59.068846 
L 411.233354 58.014524 
L 411.233354 58.014524 
L 414.733662 55.741268 
L 414.733662 55.741268 
L 415.939642 54.635738 
L 415.939642 54.635738 
L 417.149064 53.8842 
L 417.149064 53.8842 
L 419.126707 53.060458 
L 419.126707 53.060458 
L 422.034588 51.677199 
L 422.76111 51.626716 
L 422.76111 51.626716 
L 423.762926 51.643123 
L 423.762926 51.643123 
L 424.260571 51.508839 
L 424.260571 51.508839 
L 427.43355 50.048163 
L 427.43355 50.048163 
L 428.86852 49.615575 
L 428.86852 49.615575 
L 430.327522 49.607873 
L 430.327522 49.607873 
L 432.312314 49.603072 
L 432.312314 49.603072 
L 436.461006 48.720653 
L 436.461006 48.720653 
L 437.919773 48.579336 
L 437.919773 48.579336 
L 439.627915 48.400429 
L 439.627915 48.400429 
L 441.087704 48.333752 
L 441.087704 48.333752 
L 442.073504 48.292917 
L 442.073504 48.292917 
L 446.208534 47.509055 
L 446.208534 47.509055 
L 449.115732 46.830828 
L 449.115732 46.830828 
L 450.076617 46.737008 
L 450.076617 46.737008 
L 451.047966 46.712783 
L 451.047966 46.712783 
L 451.784103 46.683647 
L 451.784103 46.683647 
L 455.642449 45.884261 
L 455.642449 45.884261 
L 456.59567 45.919813 
L 456.59567 45.919813 
L 457.080506 45.922779 
L 457.080506 45.922779 
L 459.493766 45.59103 
L 459.493766 45.59103 
L 461.64636 45.366357 
L 461.64636 45.366357 
L 467.200479 45.536901 
L 467.200479 45.536901 
L 469.121946 45.307012 
L 469.121946 45.307012 
L 470.32541 45.336035 
L 470.32541 45.336035 
L 471.058086 45.324857 
L 471.058086 45.324857 
L 472.003494 45.236852 
L 472.003494 45.236852 
L 474.907694 45.344128 
L 474.907694 45.344128 
L 476.347641 45.35464 
L 476.347641 45.35464 
L 477.565018 45.412651 
L 477.565018 45.412651 
L 479.230995 45.312396 
L 479.230995 45.312396 
L 481.381044 45.659863 
L 481.381044 45.659863 
L 485.515541 47.099675 
L 485.515541 47.099675 
L 486.224898 47.265955 
L 486.224898 47.265955 
L 488.193887 47.964233 
L 488.193887 47.964233 
L 490.642921 48.292761 
L 490.642921 48.292761 
L 493.337372 47.694544 
L 493.337372 47.694544 
L 495.055352 46.96253 
L 495.055352 46.96253 
L 496.277194 46.242285 
L 496.277194 46.242285 
L 497.63918 45.434796 
L 497.63918 45.434796 
L 498.319447 45.56494 
L 498.319447 45.56494 
L 499.257757 46.215355 
L 499.257757 46.215355 
L 500.194065 47.123897 
L 500.194065 47.123897 
L 500.899352 47.887415 
L 500.899352 47.887415 
L 501.144531 48.032301 
L 501.144531 48.032301 
" style="fill:none;stroke:#008000;stroke-linecap:square;stroke-width:1.5;"/>
   </g>
   <g id="patch_3">
    <path d="M 58.32 81.792 
L 58.32 13.824 
" style="fill:none;stroke:#000000;stroke-linecap:square;stroke-linejoin:miter;stroke-width:0.8;"/>
   </g>
   <g id="patch_4">
    <path d="M 502.662857 81.792 
L 502.662857 13.824 
" style="fill:none;stroke:#000000;stroke-linecap:square;stroke-linejoin:miter;stroke-width:0.8;"/>
   </g>
   <g id="patch_5">
    <path d="M 58.32 81.792 
L 502.662857 81.792 
" style="fill:none;stroke:#000000;stroke-linecap:square;stroke-linejoin:miter;stroke-width:0.8;"/>
   </g>
   <g id="patch_6">
    <path d="M 58.32 13.824 
L 502.662857 13.824 
" style="fill:none;stroke:#000000;stroke-linecap:square;stroke-linejoin:miter;stroke-width:0.8;"/>
   </g>
  </g>
  <g id="axes_2">
   <g id="patch_7">
    <path d="M 502.662857 81.792 
L 576.72 81.792 
L 576.72 13.824 
L 502.662857 13.824 
z
" style="fill:#ffffff;"/>
   </g>
   <g id="patch_8">
    <path clip-path="url(#p190c3e1cde)" d="M 502.662857 86.8896 
L 502.662857 86.8896 
L 502.662857 85.1904 
L 502.662857 85.1904 
z
" style="fill:#008000;"/>
   </g>
   <g id="patch_9">
    <path clip-path="url(#p190c3e1cde)" d="M 502.662857 85.1904 
L 502.662857 85.1904 
L 502.662857 83.4912 
L 502.662857 83.4912 
z
" style="fill:#008000;"/>
   </g>
   <g id="patch_10">
    <path clip-path="url(#p190c3e1cde)" d="M 502.662857 83.4912 
L 502.662857 83.4912 
L 502.662857 81.792 
L 502.662857 81.792 
z
" style="fill:#008000;"/>
   </g>
   <g id="patch_11">
    <path clip-path="url(#p190c3e1cde)" d="M 502.662857 81.792 
L 502.662857 81.792 
L 502.662857 80.0928 
L 502.662857 80.0928 
z
" style="fill:#008000;"/>
   </g>
   <g id="patch_12">
    <path clip-path="url(#p190c3e1cde)" d="M 502.662857 80.0928 
L 502.662857 80.0928 
L 502.662857 78.3936 
L 502.662857 78.3936 
z
" style="fill:#008000;"/>
   </g>
   <g id="patch_13">
    <path clip-path="url(#p190c3e1cde)" d="M 502.662857 78.3936 
L 502.662857 78.3936 
L 502.662857 76.6944 
L 502.662857 76.6944 
z
" style="fill:#008000;"/>
   </g>
   <g id="patch_14">
    <path clip-path="url(#p190c3e1cde)" d="M 502.662857 76.6944 
L 502.662857 76.6944 
L 502.662857 74.9952 
L 502.662857 74.9952 
z
" style="fill:#008000;"/>
   </g>
   <g id="patch_15">
    <path clip-path="url(#p190c3e1cde)" d="M 502.662857 74.9952 
L 502.662857 74.9952 
L 502.662857 73.296 
L 502.662857 73.296 
z
" style="fill:#008000;"/>
   </g>
   <g id="patch_16">
    <path clip-path="url(#p190c3e1cde)" d="M 502.662857 73.296 
L 502.662857 73.296 
L 502.662857 71.5968 
L 502.662857 71.5968 
z
" style="fill:#008000;"/>
   </g>
   <g id="patch_17">
    <path clip-path="url(#p190c3e1cde)" d="M 502.662857 71.5968 
L 502.662857 71.5968 
L 502.662857 69.8976 
L 502.662857 69.8976 
z
" style="fill:#008000;"/>
   </g>
   <g id="patch_18">
    <path clip-path="url(#p190c3e1cde)" d="M 502.662857 69.8976 
L 502.662857 69.8976 
L 502.662857 68.1984 
L 502.662857 68.1984 
z
" style="fill:#008000;"/>
   </g>
   <g id="patch_19">
    <path clip-path="url(#p190c3e1cde)" d="M 502.662857 68.1984 
L 502.662857 68.1984 
L 502.662857 66.4992 
L 502.662857 66.4992 
z
" style="fill:#008000;"/>
   </g>
   <g id="patch_20">
    <path clip-path="url(#p190c3e1cde)" d="M 502.662857 66.4992 
L 502.662857 66.4992 
L 502.662857 64.8 
L 502.662857 64.8 
z
" style="fill:#008000;"/>
   </g>
   <g id="patch_21">
    <path clip-path="url(#p190c3e1cde)" d="M 502.662857 64.8 
L 502.662857 64.8 
L 502.662857 63.1008 
L 502.662857 63.1008 
z
" style="fill:#008000;"/>
   </g>
   <g id="patch_22">
    <path clip-path="url(#p190c3e1cde)" d="M 502.662857 63.1008 
L 502.662857 63.1008 
L 502.662857 61.4016 
L 502.662857 61.4016 
z
" style="fill:#008000;"/>
   </g>
   <g id="patch_23">
    <path clip-path="url(#p190c3e1cde)" d="M 502.662857 61.4016 
L 504.475983 61.4016 
L 504.475983 59.7024 
L 502.662857 59.7024 
z
" style="fill:#008000;"/>
   </g>
   <g id="patch_24">
    <path clip-path="url(#p190c3e1cde)" d="M 502.662857 59.7024 
L 505.140796 59.7024 
L 505.140796 58.0032 
L 502.662857 58.0032 
z
" style="fill:#008000;"/>
   </g>
   <g id="patch_25">
    <path clip-path="url(#p190c3e1cde)" d="M 502.662857 58.0032 
L 508.223111 58.0032 
L 508.223111 56.304 
L 502.662857 56.304 
z
" style="fill:#008000;"/>
   </g>
   <g id="patch_26">
    <path clip-path="url(#p190c3e1cde)" d="M 502.662857 56.304 
L 509.129674 56.304 
L 509.129674 54.6048 
L 502.662857 54.6048 
z
" style="fill:#008000;"/>
   </g>
   <g id="patch_27">
    <path clip-path="url(#p190c3e1cde)" d="M 502.662857 54.6048 
L 513.964678 54.6048 
L 513.964678 52.9056 
L 502.662857 52.9056 
z
" style="fill:#008000;"/>
   </g>
   <g id="patch_28">
    <path clip-path="url(#p190c3e1cde)" d="M 502.662857 52.9056 
L 518.557931 52.9056 
L 518.557931 51.2064 
L 502.662857 51.2064 
z
" style="fill:#008000;"/>
   </g>
   <g id="patch_29">
    <path clip-path="url(#p190c3e1cde)" d="M 502.662857 51.2064 
L 528.227938 51.2064 
L 528.227938 49.5072 
L 502.662857 49.5072 
z
" style="fill:#008000;"/>
   </g>
   <g id="patch_30">
    <path clip-path="url(#p190c3e1cde)" d="M 502.662857 49.5072 
L 573.193469 49.5072 
L 573.193469 47.808 
L 502.662857 47.808 
z
" style="fill:#008000;"/>
   </g>
   <g id="patch_31">
    <path clip-path="url(#p190c3e1cde)" d="M 502.662857 47.808 
L 561.649899 47.808 
L 561.649899 46.1088 
L 502.662857 46.1088 
z
" style="fill:#008000;"/>
   </g>
   <g id="patch_32">
    <path clip-path="url(#p190c3e1cde)" d="M 502.662857 46.1088 
L 552.644705 46.1088 
L 552.644705 44.4096 
L 502.662857 44.4096 
z
" style="fill:#008000;"/>
   </g>
   <g id="patch_33">
    <path clip-path="url(#p190c3e1cde)" d="M 502.662857 44.4096 
L 507.01436 44.4096 
L 507.01436 42.7104 
L 502.662857 42.7104 
z
" style="fill:#008000;"/>
   </g>
   <g id="patch_34">
    <path clip-path="url(#p190c3e1cde)" d="M 502.662857 42.7104 
L 506.470422 42.7104 
L 506.470422 41.0112 
L 502.662857 41.0112 
z
" style="fill:#008000;"/>
   </g>
   <g id="patch_35">
    <path clip-path="url(#p190c3e1cde)" d="M 502.662857 41.0112 
L 503.448545 41.0112 
L 503.448545 39.312 
L 502.662857 39.312 
z
" style="fill:#008000;"/>
   </g>
   <g id="patch_36">
    <path clip-path="url(#p190c3e1cde)" d="M 502.662857 39.312 
L 503.690295 39.312 
L 503.690295 37.6128 
L 502.662857 37.6128 
z
" style="fill:#008000;"/>
   </g>
   <g id="patch_37">
    <path clip-path="url(#p190c3e1cde)" d="M 502.662857 37.6128 
L 503.508983 37.6128 
L 503.508983 35.9136 
L 502.662857 35.9136 
z
" style="fill:#008000;"/>
   </g>
   <g id="patch_38">
    <path clip-path="url(#p190c3e1cde)" d="M 502.662857 35.9136 
L 503.56942 35.9136 
L 503.56942 34.2144 
L 502.662857 34.2144 
z
" style="fill:#008000;"/>
   </g>
   <g id="patch_39">
    <path clip-path="url(#p190c3e1cde)" d="M 502.662857 34.2144 
L 504.113358 34.2144 
L 504.113358 32.5152 
L 502.662857 32.5152 
z
" style="fill:#008000;"/>
   </g>
   <g id="patch_40">
    <path clip-path="url(#p190c3e1cde)" d="M 502.662857 32.5152 
L 504.959484 32.5152 
L 504.959484 30.816 
L 502.662857 30.816 
z
" style="fill:#008000;"/>
   </g>
   <g id="patch_41">
    <path clip-path="url(#p190c3e1cde)" d="M 502.662857 30.816 
L 504.475983 30.816 
L 504.475983 29.1168 
L 502.662857 29.1168 
z
" style="fill:#008000;"/>
   </g>
   <g id="patch_42">
    <path clip-path="url(#p190c3e1cde)" d="M 502.662857 29.1168 
L 502.662857 29.1168 
L 502.662857 27.4176 
L 502.662857 27.4176 
z
" style="fill:#008000;"/>
   </g>
   <g id="patch_43">
    <path clip-path="url(#p190c3e1cde)" d="M 502.662857 27.4176 
L 502.662857 27.4176 
L 502.662857 25.7184 
L 502.662857 25.7184 
z
" style="fill:#008000;"/>
   </g>
   <g id="patch_44">
    <path clip-path="url(#p190c3e1cde)" d="M 502.662857 25.7184 
L 502.662857 25.7184 
L 502.662857 24.0192 
L 502.662857 24.0192 
z
" style="fill:#008000;"/>
   </g>
   <g id="patch_45">
    <path clip-path="url(#p190c3e1cde)" d="M 502.662857 24.0192 
L 502.662857 24.0192 
L 502.662857 22.32 
L 502.662857 22.32 
z
" style="fill:#008000;"/>
   </g>
   <g id="patch_46">
    <path clip-path="url(#p190c3e1cde)" d="M 502.662857 22.32 
L 502.662857 22.32 
L 502.662857 20.6208 
L 502.662857 20.6208 
z
" style="fill:#008000;"/>
   </g>
   <g id="patch_47">
    <path clip-path="url(#p190c3e1cde)" d="M 502.662857 20.6208 
L 502.662857 20.6208 
L 502.662857 18.9216 
L 502.662857 18.9216 
z
" style="fill:#008000;"/>
   </g>
   <g id="patch_48">
    <path clip-path="url(#p190c3e1cde)" d="M 502.662857 18.9216 
L 502.662857 18.9216 
L 502.662857 17.2224 
L 502.662857 17.2224 
z
" style="fill:#008000;"/>
   </g>
   <g id="patch_49">
    <path clip-path="url(#p190c3e1cde)" d="M 502.662857 17.2224 
L 502.662857 17.2224 
L 502.662857 15.5232 
L 502.662857 15.5232 
z
" style="fill:#008000;"/>
   </g>
   <g id="patch_50">
    <path clip-path="url(#p190c3e1cde)" d="M 502.662857 15.5232 
L 502.662857 15.5232 
L 502.662857 13.824 
L 502.662857 13.824 
z
" style="fill:#008000;"/>
   </g>
   <g id="patch_51">
    <path clip-path="url(#p190c3e1cde)" d="M 502.662857 13.824 
L 502.662857 13.824 
L 502.662857 12.1248 
L 502.662857 12.1248 
z
" style="fill:#008000;"/>
   </g>
   <g id="patch_52">
    <path clip-path="url(#p190c3e1cde)" d="M 502.662857 12.1248 
L 502.662857 12.1248 
L 502.662857 10.4256 
L 502.662857 10.4256 
z
" style="fill:#008000;"/>
   </g>
   <g id="patch_53">
    <path clip-path="url(#p190c3e1cde)" d="M 502.662857 10.4256 
L 502.662857 10.4256 
L 502.662857 8.7264 
L 502.662857 8.7264 
z
" style="fill:#008000;"/>
   </g>
   <g id="matplotlib.axis_3">
    <g id="xtick_8">
     <g id="line2d_28">
      <g>
       <use style="stroke:#000000;stroke-width:0.8;" x="502.662857" xlink:href="#me445893f3c" y="81.792"/>
      </g>
     </g>
     <g id="line2d_29">
      <g>
       <use style="stroke:#000000;stroke-width:0.8;" x="502.662857" xlink:href="#m37d0275757" y="13.824"/>
      </g>
     </g>
    </g>
    <g id="xtick_9">
     <g id="line2d_30">
      <g>
       <use style="stroke:#000000;stroke-width:0.8;" x="555.835807" xlink:href="#me445893f3c" y="81.792"/>
      </g>
     </g>
     <g id="line2d_31">
      <g>
       <use style="stroke:#000000;stroke-width:0.8;" x="555.835807" xlink:href="#m37d0275757" y="13.824"/>
      </g>
     </g>
    </g>
    <g id="text_13">
     <!-- Histogram -->
     <defs>
      <path d="M 9.8125 72.90625 
L 19.671875 72.90625 
L 19.671875 43.015625 
L 55.515625 43.015625 
L 55.515625 72.90625 
L 65.375 72.90625 
L 65.375 0 
L 55.515625 0 
L 55.515625 34.71875 
L 19.671875 34.71875 
L 19.671875 0 
L 9.8125 0 
z
" id="DejaVuSans-48"/>
      <path d="M 45.40625 27.984375 
Q 45.40625 37.75 41.375 43.109375 
Q 37.359375 48.484375 30.078125 48.484375 
Q 22.859375 48.484375 18.828125 43.109375 
Q 14.796875 37.75 14.796875 27.984375 
Q 14.796875 18.265625 18.828125 12.890625 
Q 22.859375 7.515625 30.078125 7.515625 
Q 37.359375 7.515625 41.375 12.890625 
Q 45.40625 18.265625 45.40625 27.984375 
z
M 54.390625 6.78125 
Q 54.390625 -7.171875 48.1875 -13.984375 
Q 42 -20.796875 29.203125 -20.796875 
Q 24.46875 -20.796875 20.265625 -20.09375 
Q 16.0625 -19.390625 12.109375 -17.921875 
L 12.109375 -9.1875 
Q 16.0625 -11.328125 19.921875 -12.34375 
Q 23.78125 -13.375 27.78125 -13.375 
Q 36.625 -13.375 41.015625 -8.765625 
Q 45.40625 -4.15625 45.40625 5.171875 
L 45.40625 9.625 
Q 42.625 4.78125 38.28125 2.390625 
Q 33.9375 0 27.875 0 
Q 17.828125 0 11.671875 7.65625 
Q 5.515625 15.328125 5.515625 27.984375 
Q 5.515625 40.671875 11.671875 48.328125 
Q 17.828125 56 27.875 56 
Q 33.9375 56 38.28125 53.609375 
Q 42.625 51.21875 45.40625 46.390625 
L 45.40625 54.6875 
L 54.390625 54.6875 
z
" id="DejaVuSans-67"/>
     </defs>
     <g transform="translate(513.753929 96.890438)scale(0.1 -0.1)">
      <use xlink:href="#DejaVuSans-48"/>
      <use x="75.195312" xlink:href="#DejaVuSans-69"/>
      <use x="102.978516" xlink:href="#DejaVuSans-73"/>
      <use x="155.078125" xlink:href="#DejaVuSans-74"/>
      <use x="194.287109" xlink:href="#DejaVuSans-6f"/>
      <use x="255.46875" xlink:href="#DejaVuSans-67"/>
      <use x="318.945312" xlink:href="#DejaVuSans-72"/>
      <use x="360.058594" xlink:href="#DejaVuSans-61"/>
      <use x="421.337891" xlink:href="#DejaVuSans-6d"/>
     </g>
    </g>
   </g>
   <g id="matplotlib.axis_4">
    <g id="ytick_4">
     <g id="line2d_32">
      <g>
       <use style="stroke:#000000;stroke-width:0.8;" x="502.662857" xlink:href="#m4bb6e00d8d" y="81.792"/>
      </g>
     </g>
    </g>
    <g id="ytick_5">
     <g id="line2d_33">
      <g>
       <use style="stroke:#000000;stroke-width:0.8;" x="502.662857" xlink:href="#m4bb6e00d8d" y="47.808"/>
      </g>
     </g>
    </g>
    <g id="ytick_6">
     <g id="line2d_34">
      <g>
       <use style="stroke:#000000;stroke-width:0.8;" x="502.662857" xlink:href="#m4bb6e00d8d" y="13.824"/>
      </g>
     </g>
    </g>
   </g>
   <g id="line2d_35">
    <path clip-path="url(#p190c3e1cde)" d="M 502.662857 47.808 
L 576.72 47.808 
" style="fill:none;stroke:#000000;stroke-linecap:square;stroke-width:0.5;"/>
   </g>
   <g id="patch_54">
    <path d="M 502.662857 81.792 
L 502.662857 13.824 
" style="fill:none;stroke:#000000;stroke-linecap:square;stroke-linejoin:miter;stroke-width:0.8;"/>
   </g>
   <g id="patch_55">
    <path d="M 576.72 81.792 
L 576.72 13.824 
" style="fill:none;stroke:#000000;stroke-linecap:square;stroke-linejoin:miter;stroke-width:0.8;"/>
   </g>
   <g id="patch_56">
    <path d="M 502.662857 81.792 
L 576.72 81.792 
" style="fill:none;stroke:#000000;stroke-linecap:square;stroke-linejoin:miter;stroke-width:0.8;"/>
   </g>
   <g id="patch_57">
    <path d="M 502.662857 13.824 
L 576.72 13.824 
" style="fill:none;stroke:#000000;stroke-linecap:square;stroke-linejoin:miter;stroke-width:0.8;"/>
   </g>
   <g id="text_14">
    <!-- R-STDP  -->
    <defs>
     <path d="M 44.390625 34.1875 
Q 47.5625 33.109375 50.5625 29.59375 
Q 53.5625 26.078125 56.59375 19.921875 
L 66.609375 0 
L 56 0 
L 46.6875 18.703125 
Q 43.0625 26.03125 39.671875 28.421875 
Q 36.28125 30.8125 30.421875 30.8125 
L 19.671875 30.8125 
L 19.671875 0 
L 9.8125 0 
L 9.8125 72.90625 
L 32.078125 72.90625 
Q 44.578125 72.90625 50.734375 67.671875 
Q 56.890625 62.453125 56.890625 51.90625 
Q 56.890625 45.015625 53.6875 40.46875 
Q 50.484375 35.9375 44.390625 34.1875 
z
M 19.671875 64.796875 
L 19.671875 38.921875 
L 32.078125 38.921875 
Q 39.203125 38.921875 42.84375 42.21875 
Q 46.484375 45.515625 46.484375 51.90625 
Q 46.484375 58.296875 42.84375 61.546875 
Q 39.203125 64.796875 32.078125 64.796875 
z
" id="DejaVuSans-52"/>
     <path d="M 53.515625 70.515625 
L 53.515625 60.890625 
Q 47.90625 63.578125 42.921875 64.890625 
Q 37.9375 66.21875 33.296875 66.21875 
Q 25.25 66.21875 20.875 63.09375 
Q 16.5 59.96875 16.5 54.203125 
Q 16.5 49.359375 19.40625 46.890625 
Q 22.3125 44.4375 30.421875 42.921875 
L 36.375 41.703125 
Q 47.40625 39.59375 52.65625 34.296875 
Q 57.90625 29 57.90625 20.125 
Q 57.90625 9.515625 50.796875 4.046875 
Q 43.703125 -1.421875 29.984375 -1.421875 
Q 24.8125 -1.421875 18.96875 -0.25 
Q 13.140625 0.921875 6.890625 3.21875 
L 6.890625 13.375 
Q 12.890625 10.015625 18.65625 8.296875 
Q 24.421875 6.59375 29.984375 6.59375 
Q 38.421875 6.59375 43.015625 9.90625 
Q 47.609375 13.234375 47.609375 19.390625 
Q 47.609375 24.75 44.3125 27.78125 
Q 41.015625 30.8125 33.5 32.328125 
L 27.484375 33.5 
Q 16.453125 35.6875 11.515625 40.375 
Q 6.59375 45.0625 6.59375 53.421875 
Q 6.59375 63.09375 13.40625 68.65625 
Q 20.21875 74.21875 32.171875 74.21875 
Q 37.3125 74.21875 42.625 73.28125 
Q 47.953125 72.359375 53.515625 70.515625 
z
" id="DejaVuSans-53"/>
     <path d="M -0.296875 72.90625 
L 61.375 72.90625 
L 61.375 64.59375 
L 35.5 64.59375 
L 35.5 0 
L 25.59375 0 
L 25.59375 64.59375 
L -0.296875 64.59375 
z
" id="DejaVuSans-54"/>
    </defs>
    <g transform="translate(584.125714 39.802775)scale(0.1 -0.1)">
     <use xlink:href="#DejaVuSans-52"/>
     <use x="69.419922" xlink:href="#DejaVuSans-2d"/>
     <use x="105.503906" xlink:href="#DejaVuSans-53"/>
     <use x="168.980469" xlink:href="#DejaVuSans-54"/>
     <use x="230.064453" xlink:href="#DejaVuSans-44"/>
     <use x="307.066406" xlink:href="#DejaVuSans-50"/>
     <use x="367.369141" xlink:href="#DejaVuSans-20"/>
    </g>
    <!-- e = 0.016 -->
    <defs>
     <path d="M 10.59375 45.40625 
L 73.1875 45.40625 
L 73.1875 37.203125 
L 10.59375 37.203125 
z
M 10.59375 25.484375 
L 73.1875 25.484375 
L 73.1875 17.1875 
L 10.59375 17.1875 
z
" id="DejaVuSans-3d"/>
     <path d="M 33.015625 40.375 
Q 26.375 40.375 22.484375 35.828125 
Q 18.609375 31.296875 18.609375 23.390625 
Q 18.609375 15.53125 22.484375 10.953125 
Q 26.375 6.390625 33.015625 6.390625 
Q 39.65625 6.390625 43.53125 10.953125 
Q 47.40625 15.53125 47.40625 23.390625 
Q 47.40625 31.296875 43.53125 35.828125 
Q 39.65625 40.375 33.015625 40.375 
z
M 52.59375 71.296875 
L 52.59375 62.3125 
Q 48.875 64.0625 45.09375 64.984375 
Q 41.3125 65.921875 37.59375 65.921875 
Q 27.828125 65.921875 22.671875 59.328125 
Q 17.53125 52.734375 16.796875 39.40625 
Q 19.671875 43.65625 24.015625 45.921875 
Q 28.375 48.1875 33.59375 48.1875 
Q 44.578125 48.1875 50.953125 41.515625 
Q 57.328125 34.859375 57.328125 23.390625 
Q 57.328125 12.15625 50.6875 5.359375 
Q 44.046875 -1.421875 33.015625 -1.421875 
Q 20.359375 -1.421875 13.671875 8.265625 
Q 6.984375 17.96875 6.984375 36.375 
Q 6.984375 53.65625 15.1875 63.9375 
Q 23.390625 74.21875 37.203125 74.21875 
Q 40.921875 74.21875 44.703125 73.484375 
Q 48.484375 72.75 52.59375 71.296875 
z
" id="DejaVuSans-36"/>
    </defs>
    <g transform="translate(584.125714 51.000588)scale(0.1 -0.1)">
     <use xlink:href="#DejaVuSans-65"/>
     <use x="61.523438" xlink:href="#DejaVuSans-20"/>
     <use x="93.310547" xlink:href="#DejaVuSans-3d"/>
     <use x="177.099609" xlink:href="#DejaVuSans-20"/>
     <use x="208.886719" xlink:href="#DejaVuSans-30"/>
     <use x="272.509766" xlink:href="#DejaVuSans-2e"/>
     <use x="304.296875" xlink:href="#DejaVuSans-30"/>
     <use x="367.919922" xlink:href="#DejaVuSans-31"/>
     <use x="431.542969" xlink:href="#DejaVuSans-36"/>
    </g>
    <!-- MSE =0.025 -->
    <defs>
     <path d="M 9.8125 72.90625 
L 24.515625 72.90625 
L 43.109375 23.296875 
L 61.8125 72.90625 
L 76.515625 72.90625 
L 76.515625 0 
L 66.890625 0 
L 66.890625 64.015625 
L 48.09375 14.015625 
L 38.1875 14.015625 
L 19.390625 64.015625 
L 19.390625 0 
L 9.8125 0 
z
" id="DejaVuSans-4d"/>
     <path d="M 9.8125 72.90625 
L 55.90625 72.90625 
L 55.90625 64.59375 
L 19.671875 64.59375 
L 19.671875 43.015625 
L 54.390625 43.015625 
L 54.390625 34.71875 
L 19.671875 34.71875 
L 19.671875 8.296875 
L 56.78125 8.296875 
L 56.78125 0 
L 9.8125 0 
z
" id="DejaVuSans-45"/>
    </defs>
    <g transform="translate(584.125714 62.1984)scale(0.1 -0.1)">
     <use xlink:href="#DejaVuSans-4d"/>
     <use x="86.279297" xlink:href="#DejaVuSans-53"/>
     <use x="149.755859" xlink:href="#DejaVuSans-45"/>
     <use x="212.939453" xlink:href="#DejaVuSans-20"/>
     <use x="244.726562" xlink:href="#DejaVuSans-3d"/>
     <use x="328.515625" xlink:href="#DejaVuSans-30"/>
     <use x="392.138672" xlink:href="#DejaVuSans-2e"/>
     <use x="423.925781" xlink:href="#DejaVuSans-30"/>
     <use x="487.548828" xlink:href="#DejaVuSans-32"/>
     <use x="551.171875" xlink:href="#DejaVuSans-35"/>
    </g>
   </g>
  </g>
 </g>
 <defs>
  <clipPath id="pb912e0903e">
   <rect height="67.968" width="444.342857" x="58.32" y="13.824"/>
  </clipPath>
  <clipPath id="p190c3e1cde">
   <rect height="67.968" width="74.057143" x="502.662857" y="13.824"/>
  </clipPath>
 </defs>
</svg>
