<?xml version="1.0" encoding="utf-8" standalone="no"?>
<!DOCTYPE svg PUBLIC "-//W3C//DTD SVG 1.1//EN"
  "http://www.w3.org/Graphics/SVG/1.1/DTD/svg11.dtd">
<!-- Created with matplotlib (http://matplotlib.org/) -->
<svg height="115.2pt" version="1.1" viewBox="0 0 648 115.2" width="648pt" xmlns="http://www.w3.org/2000/svg" xmlns:xlink="http://www.w3.org/1999/xlink">
 <defs>
  <style type="text/css">
*{stroke-linecap:butt;stroke-linejoin:round;}
  </style>
 </defs>
 <g id="figure_1">
  <g id="patch_1">
   <path d="M 0 115.2 
L 648 115.2 
L 648 0 
L 0 0 
z
" style="fill:#ffffff;"/>
  </g>
  <g id="axes_1">
   <g id="patch_2">
    <path d="M 58.32 81.792 
L 502.662857 81.792 
L 502.662857 13.824 
L 58.32 13.824 
z
" style="fill:#ffffff;"/>
   </g>
   <g id="matplotlib.axis_1">
    <g id="xtick_1">
     <g id="line2d_1">
      <defs>
       <path d="M 0 0 
L 0 -3.5 
" id="mb3bb9e38b4" style="stroke:#000000;stroke-width:0.8;"/>
      </defs>
      <g>
       <use style="stroke:#000000;stroke-width:0.8;" x="58.32" xlink:href="#mb3bb9e38b4" y="81.792"/>
      </g>
     </g>
     <g id="line2d_2">
      <defs>
       <path d="M 0 0 
L 0 3.5 
" id="ma71ba8bf1d" style="stroke:#000000;stroke-width:0.8;"/>
      </defs>
      <g>
       <use style="stroke:#000000;stroke-width:0.8;" x="58.32" xlink:href="#ma71ba8bf1d" y="13.824"/>
      </g>
     </g>
     <g id="text_1">
      <!-- 0 -->
      <defs>
       <path d="M 31.78125 66.40625 
Q 24.171875 66.40625 20.328125 58.90625 
Q 16.5 51.421875 16.5 36.375 
Q 16.5 21.390625 20.328125 13.890625 
Q 24.171875 6.390625 31.78125 6.390625 
Q 39.453125 6.390625 43.28125 13.890625 
Q 47.125 21.390625 47.125 36.375 
Q 47.125 51.421875 43.28125 58.90625 
Q 39.453125 66.40625 31.78125 66.40625 
z
M 31.78125 74.21875 
Q 44.046875 74.21875 50.515625 64.515625 
Q 56.984375 54.828125 56.984375 36.375 
Q 56.984375 17.96875 50.515625 8.265625 
Q 44.046875 -1.421875 31.78125 -1.421875 
Q 19.53125 -1.421875 13.0625 8.265625 
Q 6.59375 17.96875 6.59375 36.375 
Q 6.59375 54.828125 13.0625 64.515625 
Q 19.53125 74.21875 31.78125 74.21875 
z
" id="DejaVuSans-30"/>
      </defs>
      <g transform="translate(55.13875 92.890438)scale(0.1 -0.1)">
       <use xlink:href="#DejaVuSans-30"/>
      </g>
     </g>
    </g>
    <g id="xtick_2">
     <g id="line2d_3">
      <g>
       <use style="stroke:#000000;stroke-width:0.8;" x="127.767781" xlink:href="#mb3bb9e38b4" y="81.792"/>
      </g>
     </g>
     <g id="line2d_4">
      <g>
       <use style="stroke:#000000;stroke-width:0.8;" x="127.767781" xlink:href="#ma71ba8bf1d" y="13.824"/>
      </g>
     </g>
     <g id="text_2">
      <!-- 5 -->
      <defs>
       <path d="M 10.796875 72.90625 
L 49.515625 72.90625 
L 49.515625 64.59375 
L 19.828125 64.59375 
L 19.828125 46.734375 
Q 21.96875 47.46875 24.109375 47.828125 
Q 26.265625 48.1875 28.421875 48.1875 
Q 40.625 48.1875 47.75 41.5 
Q 54.890625 34.8125 54.890625 23.390625 
Q 54.890625 11.625 47.5625 5.09375 
Q 40.234375 -1.421875 26.90625 -1.421875 
Q 22.3125 -1.421875 17.546875 -0.640625 
Q 12.796875 0.140625 7.71875 1.703125 
L 7.71875 11.625 
Q 12.109375 9.234375 16.796875 8.0625 
Q 21.484375 6.890625 26.703125 6.890625 
Q 35.15625 6.890625 40.078125 11.328125 
Q 45.015625 15.765625 45.015625 23.390625 
Q 45.015625 31 40.078125 35.4375 
Q 35.15625 39.890625 26.703125 39.890625 
Q 22.75 39.890625 18.8125 39.015625 
Q 14.890625 38.140625 10.796875 36.28125 
z
" id="DejaVuSans-35"/>
      </defs>
      <g transform="translate(124.586531 92.890438)scale(0.1 -0.1)">
       <use xlink:href="#DejaVuSans-35"/>
      </g>
     </g>
    </g>
    <g id="xtick_3">
     <g id="line2d_5">
      <g>
       <use style="stroke:#000000;stroke-width:0.8;" x="197.215562" xlink:href="#mb3bb9e38b4" y="81.792"/>
      </g>
     </g>
     <g id="line2d_6">
      <g>
       <use style="stroke:#000000;stroke-width:0.8;" x="197.215562" xlink:href="#ma71ba8bf1d" y="13.824"/>
      </g>
     </g>
     <g id="text_3">
      <!-- 10 -->
      <defs>
       <path d="M 12.40625 8.296875 
L 28.515625 8.296875 
L 28.515625 63.921875 
L 10.984375 60.40625 
L 10.984375 69.390625 
L 28.421875 72.90625 
L 38.28125 72.90625 
L 38.28125 8.296875 
L 54.390625 8.296875 
L 54.390625 0 
L 12.40625 0 
z
" id="DejaVuSans-31"/>
      </defs>
      <g transform="translate(190.853062 92.890438)scale(0.1 -0.1)">
       <use xlink:href="#DejaVuSans-31"/>
       <use x="63.623047" xlink:href="#DejaVuSans-30"/>
      </g>
     </g>
    </g>
    <g id="xtick_4">
     <g id="line2d_7">
      <g>
       <use style="stroke:#000000;stroke-width:0.8;" x="266.663344" xlink:href="#mb3bb9e38b4" y="81.792"/>
      </g>
     </g>
     <g id="line2d_8">
      <g>
       <use style="stroke:#000000;stroke-width:0.8;" x="266.663344" xlink:href="#ma71ba8bf1d" y="13.824"/>
      </g>
     </g>
     <g id="text_4">
      <!-- 15 -->
      <g transform="translate(260.300844 92.890438)scale(0.1 -0.1)">
       <use xlink:href="#DejaVuSans-31"/>
       <use x="63.623047" xlink:href="#DejaVuSans-35"/>
      </g>
     </g>
    </g>
    <g id="xtick_5">
     <g id="line2d_9">
      <g>
       <use style="stroke:#000000;stroke-width:0.8;" x="336.111125" xlink:href="#mb3bb9e38b4" y="81.792"/>
      </g>
     </g>
     <g id="line2d_10">
      <g>
       <use style="stroke:#000000;stroke-width:0.8;" x="336.111125" xlink:href="#ma71ba8bf1d" y="13.824"/>
      </g>
     </g>
     <g id="text_5">
      <!-- 20 -->
      <defs>
       <path d="M 19.1875 8.296875 
L 53.609375 8.296875 
L 53.609375 0 
L 7.328125 0 
L 7.328125 8.296875 
Q 12.9375 14.109375 22.625 23.890625 
Q 32.328125 33.6875 34.8125 36.53125 
Q 39.546875 41.84375 41.421875 45.53125 
Q 43.3125 49.21875 43.3125 52.78125 
Q 43.3125 58.59375 39.234375 62.25 
Q 35.15625 65.921875 28.609375 65.921875 
Q 23.96875 65.921875 18.8125 64.3125 
Q 13.671875 62.703125 7.8125 59.421875 
L 7.8125 69.390625 
Q 13.765625 71.78125 18.9375 73 
Q 24.125 74.21875 28.421875 74.21875 
Q 39.75 74.21875 46.484375 68.546875 
Q 53.21875 62.890625 53.21875 53.421875 
Q 53.21875 48.921875 51.53125 44.890625 
Q 49.859375 40.875 45.40625 35.40625 
Q 44.1875 33.984375 37.640625 27.21875 
Q 31.109375 20.453125 19.1875 8.296875 
z
" id="DejaVuSans-32"/>
      </defs>
      <g transform="translate(329.748625 92.890438)scale(0.1 -0.1)">
       <use xlink:href="#DejaVuSans-32"/>
       <use x="63.623047" xlink:href="#DejaVuSans-30"/>
      </g>
     </g>
    </g>
    <g id="xtick_6">
     <g id="line2d_11">
      <g>
       <use style="stroke:#000000;stroke-width:0.8;" x="405.558906" xlink:href="#mb3bb9e38b4" y="81.792"/>
      </g>
     </g>
     <g id="line2d_12">
      <g>
       <use style="stroke:#000000;stroke-width:0.8;" x="405.558906" xlink:href="#ma71ba8bf1d" y="13.824"/>
      </g>
     </g>
     <g id="text_6">
      <!-- 25 -->
      <g transform="translate(399.196406 92.890438)scale(0.1 -0.1)">
       <use xlink:href="#DejaVuSans-32"/>
       <use x="63.623047" xlink:href="#DejaVuSans-35"/>
      </g>
     </g>
    </g>
    <g id="xtick_7">
     <g id="line2d_13">
      <g>
       <use style="stroke:#000000;stroke-width:0.8;" x="475.006687" xlink:href="#mb3bb9e38b4" y="81.792"/>
      </g>
     </g>
     <g id="line2d_14">
      <g>
       <use style="stroke:#000000;stroke-width:0.8;" x="475.006687" xlink:href="#ma71ba8bf1d" y="13.824"/>
      </g>
     </g>
     <g id="text_7">
      <!-- 30 -->
      <defs>
       <path d="M 40.578125 39.3125 
Q 47.65625 37.796875 51.625 33 
Q 55.609375 28.21875 55.609375 21.1875 
Q 55.609375 10.40625 48.1875 4.484375 
Q 40.765625 -1.421875 27.09375 -1.421875 
Q 22.515625 -1.421875 17.65625 -0.515625 
Q 12.796875 0.390625 7.625 2.203125 
L 7.625 11.71875 
Q 11.71875 9.328125 16.59375 8.109375 
Q 21.484375 6.890625 26.8125 6.890625 
Q 36.078125 6.890625 40.9375 10.546875 
Q 45.796875 14.203125 45.796875 21.1875 
Q 45.796875 27.640625 41.28125 31.265625 
Q 36.765625 34.90625 28.71875 34.90625 
L 20.21875 34.90625 
L 20.21875 43.015625 
L 29.109375 43.015625 
Q 36.375 43.015625 40.234375 45.921875 
Q 44.09375 48.828125 44.09375 54.296875 
Q 44.09375 59.90625 40.109375 62.90625 
Q 36.140625 65.921875 28.71875 65.921875 
Q 24.65625 65.921875 20.015625 65.03125 
Q 15.375 64.15625 9.8125 62.3125 
L 9.8125 71.09375 
Q 15.4375 72.65625 20.34375 73.4375 
Q 25.25 74.21875 29.59375 74.21875 
Q 40.828125 74.21875 47.359375 69.109375 
Q 53.90625 64.015625 53.90625 55.328125 
Q 53.90625 49.265625 50.4375 45.09375 
Q 46.96875 40.921875 40.578125 39.3125 
z
" id="DejaVuSans-33"/>
      </defs>
      <g transform="translate(468.644187 92.890438)scale(0.1 -0.1)">
       <use xlink:href="#DejaVuSans-33"/>
       <use x="63.623047" xlink:href="#DejaVuSans-30"/>
      </g>
     </g>
    </g>
    <g id="text_8">
     <!-- Position [m] -->
     <defs>
      <path d="M 19.671875 64.796875 
L 19.671875 37.40625 
L 32.078125 37.40625 
Q 38.96875 37.40625 42.71875 40.96875 
Q 46.484375 44.53125 46.484375 51.125 
Q 46.484375 57.671875 42.71875 61.234375 
Q 38.96875 64.796875 32.078125 64.796875 
z
M 9.8125 72.90625 
L 32.078125 72.90625 
Q 44.34375 72.90625 50.609375 67.359375 
Q 56.890625 61.8125 56.890625 51.125 
Q 56.890625 40.328125 50.609375 34.8125 
Q 44.34375 29.296875 32.078125 29.296875 
L 19.671875 29.296875 
L 19.671875 0 
L 9.8125 0 
z
" id="DejaVuSans-50"/>
      <path d="M 30.609375 48.390625 
Q 23.390625 48.390625 19.1875 42.75 
Q 14.984375 37.109375 14.984375 27.296875 
Q 14.984375 17.484375 19.15625 11.84375 
Q 23.34375 6.203125 30.609375 6.203125 
Q 37.796875 6.203125 41.984375 11.859375 
Q 46.1875 17.53125 46.1875 27.296875 
Q 46.1875 37.015625 41.984375 42.703125 
Q 37.796875 48.390625 30.609375 48.390625 
z
M 30.609375 56 
Q 42.328125 56 49.015625 48.375 
Q 55.71875 40.765625 55.71875 27.296875 
Q 55.71875 13.875 49.015625 6.21875 
Q 42.328125 -1.421875 30.609375 -1.421875 
Q 18.84375 -1.421875 12.171875 6.21875 
Q 5.515625 13.875 5.515625 27.296875 
Q 5.515625 40.765625 12.171875 48.375 
Q 18.84375 56 30.609375 56 
z
" id="DejaVuSans-6f"/>
      <path d="M 44.28125 53.078125 
L 44.28125 44.578125 
Q 40.484375 46.53125 36.375 47.5 
Q 32.28125 48.484375 27.875 48.484375 
Q 21.1875 48.484375 17.84375 46.4375 
Q 14.5 44.390625 14.5 40.28125 
Q 14.5 37.15625 16.890625 35.375 
Q 19.28125 33.59375 26.515625 31.984375 
L 29.59375 31.296875 
Q 39.15625 29.25 43.1875 25.515625 
Q 47.21875 21.78125 47.21875 15.09375 
Q 47.21875 7.46875 41.1875 3.015625 
Q 35.15625 -1.421875 24.609375 -1.421875 
Q 20.21875 -1.421875 15.453125 -0.5625 
Q 10.6875 0.296875 5.421875 2 
L 5.421875 11.28125 
Q 10.40625 8.6875 15.234375 7.390625 
Q 20.0625 6.109375 24.8125 6.109375 
Q 31.15625 6.109375 34.5625 8.28125 
Q 37.984375 10.453125 37.984375 14.40625 
Q 37.984375 18.0625 35.515625 20.015625 
Q 33.0625 21.96875 24.703125 23.78125 
L 21.578125 24.515625 
Q 13.234375 26.265625 9.515625 29.90625 
Q 5.8125 33.546875 5.8125 39.890625 
Q 5.8125 47.609375 11.28125 51.796875 
Q 16.75 56 26.8125 56 
Q 31.78125 56 36.171875 55.265625 
Q 40.578125 54.546875 44.28125 53.078125 
z
" id="DejaVuSans-73"/>
      <path d="M 9.421875 54.6875 
L 18.40625 54.6875 
L 18.40625 0 
L 9.421875 0 
z
M 9.421875 75.984375 
L 18.40625 75.984375 
L 18.40625 64.59375 
L 9.421875 64.59375 
z
" id="DejaVuSans-69"/>
      <path d="M 18.3125 70.21875 
L 18.3125 54.6875 
L 36.8125 54.6875 
L 36.8125 47.703125 
L 18.3125 47.703125 
L 18.3125 18.015625 
Q 18.3125 11.328125 20.140625 9.421875 
Q 21.96875 7.515625 27.59375 7.515625 
L 36.8125 7.515625 
L 36.8125 0 
L 27.59375 0 
Q 17.1875 0 13.234375 3.875 
Q 9.28125 7.765625 9.28125 18.015625 
L 9.28125 47.703125 
L 2.6875 47.703125 
L 2.6875 54.6875 
L 9.28125 54.6875 
L 9.28125 70.21875 
z
" id="DejaVuSans-74"/>
      <path d="M 54.890625 33.015625 
L 54.890625 0 
L 45.90625 0 
L 45.90625 32.71875 
Q 45.90625 40.484375 42.875 44.328125 
Q 39.84375 48.1875 33.796875 48.1875 
Q 26.515625 48.1875 22.3125 43.546875 
Q 18.109375 38.921875 18.109375 30.90625 
L 18.109375 0 
L 9.078125 0 
L 9.078125 54.6875 
L 18.109375 54.6875 
L 18.109375 46.1875 
Q 21.34375 51.125 25.703125 53.5625 
Q 30.078125 56 35.796875 56 
Q 45.21875 56 50.046875 50.171875 
Q 54.890625 44.34375 54.890625 33.015625 
z
" id="DejaVuSans-6e"/>
      <path id="DejaVuSans-20"/>
      <path d="M 8.59375 75.984375 
L 29.296875 75.984375 
L 29.296875 69 
L 17.578125 69 
L 17.578125 -6.203125 
L 29.296875 -6.203125 
L 29.296875 -13.1875 
L 8.59375 -13.1875 
z
" id="DejaVuSans-5b"/>
      <path d="M 52 44.1875 
Q 55.375 50.25 60.0625 53.125 
Q 64.75 56 71.09375 56 
Q 79.640625 56 84.28125 50.015625 
Q 88.921875 44.046875 88.921875 33.015625 
L 88.921875 0 
L 79.890625 0 
L 79.890625 32.71875 
Q 79.890625 40.578125 77.09375 44.375 
Q 74.3125 48.1875 68.609375 48.1875 
Q 61.625 48.1875 57.5625 43.546875 
Q 53.515625 38.921875 53.515625 30.90625 
L 53.515625 0 
L 44.484375 0 
L 44.484375 32.71875 
Q 44.484375 40.625 41.703125 44.40625 
Q 38.921875 48.1875 33.109375 48.1875 
Q 26.21875 48.1875 22.15625 43.53125 
Q 18.109375 38.875 18.109375 30.90625 
L 18.109375 0 
L 9.078125 0 
L 9.078125 54.6875 
L 18.109375 54.6875 
L 18.109375 46.1875 
Q 21.1875 51.21875 25.484375 53.609375 
Q 29.78125 56 35.6875 56 
Q 41.65625 56 45.828125 52.96875 
Q 50 49.953125 52 44.1875 
z
" id="DejaVuSans-6d"/>
      <path d="M 30.421875 75.984375 
L 30.421875 -13.1875 
L 9.71875 -13.1875 
L 9.71875 -6.203125 
L 21.390625 -6.203125 
L 21.390625 69 
L 9.71875 69 
L 9.71875 75.984375 
z
" id="DejaVuSans-5d"/>
     </defs>
     <g transform="translate(250.487522 106.568563)scale(0.1 -0.1)">
      <use xlink:href="#DejaVuSans-50"/>
      <use x="60.255859" xlink:href="#DejaVuSans-6f"/>
      <use x="121.4375" xlink:href="#DejaVuSans-73"/>
      <use x="173.537109" xlink:href="#DejaVuSans-69"/>
      <use x="201.320312" xlink:href="#DejaVuSans-74"/>
      <use x="240.529297" xlink:href="#DejaVuSans-69"/>
      <use x="268.3125" xlink:href="#DejaVuSans-6f"/>
      <use x="329.494141" xlink:href="#DejaVuSans-6e"/>
      <use x="392.873047" xlink:href="#DejaVuSans-20"/>
      <use x="424.660156" xlink:href="#DejaVuSans-5b"/>
      <use x="463.673828" xlink:href="#DejaVuSans-6d"/>
      <use x="561.085938" xlink:href="#DejaVuSans-5d"/>
     </g>
    </g>
   </g>
   <g id="matplotlib.axis_2">
    <g id="ytick_1">
     <g id="line2d_15">
      <defs>
       <path d="M 0 0 
L 3.5 0 
" id="m0207468465" style="stroke:#000000;stroke-width:0.8;"/>
      </defs>
      <g>
       <use style="stroke:#000000;stroke-width:0.8;" x="58.32" xlink:href="#m0207468465" y="81.792"/>
      </g>
     </g>
     <g id="line2d_16">
      <defs>
       <path d="M 0 0 
L -3.5 0 
" id="me7205f46a3" style="stroke:#000000;stroke-width:0.8;"/>
      </defs>
      <g>
       <use style="stroke:#000000;stroke-width:0.8;" x="502.662857" xlink:href="#me7205f46a3" y="81.792"/>
      </g>
     </g>
     <g id="text_9">
      <!-- −0.2 -->
      <defs>
       <path d="M 10.59375 35.5 
L 73.1875 35.5 
L 73.1875 27.203125 
L 10.59375 27.203125 
z
" id="DejaVuSans-2212"/>
       <path d="M 10.6875 12.40625 
L 21 12.40625 
L 21 0 
L 10.6875 0 
z
" id="DejaVuSans-2e"/>
      </defs>
      <g transform="translate(30.537187 85.591219)scale(0.1 -0.1)">
       <use xlink:href="#DejaVuSans-2212"/>
       <use x="83.789062" xlink:href="#DejaVuSans-30"/>
       <use x="147.412109" xlink:href="#DejaVuSans-2e"/>
       <use x="179.199219" xlink:href="#DejaVuSans-32"/>
      </g>
     </g>
    </g>
    <g id="ytick_2">
     <g id="line2d_17">
      <g>
       <use style="stroke:#000000;stroke-width:0.8;" x="58.32" xlink:href="#m0207468465" y="47.808"/>
      </g>
     </g>
     <g id="line2d_18">
      <g>
       <use style="stroke:#000000;stroke-width:0.8;" x="502.662857" xlink:href="#me7205f46a3" y="47.808"/>
      </g>
     </g>
     <g id="text_10">
      <!-- 0.0 -->
      <g transform="translate(38.916875 51.607219)scale(0.1 -0.1)">
       <use xlink:href="#DejaVuSans-30"/>
       <use x="63.623047" xlink:href="#DejaVuSans-2e"/>
       <use x="95.410156" xlink:href="#DejaVuSans-30"/>
      </g>
     </g>
    </g>
    <g id="ytick_3">
     <g id="line2d_19">
      <g>
       <use style="stroke:#000000;stroke-width:0.8;" x="58.32" xlink:href="#m0207468465" y="13.824"/>
      </g>
     </g>
     <g id="line2d_20">
      <g>
       <use style="stroke:#000000;stroke-width:0.8;" x="502.662857" xlink:href="#me7205f46a3" y="13.824"/>
      </g>
     </g>
     <g id="text_11">
      <!-- 0.2 -->
      <g transform="translate(38.916875 17.623219)scale(0.1 -0.1)">
       <use xlink:href="#DejaVuSans-30"/>
       <use x="63.623047" xlink:href="#DejaVuSans-2e"/>
       <use x="95.410156" xlink:href="#DejaVuSans-32"/>
      </g>
     </g>
    </g>
    <g id="text_12">
     <!-- Distance to -->
     <defs>
      <path d="M 19.671875 64.796875 
L 19.671875 8.109375 
L 31.59375 8.109375 
Q 46.6875 8.109375 53.6875 14.9375 
Q 60.6875 21.78125 60.6875 36.53125 
Q 60.6875 51.171875 53.6875 57.984375 
Q 46.6875 64.796875 31.59375 64.796875 
z
M 9.8125 72.90625 
L 30.078125 72.90625 
Q 51.265625 72.90625 61.171875 64.09375 
Q 71.09375 55.28125 71.09375 36.53125 
Q 71.09375 17.671875 61.125 8.828125 
Q 51.171875 0 30.078125 0 
L 9.8125 0 
z
" id="DejaVuSans-44"/>
      <path d="M 34.28125 27.484375 
Q 23.390625 27.484375 19.1875 25 
Q 14.984375 22.515625 14.984375 16.5 
Q 14.984375 11.71875 18.140625 8.90625 
Q 21.296875 6.109375 26.703125 6.109375 
Q 34.1875 6.109375 38.703125 11.40625 
Q 43.21875 16.703125 43.21875 25.484375 
L 43.21875 27.484375 
z
M 52.203125 31.203125 
L 52.203125 0 
L 43.21875 0 
L 43.21875 8.296875 
Q 40.140625 3.328125 35.546875 0.953125 
Q 30.953125 -1.421875 24.3125 -1.421875 
Q 15.921875 -1.421875 10.953125 3.296875 
Q 6 8.015625 6 15.921875 
Q 6 25.140625 12.171875 29.828125 
Q 18.359375 34.515625 30.609375 34.515625 
L 43.21875 34.515625 
L 43.21875 35.40625 
Q 43.21875 41.609375 39.140625 45 
Q 35.0625 48.390625 27.6875 48.390625 
Q 23 48.390625 18.546875 47.265625 
Q 14.109375 46.140625 10.015625 43.890625 
L 10.015625 52.203125 
Q 14.9375 54.109375 19.578125 55.046875 
Q 24.21875 56 28.609375 56 
Q 40.484375 56 46.34375 49.84375 
Q 52.203125 43.703125 52.203125 31.203125 
z
" id="DejaVuSans-61"/>
      <path d="M 48.78125 52.59375 
L 48.78125 44.1875 
Q 44.96875 46.296875 41.140625 47.34375 
Q 37.3125 48.390625 33.40625 48.390625 
Q 24.65625 48.390625 19.8125 42.84375 
Q 14.984375 37.3125 14.984375 27.296875 
Q 14.984375 17.28125 19.8125 11.734375 
Q 24.65625 6.203125 33.40625 6.203125 
Q 37.3125 6.203125 41.140625 7.25 
Q 44.96875 8.296875 48.78125 10.40625 
L 48.78125 2.09375 
Q 45.015625 0.34375 40.984375 -0.53125 
Q 36.96875 -1.421875 32.421875 -1.421875 
Q 20.0625 -1.421875 12.78125 6.34375 
Q 5.515625 14.109375 5.515625 27.296875 
Q 5.515625 40.671875 12.859375 48.328125 
Q 20.21875 56 33.015625 56 
Q 37.15625 56 41.109375 55.140625 
Q 45.0625 54.296875 48.78125 52.59375 
z
" id="DejaVuSans-63"/>
      <path d="M 56.203125 29.59375 
L 56.203125 25.203125 
L 14.890625 25.203125 
Q 15.484375 15.921875 20.484375 11.0625 
Q 25.484375 6.203125 34.421875 6.203125 
Q 39.59375 6.203125 44.453125 7.46875 
Q 49.3125 8.734375 54.109375 11.28125 
L 54.109375 2.78125 
Q 49.265625 0.734375 44.1875 -0.34375 
Q 39.109375 -1.421875 33.890625 -1.421875 
Q 20.796875 -1.421875 13.15625 6.1875 
Q 5.515625 13.8125 5.515625 26.8125 
Q 5.515625 40.234375 12.765625 48.109375 
Q 20.015625 56 32.328125 56 
Q 43.359375 56 49.78125 48.890625 
Q 56.203125 41.796875 56.203125 29.59375 
z
M 47.21875 32.234375 
Q 47.125 39.59375 43.09375 43.984375 
Q 39.0625 48.390625 32.421875 48.390625 
Q 24.90625 48.390625 20.390625 44.140625 
Q 15.875 39.890625 15.1875 32.171875 
z
" id="DejaVuSans-65"/>
     </defs>
     <g transform="translate(13.259687 76.279094)rotate(-90)scale(0.1 -0.1)">
      <use xlink:href="#DejaVuSans-44"/>
      <use x="77.001953" xlink:href="#DejaVuSans-69"/>
      <use x="104.785156" xlink:href="#DejaVuSans-73"/>
      <use x="156.884766" xlink:href="#DejaVuSans-74"/>
      <use x="196.09375" xlink:href="#DejaVuSans-61"/>
      <use x="257.373047" xlink:href="#DejaVuSans-6e"/>
      <use x="320.751953" xlink:href="#DejaVuSans-63"/>
      <use x="375.732422" xlink:href="#DejaVuSans-65"/>
      <use x="437.255859" xlink:href="#DejaVuSans-20"/>
      <use x="469.042969" xlink:href="#DejaVuSans-74"/>
      <use x="508.251953" xlink:href="#DejaVuSans-6f"/>
     </g>
     <!-- Lane-Center [m] -->
     <defs>
      <path d="M 9.8125 72.90625 
L 19.671875 72.90625 
L 19.671875 8.296875 
L 55.171875 8.296875 
L 55.171875 0 
L 9.8125 0 
z
" id="DejaVuSans-4c"/>
      <path d="M 4.890625 31.390625 
L 31.203125 31.390625 
L 31.203125 23.390625 
L 4.890625 23.390625 
z
" id="DejaVuSans-2d"/>
      <path d="M 64.40625 67.28125 
L 64.40625 56.890625 
Q 59.421875 61.53125 53.78125 63.8125 
Q 48.140625 66.109375 41.796875 66.109375 
Q 29.296875 66.109375 22.65625 58.46875 
Q 16.015625 50.828125 16.015625 36.375 
Q 16.015625 21.96875 22.65625 14.328125 
Q 29.296875 6.6875 41.796875 6.6875 
Q 48.140625 6.6875 53.78125 8.984375 
Q 59.421875 11.28125 64.40625 15.921875 
L 64.40625 5.609375 
Q 59.234375 2.09375 53.4375 0.328125 
Q 47.65625 -1.421875 41.21875 -1.421875 
Q 24.65625 -1.421875 15.125 8.703125 
Q 5.609375 18.84375 5.609375 36.375 
Q 5.609375 53.953125 15.125 64.078125 
Q 24.65625 74.21875 41.21875 74.21875 
Q 47.75 74.21875 53.53125 72.484375 
Q 59.328125 70.75 64.40625 67.28125 
z
" id="DejaVuSans-43"/>
      <path d="M 41.109375 46.296875 
Q 39.59375 47.171875 37.8125 47.578125 
Q 36.03125 48 33.890625 48 
Q 26.265625 48 22.1875 43.046875 
Q 18.109375 38.09375 18.109375 28.8125 
L 18.109375 0 
L 9.078125 0 
L 9.078125 54.6875 
L 18.109375 54.6875 
L 18.109375 46.1875 
Q 20.953125 51.171875 25.484375 53.578125 
Q 30.03125 56 36.53125 56 
Q 37.453125 56 38.578125 55.875 
Q 39.703125 55.765625 41.0625 55.515625 
z
" id="DejaVuSans-72"/>
     </defs>
     <g transform="translate(24.4575 88.897063)rotate(-90)scale(0.1 -0.1)">
      <use xlink:href="#DejaVuSans-4c"/>
      <use x="55.712891" xlink:href="#DejaVuSans-61"/>
      <use x="116.992188" xlink:href="#DejaVuSans-6e"/>
      <use x="180.371094" xlink:href="#DejaVuSans-65"/>
      <use x="241.894531" xlink:href="#DejaVuSans-2d"/>
      <use x="277.978516" xlink:href="#DejaVuSans-43"/>
      <use x="347.802734" xlink:href="#DejaVuSans-65"/>
      <use x="409.326172" xlink:href="#DejaVuSans-6e"/>
      <use x="472.705078" xlink:href="#DejaVuSans-74"/>
      <use x="511.914062" xlink:href="#DejaVuSans-65"/>
      <use x="573.4375" xlink:href="#DejaVuSans-72"/>
      <use x="614.550781" xlink:href="#DejaVuSans-20"/>
      <use x="646.337891" xlink:href="#DejaVuSans-5b"/>
      <use x="685.351562" xlink:href="#DejaVuSans-6d"/>
      <use x="782.763672" xlink:href="#DejaVuSans-5d"/>
     </g>
    </g>
   </g>
   <g id="line2d_21">
    <path clip-path="url(#p1e5f50853d)" d="M 58.32 47.808 
L 502.662857 47.808 
" style="fill:none;stroke:#000000;stroke-linecap:square;stroke-width:0.5;"/>
   </g>
   <g id="line2d_22">
    <path clip-path="url(#p1e5f50853d)" d="M 127.767781 81.792 
L 127.767781 13.824 
" style="fill:none;stroke:#bfbfbf;stroke-dasharray:5.55,2.4;stroke-dashoffset:0;stroke-width:1.5;"/>
   </g>
   <g id="line2d_23">
    <path clip-path="url(#p1e5f50853d)" d="M 176.857525 81.792 
L 176.857525 13.824 
" style="fill:none;stroke:#bfbfbf;stroke-dasharray:5.55,2.4;stroke-dashoffset:0;stroke-width:1.5;"/>
   </g>
   <g id="line2d_24">
    <path clip-path="url(#p1e5f50853d)" d="M 246.305306 81.792 
L 246.305306 13.824 
" style="fill:none;stroke:#bfbfbf;stroke-dasharray:5.55,2.4;stroke-dashoffset:0;stroke-width:1.5;"/>
   </g>
   <g id="line2d_25">
    <path clip-path="url(#p1e5f50853d)" d="M 344.484794 81.792 
L 344.484794 13.824 
" style="fill:none;stroke:#bfbfbf;stroke-dasharray:5.55,2.4;stroke-dashoffset:0;stroke-width:1.5;"/>
   </g>
   <g id="line2d_26">
    <path clip-path="url(#p1e5f50853d)" d="M 404.48337 81.792 
L 404.48337 13.824 
" style="fill:none;stroke:#bfbfbf;stroke-dasharray:5.55,2.4;stroke-dashoffset:0;stroke-width:1.5;"/>
   </g>
   <g id="line2d_27">
    <path clip-path="url(#p1e5f50853d)" d="M 58.439818 47.797401 
L 58.439579 47.796682 
L 58.439579 47.796682 
L 61.39226 47.870956 
L 61.39226 47.870956 
L 62.17187 47.528927 
L 62.17187 47.528927 
L 62.55209 47.422821 
L 62.55209 47.422821 
L 63.315599 46.948445 
L 63.315599 46.948445 
L 65.282442 46.342622 
L 65.282442 46.342622 
L 65.653975 46.157426 
L 65.653975 46.157426 
L 66.406245 45.977299 
L 66.406245 45.977299 
L 67.942722 45.565869 
L 67.942722 45.565869 
L 69.063181 45.102157 
L 69.063181 45.102157 
L 71.805364 45.885028 
L 71.805364 45.885028 
L 75.259123 47.445807 
L 75.259123 47.445807 
L 75.643383 47.705575 
L 75.643383 47.705575 
L 76.810494 48.145101 
L 76.810494 48.145101 
L 77.960177 48.728981 
L 77.960177 48.728981 
L 79.109748 49.258799 
L 79.109748 49.258799 
L 79.467512 49.468135 
L 79.467512 49.468135 
L 81.437971 49.580161 
L 81.437971 49.580161 
L 82.602841 49.499116 
L 82.602841 49.499116 
L 83.373698 49.587341 
L 83.373698 49.587341 
L 84.119858 49.919348 
L 84.119858 49.919348 
L 85.639247 49.948456 
L 85.639247 49.948456 
L 86.028345 49.809945 
L 86.028345 49.809945 
L 86.401621 49.827558 
L 86.401621 49.827558 
L 87.169398 49.60145 
L 87.169398 49.60145 
L 87.533892 49.654146 
L 87.533892 49.654146 
L 88.313942 49.500139 
L 88.313942 49.500139 
L 88.668461 49.553038 
L 88.668461 49.553038 
L 89.041829 49.456386 
L 89.041829 49.456386 
L 90.591552 48.44012 
L 90.591552 48.44012 
L 93.698202 46.170542 
L 93.698202 46.170542 
L 94.062186 46.085492 
L 94.062186 46.085492 
L 94.835249 45.554622 
L 94.835249 45.554622 
L 96.004509 44.490531 
L 96.004509 44.490531 
L 97.527899 43.005708 
L 97.527899 43.005708 
L 99.47309 41.83741 
L 99.47309 41.83741 
L 101.016229 41.710455 
L 101.016229 41.710455 
L 101.384968 41.711271 
L 101.384968 41.711271 
L 103.683387 43.008381 
L 103.683387 43.008381 
L 107.24328 47.337746 
L 107.24328 47.337746 
L 109.947401 50.255801 
L 109.947401 50.255801 
L 111.508211 51.419268 
L 111.508211 51.419268 
L 112.314011 51.789082 
L 112.314011 51.789082 
L 113.026904 52.297235 
L 113.026904 52.297235 
L 113.788171 52.388063 
L 113.788171 52.388063 
L 114.176739 52.279825 
L 114.176739 52.279825 
L 114.893745 52.355714 
L 114.893745 52.355714 
L 116.766659 51.323477 
L 116.766659 51.323477 
L 117.420924 50.846092 
L 117.420924 50.846092 
L 118.117458 49.672386 
L 118.117458 49.672386 
L 119.558516 46.133003 
L 119.558516 46.133003 
L 121.472433 43.063174 
L 121.472433 43.063174 
L 122.217753 42.132677 
L 122.217753 42.132677 
L 123.772508 41.057446 
L 123.772508 41.057446 
L 125.628362 40.236251 
L 125.628362 40.236251 
L 126.743943 40.744758 
L 126.743943 40.744758 
L 130.840172 44.825178 
L 130.840172 44.825178 
L 131.714753 45.549584 
L 131.714753 45.549584 
L 133.403571 46.474681 
L 133.403571 46.474681 
L 134.722583 47.108026 
L 134.722583 47.108026 
L 136.002398 47.375007 
L 136.002398 47.375007 
L 136.38819 47.35645 
L 136.38819 47.35645 
L 136.799865 47.455566 
L 136.799865 47.455566 
L 137.241696 47.732078 
L 137.241696 47.732078 
L 138.069625 48.037004 
L 138.069625 48.037004 
L 139.349228 48.731105 
L 139.349228 48.731105 
L 140.663697 49.464816 
L 140.663697 49.464816 
L 141.938536 49.52624 
L 141.938536 49.52624 
L 143.612886 49.753714 
L 143.612886 49.753714 
L 144.488272 50.029364 
L 144.488272 50.029364 
L 145.305305 50.159669 
L 145.305305 50.159669 
L 146.159099 50.566593 
L 146.159099 50.566593 
L 146.583927 50.703277 
L 146.583927 50.703277 
L 147.037357 50.731761 
L 147.037357 50.731761 
L 148.272422 50.514392 
L 148.272422 50.514392 
L 149.509198 50.485241 
L 149.509198 50.485241 
L 150.808981 50.715037 
L 150.808981 50.715037 
L 152.13052 50.728181 
L 152.13052 50.728181 
L 152.966493 50.431074 
L 152.966493 50.431074 
L 153.806572 50.265176 
L 153.806572 50.265176 
L 155.519265 50.173034 
L 155.519265 50.173034 
L 155.96012 50.191005 
L 155.96012 50.191005 
L 158.040425 49.737712 
L 158.040425 49.737712 
L 159.347609 49.68677 
L 159.347609 49.68677 
L 162.264774 48.792046 
L 162.264774 48.792046 
L 164.006267 48.805441 
L 164.006267 48.805441 
L 164.401081 48.645465 
L 164.401081 48.645465 
L 166.524717 48.6438 
L 166.524717 48.6438 
L 166.917794 48.792659 
L 166.917794 48.792659 
L 167.74521 48.403041 
L 167.74521 48.403041 
L 168.976497 47.822108 
L 168.976497 47.822108 
L 169.832976 47.70074 
L 169.832976 47.70074 
L 170.646787 47.445224 
L 170.646787 47.445224 
L 171.935129 47.449896 
L 171.935129 47.449896 
L 172.814347 47.440054 
L 172.814347 47.440054 
L 173.637511 47.248206 
L 173.637511 47.248206 
L 174.077431 47.14233 
L 174.077431 47.14233 
L 174.467808 46.875719 
L 174.467808 46.875719 
L 174.899871 46.753058 
L 174.899871 46.753058 
L 175.287694 46.848552 
L 175.287694 46.848552 
L 175.695678 46.726856 
L 175.695678 46.726856 
L 178.85794 44.065332 
L 178.85794 44.065332 
L 180.383091 43.278587 
L 180.383091 43.278587 
L 181.131201 43.025629 
L 181.131201 43.025629 
L 181.511987 43.039079 
L 181.511987 43.039079 
L 182.26478 43.265137 
L 182.26478 43.265137 
L 183.01402 43.431885 
L 183.01402 43.431885 
L 183.772281 43.867957 
L 183.772281 43.867957 
L 184.899306 44.904742 
L 184.899306 44.904742 
L 186.779917 47.503349 
L 186.779917 47.503349 
L 187.144827 48.053665 
L 187.144827 48.053665 
L 188.999886 51.779805 
L 188.999886 51.779805 
L 190.51645 53.868932 
L 190.51645 53.868932 
L 191.312081 54.562499 
L 191.312081 54.562499 
L 192.028457 55.353781 
L 192.028457 55.353781 
L 192.405157 55.59183 
L 192.405157 55.59183 
L 193.193287 55.821777 
L 193.193287 55.821777 
L 193.904643 56.209396 
L 193.904643 56.209396 
L 194.653218 56.151707 
L 194.653218 56.151707 
L 195.393467 55.842357 
L 195.393467 55.842357 
L 196.570539 54.888054 
L 196.570539 54.888054 
L 197.318696 54.355401 
L 197.318696 54.355401 
L 198.090706 53.493628 
L 198.090706 53.493628 
L 198.443318 53.207775 
L 198.443318 53.207775 
L 199.581775 51.728598 
L 199.581775 51.728598 
L 202.25896 47.159158 
L 202.25896 47.159158 
L 203.01532 45.45992 
L 203.01532 45.45992 
L 204.893069 42.176982 
L 204.893069 42.176982 
L 205.665966 40.996136 
L 205.665966 40.996136 
L 207.554571 38.470937 
L 207.554571 38.470937 
L 209.891079 37.063385 
L 209.891079 37.063385 
L 210.652115 36.629419 
L 210.652115 36.629419 
L 211.401639 36.269834 
L 211.401639 36.269834 
L 212.116943 36.073269 
L 212.116943 36.073269 
L 212.861745 36.389912 
L 212.861745 36.389912 
L 213.627397 37.081048 
L 213.627397 37.081048 
L 214.386664 37.965508 
L 214.386664 37.965508 
L 215.91765 40.205178 
L 215.91765 40.205178 
L 218.939777 46.126262 
L 218.939777 46.126262 
L 220.467325 49.570762 
L 220.467325 49.570762 
L 222.775288 54.058204 
L 222.775288 54.058204 
L 225.824497 58.131614 
L 225.824497 58.131614 
L 227.766099 59.570765 
L 227.766099 59.570765 
L 228.435538 60.213449 
L 228.435538 60.213449 
L 228.779566 60.29188 
L 228.779566 60.29188 
L 230.286583 59.770733 
L 230.286583 59.770733 
L 231.780764 58.285884 
L 231.780764 58.285884 
L 232.126263 57.861803 
L 232.126263 57.861803 
L 234.002595 54.237592 
L 234.002595 54.237592 
L 234.751603 52.396237 
L 234.751603 52.396237 
L 237.375519 45.589558 
L 237.375519 45.589558 
L 239.283449 42.152999 
L 239.283449 42.152999 
L 240.029649 41.018985 
L 240.029649 41.018985 
L 241.192909 39.778829 
L 241.192909 39.778829 
L 242.705185 38.619697 
L 242.705185 38.619697 
L 243.454829 38.465265 
L 243.454829 38.465265 
L 244.225243 38.625855 
L 244.225243 38.625855 
L 244.579901 38.619535 
L 244.579901 38.619535 
L 244.950249 38.765379 
L 244.950249 38.765379 
L 255.680022 47.159089 
L 255.680022 47.159089 
L 256.501394 47.544014 
L 256.501394 47.544014 
L 257.329639 48.100505 
L 257.329639 48.100505 
L 259.084688 49.568091 
L 259.084688 49.568091 
L 259.935591 50.021965 
L 259.935591 50.021965 
L 261.253861 50.751763 
L 261.253861 50.751763 
L 261.658837 50.792307 
L 261.658837 50.792307 
L 263.80258 51.66031 
L 263.80258 51.66031 
L 264.667987 52.025305 
L 264.667987 52.025305 
L 267.208541 51.675348 
L 267.208541 51.675348 
L 268.11188 51.737204 
L 268.11188 51.737204 
L 268.931798 51.482428 
L 268.931798 51.482428 
L 270.660847 51.358195 
L 270.660847 51.358195 
L 271.461819 51.104545 
L 271.461819 51.104545 
L 272.334102 51.197359 
L 272.334102 51.197359 
L 273.215314 51.156075 
L 273.215314 51.156075 
L 274.896102 50.713313 
L 274.896102 50.713313 
L 276.579607 50.59038 
L 276.579607 50.59038 
L 278.738081 50.431454 
L 278.738081 50.431454 
L 282.549974 49.774201 
L 282.549974 49.774201 
L 283.44683 49.790785 
L 283.44683 49.790785 
L 284.305508 49.37159 
L 284.305508 49.37159 
L 285.124719 48.949377 
L 285.124719 48.949377 
L 288.055051 47.953046 
L 288.055051 47.953046 
L 289.747434 47.588871 
L 289.747434 47.588871 
L 290.999957 47.337769 
L 290.999957 47.337769 
L 291.871024 47.247295 
L 291.871024 47.247295 
L 293.968927 46.769613 
L 293.968927 46.769613 
L 296.086505 46.396165 
L 296.086505 46.396165 
L 296.8957 46.23605 
L 296.8957 46.23605 
L 298.122963 46.205655 
L 298.122963 46.205655 
L 302.35987 46.779214 
L 302.35987 46.779214 
L 303.215635 46.929822 
L 303.215635 46.929822 
L 304.101909 47.054293 
L 304.101909 47.054293 
L 305.330237 46.974278 
L 305.330237 46.974278 
L 306.193128 47.097364 
L 306.193128 47.097364 
L 307.034621 47.112364 
L 307.034621 47.112364 
L 307.916207 47.266548 
L 307.916207 47.266548 
L 309.526704 46.829058 
L 309.526704 46.829058 
L 310.373656 47.012111 
L 310.373656 47.012111 
L 311.668656 47.288519 
L 311.668656 47.288519 
L 312.51348 47.341922 
L 312.51348 47.341922 
L 313.808882 47.485819 
L 313.808882 47.485819 
L 314.611521 47.399333 
L 314.611521 47.399333 
L 315.888113 47.805532 
L 315.888113 47.805532 
L 316.771774 47.956219 
L 316.771774 47.956219 
L 318.86712 47.852141 
L 318.86712 47.852141 
L 320.162134 47.996077 
L 320.162134 47.996077 
L 321.833307 47.999343 
L 321.833307 47.999343 
L 322.697715 48.132688 
L 322.697715 48.132688 
L 323.980727 48.219181 
L 323.980727 48.219181 
L 324.432891 48.300746 
L 324.432891 48.300746 
L 325.679728 48.171624 
L 325.679728 48.171624 
L 326.976449 48.201335 
L 326.976449 48.201335 
L 330.351582 48.068502 
L 330.351582 48.068502 
L 332.092191 48.309143 
L 332.092191 48.309143 
L 333.330157 48.189228 
L 333.330157 48.189228 
L 334.139536 48.2464 
L 334.139536 48.2464 
L 335.852872 48.915849 
L 335.852872 48.915849 
L 336.251606 49.172943 
L 336.251606 49.172943 
L 337.121695 49.117089 
L 337.121695 49.117089 
L 338.453734 48.724026 
L 338.453734 48.724026 
L 339.339439 48.28404 
L 339.339439 48.28404 
L 342.270818 46.241041 
L 342.270818 46.241041 
L 343.996667 45.232445 
L 343.996667 45.232445 
L 345.532448 44.157979 
L 345.532448 44.157979 
L 345.885579 44.035759 
L 345.885579 44.035759 
L 346.606182 44.158457 
L 346.606182 44.158457 
L 348.774114 45.372449 
L 348.774114 45.372449 
L 351.52813 47.836916 
L 351.52813 47.836916 
L 352.229774 48.24265 
L 352.229774 48.24265 
L 352.895019 48.819907 
L 352.895019 48.819907 
L 353.859195 49.519054 
L 353.859195 49.519054 
L 354.897106 49.680561 
L 354.897106 49.680561 
L 356.31067 49.795676 
L 356.31067 49.795676 
L 356.633364 49.911716 
L 356.633364 49.911716 
L 357.318754 50.028255 
L 357.318754 50.028255 
L 359.097093 50.456533 
L 359.097093 50.456533 
L 359.416628 50.635607 
L 359.416628 50.635607 
L 360.133955 50.675629 
L 360.133955 50.675629 
L 360.49985 50.828556 
L 360.49985 50.828556 
L 361.14094 51.310079 
L 361.14094 51.310079 
L 361.794268 51.535915 
L 361.794268 51.535915 
L 362.153059 51.516302 
L 362.153059 51.516302 
L 362.804052 51.641894 
L 362.804052 51.641894 
L 363.796932 51.461663 
L 363.796932 51.461663 
L 364.853417 50.984786 
L 364.853417 50.984786 
L 366.871941 50.26983 
L 366.871941 50.26983 
L 367.594938 49.705337 
L 367.594938 49.705337 
L 369.349809 48.842201 
L 369.349809 48.842201 
L 372.84587 48.052507 
L 372.84587 48.052507 
L 373.189622 47.893617 
L 373.189622 47.893617 
L 374.204674 47.94308 
L 374.204674 47.94308 
L 378.734903 47.386597 
L 378.734903 47.386597 
L 379.088185 47.220948 
L 379.088185 47.220948 
L 379.443332 47.181978 
L 379.443332 47.181978 
L 380.074833 47.322215 
L 380.074833 47.322215 
L 381.149938 46.860462 
L 381.149938 46.860462 
L 382.211939 46.66076 
L 382.211939 46.66076 
L 383.944573 46.540065 
L 383.944573 46.540065 
L 384.269863 46.676335 
L 384.269863 46.676335 
L 385.313856 46.710946 
L 385.313856 46.710946 
L 386.293122 46.963853 
L 386.293122 46.963853 
L 386.964207 46.805655 
L 386.964207 46.805655 
L 387.671186 46.376119 
L 387.671186 46.376119 
L 388.739512 46.322642 
L 388.739512 46.322642 
L 389.067803 46.425199 
L 389.067803 46.425199 
L 389.429544 46.333479 
L 389.429544 46.333479 
L 390.117001 46.373226 
L 390.117001 46.373226 
L 390.813113 46.403406 
L 390.813113 46.403406 
L 392.832486 46.401751 
L 392.832486 46.401751 
L 393.857142 45.877864 
L 393.857142 45.877864 
L 394.547635 45.365356 
L 394.547635 45.365356 
L 395.647666 44.46591 
L 395.647666 44.46591 
L 396.655421 43.95175 
L 396.655421 43.95175 
L 396.961464 43.79875 
L 396.961464 43.79875 
L 401.202232 39.052781 
L 401.202232 39.052781 
L 402.264165 38.526071 
L 402.264165 38.526071 
L 402.615356 38.530524 
L 402.615356 38.530524 
L 403.344225 38.929209 
L 403.344225 38.929209 
L 403.680245 39.181693 
L 403.680245 39.181693 
L 404.397631 40.253761 
L 404.397631 40.253761 
L 404.802545 40.951236 
L 404.802545 40.951236 
L 406.830504 43.37784 
L 406.830504 43.37784 
L 410.21734 48.398428 
L 410.21734 48.398428 
L 411.524954 50.045674 
L 411.524954 50.045674 
L 413.26045 51.8966 
L 413.26045 51.8966 
L 414.149703 52.734398 
L 414.149703 52.734398 
L 415.507609 53.732712 
L 415.507609 53.732712 
L 416.40484 53.970516 
L 416.40484 53.970516 
L 417.723689 53.935242 
L 417.723689 53.935242 
L 418.998295 53.798845 
L 418.998295 53.798845 
L 419.914505 53.871807 
L 419.914505 53.871807 
L 421.24657 53.542196 
L 421.24657 53.542196 
L 421.697713 53.397953 
L 421.697713 53.397953 
L 422.963203 52.710905 
L 422.963203 52.710905 
L 424.277088 52.214551 
L 424.277088 52.214551 
L 425.617462 51.627046 
L 425.617462 51.627046 
L 427.381932 50.354873 
L 427.381932 50.354873 
L 428.265864 49.541174 
L 428.265864 49.541174 
L 429.113671 48.567988 
L 429.113671 48.567988 
L 430.424958 47.10879 
L 430.424958 47.10879 
L 433.790385 42.209391 
L 433.790385 42.209391 
L 436.234334 37.325751 
L 436.234334 37.325751 
L 437.420045 35.115776 
L 437.420045 35.115776 
L 438.978994 32.493942 
L 438.978994 32.493942 
L 440.136811 31.007845 
L 440.136811 31.007845 
L 441.249237 29.842039 
L 441.249237 29.842039 
L 441.958285 29.375887 
L 441.958285 29.375887 
L 442.297547 29.252579 
L 442.297547 29.252579 
L 442.643861 29.26381 
L 442.643861 29.26381 
L 443.337983 29.622626 
L 443.337983 29.622626 
L 443.674888 29.920649 
L 443.674888 29.920649 
L 444.422458 31.249028 
L 444.422458 31.249028 
L 447.293933 37.315946 
L 447.293933 37.315946 
L 450.134144 42.449491 
L 450.134144 42.449491 
L 451.802178 45.577444 
L 451.802178 45.577444 
L 453.047009 47.590175 
L 453.047009 47.590175 
L 454.380057 49.827359 
L 454.380057 49.827359 
L 457.839864 54.198354 
L 457.839864 54.198354 
L 458.726391 55.138368 
L 458.726391 55.138368 
L 460.046853 56.348954 
L 460.046853 56.348954 
L 460.937417 57.048043 
L 460.937417 57.048043 
L 461.862859 57.72361 
L 461.862859 57.72361 
L 463.233568 58.273636 
L 463.233568 58.273636 
L 464.125757 58.347155 
L 464.125757 58.347155 
L 465.416429 58.267278 
L 465.416429 58.267278 
L 466.324129 58.393959 
L 466.324129 58.393959 
L 467.63646 58.067446 
L 467.63646 58.067446 
L 468.560057 57.854628 
L 468.560057 57.854628 
L 469.018023 57.609468 
L 469.018023 57.609468 
L 469.8692 56.949737 
L 469.8692 56.949737 
L 472.473302 55.302958 
L 472.473302 55.302958 
L 473.778125 54.383265 
L 473.778125 54.383265 
L 476.862339 51.992153 
L 476.862339 51.992153 
L 479.478499 48.507537 
L 479.478499 48.507537 
L 480.347979 47.076837 
L 480.347979 47.076837 
L 482.064202 43.685673 
L 482.064202 43.685673 
L 484.449842 38.078632 
L 484.449842 38.078632 
L 486.081851 34.628059 
L 486.081851 34.628059 
L 487.638887 31.342398 
L 487.638887 31.342398 
L 489.199203 28.473691 
L 489.199203 28.473691 
L 490.749291 26.148158 
L 490.749291 26.148158 
L 492.700477 23.817262 
L 492.700477 23.817262 
L 493.839179 22.681539 
L 493.839179 22.681539 
L 494.955368 21.84525 
L 494.955368 21.84525 
L 495.96276 21.31838 
L 495.96276 21.31838 
L 496.262312 21.230159 
L 496.262312 21.230159 
L 496.56722 21.320891 
L 496.56722 21.320891 
L 496.887802 21.622782 
L 496.887802 21.622782 
L 497.97571 23.880998 
L 497.97571 23.880998 
L 499.484893 27.846537 
L 499.484893 27.846537 
L 500.637927 31.443919 
L 500.637927 31.443919 
L 501.053615 32.821067 
L 501.053615 32.821067 
" style="fill:none;stroke:#008000;stroke-linecap:square;stroke-width:1.5;"/>
   </g>
   <g id="patch_3">
    <path d="M 58.32 81.792 
L 58.32 13.824 
" style="fill:none;stroke:#000000;stroke-linecap:square;stroke-linejoin:miter;stroke-width:0.8;"/>
   </g>
   <g id="patch_4">
    <path d="M 502.662857 81.792 
L 502.662857 13.824 
" style="fill:none;stroke:#000000;stroke-linecap:square;stroke-linejoin:miter;stroke-width:0.8;"/>
   </g>
   <g id="patch_5">
    <path d="M 58.32 81.792 
L 502.662857 81.792 
" style="fill:none;stroke:#000000;stroke-linecap:square;stroke-linejoin:miter;stroke-width:0.8;"/>
   </g>
   <g id="patch_6">
    <path d="M 58.32 13.824 
L 502.662857 13.824 
" style="fill:none;stroke:#000000;stroke-linecap:square;stroke-linejoin:miter;stroke-width:0.8;"/>
   </g>
  </g>
  <g id="axes_2">
   <g id="patch_7">
    <path d="M 502.662857 81.792 
L 576.72 81.792 
L 576.72 13.824 
L 502.662857 13.824 
z
" style="fill:#ffffff;"/>
   </g>
   <g id="patch_8">
    <path clip-path="url(#p72b3c5897a)" d="M 502.662857 86.8896 
L 502.662857 86.8896 
L 502.662857 85.1904 
L 502.662857 85.1904 
z
" style="fill:#008000;"/>
   </g>
   <g id="patch_9">
    <path clip-path="url(#p72b3c5897a)" d="M 502.662857 85.1904 
L 502.662857 85.1904 
L 502.662857 83.4912 
L 502.662857 83.4912 
z
" style="fill:#008000;"/>
   </g>
   <g id="patch_10">
    <path clip-path="url(#p72b3c5897a)" d="M 502.662857 83.4912 
L 502.662857 83.4912 
L 502.662857 81.792 
L 502.662857 81.792 
z
" style="fill:#008000;"/>
   </g>
   <g id="patch_11">
    <path clip-path="url(#p72b3c5897a)" d="M 502.662857 81.792 
L 502.662857 81.792 
L 502.662857 80.0928 
L 502.662857 80.0928 
z
" style="fill:#008000;"/>
   </g>
   <g id="patch_12">
    <path clip-path="url(#p72b3c5897a)" d="M 502.662857 80.0928 
L 502.662857 80.0928 
L 502.662857 78.3936 
L 502.662857 78.3936 
z
" style="fill:#008000;"/>
   </g>
   <g id="patch_13">
    <path clip-path="url(#p72b3c5897a)" d="M 502.662857 78.3936 
L 502.662857 78.3936 
L 502.662857 76.6944 
L 502.662857 76.6944 
z
" style="fill:#008000;"/>
   </g>
   <g id="patch_14">
    <path clip-path="url(#p72b3c5897a)" d="M 502.662857 76.6944 
L 502.662857 76.6944 
L 502.662857 74.9952 
L 502.662857 74.9952 
z
" style="fill:#008000;"/>
   </g>
   <g id="patch_15">
    <path clip-path="url(#p72b3c5897a)" d="M 502.662857 74.9952 
L 502.662857 74.9952 
L 502.662857 73.296 
L 502.662857 73.296 
z
" style="fill:#008000;"/>
   </g>
   <g id="patch_16">
    <path clip-path="url(#p72b3c5897a)" d="M 502.662857 73.296 
L 502.662857 73.296 
L 502.662857 71.5968 
L 502.662857 71.5968 
z
" style="fill:#008000;"/>
   </g>
   <g id="patch_17">
    <path clip-path="url(#p72b3c5897a)" d="M 502.662857 71.5968 
L 502.662857 71.5968 
L 502.662857 69.8976 
L 502.662857 69.8976 
z
" style="fill:#008000;"/>
   </g>
   <g id="patch_18">
    <path clip-path="url(#p72b3c5897a)" d="M 502.662857 69.8976 
L 502.662857 69.8976 
L 502.662857 68.1984 
L 502.662857 68.1984 
z
" style="fill:#008000;"/>
   </g>
   <g id="patch_19">
    <path clip-path="url(#p72b3c5897a)" d="M 502.662857 68.1984 
L 502.662857 68.1984 
L 502.662857 66.4992 
L 502.662857 66.4992 
z
" style="fill:#008000;"/>
   </g>
   <g id="patch_20">
    <path clip-path="url(#p72b3c5897a)" d="M 502.662857 66.4992 
L 502.662857 66.4992 
L 502.662857 64.8 
L 502.662857 64.8 
z
" style="fill:#008000;"/>
   </g>
   <g id="patch_21">
    <path clip-path="url(#p72b3c5897a)" d="M 502.662857 64.8 
L 502.662857 64.8 
L 502.662857 63.1008 
L 502.662857 63.1008 
z
" style="fill:#008000;"/>
   </g>
   <g id="patch_22">
    <path clip-path="url(#p72b3c5897a)" d="M 502.662857 63.1008 
L 502.662857 63.1008 
L 502.662857 61.4016 
L 502.662857 61.4016 
z
" style="fill:#008000;"/>
   </g>
   <g id="patch_23">
    <path clip-path="url(#p72b3c5897a)" d="M 502.662857 61.4016 
L 504.52593 61.4016 
L 504.52593 59.7024 
L 502.662857 59.7024 
z
" style="fill:#008000;"/>
   </g>
   <g id="patch_24">
    <path clip-path="url(#p72b3c5897a)" d="M 502.662857 59.7024 
L 508.328119 59.7024 
L 508.328119 58.0032 
L 502.662857 58.0032 
z
" style="fill:#008000;"/>
   </g>
   <g id="patch_25">
    <path clip-path="url(#p72b3c5897a)" d="M 502.662857 58.0032 
L 507.529659 58.0032 
L 507.529659 56.304 
L 502.662857 56.304 
z
" style="fill:#008000;"/>
   </g>
   <g id="patch_26">
    <path clip-path="url(#p72b3c5897a)" d="M 502.662857 56.304 
L 510.913608 56.304 
L 510.913608 54.6048 
L 502.662857 54.6048 
z
" style="fill:#008000;"/>
   </g>
   <g id="patch_27">
    <path clip-path="url(#p72b3c5897a)" d="M 502.662857 54.6048 
L 514.449644 54.6048 
L 514.449644 52.9056 
L 502.662857 52.9056 
z
" style="fill:#008000;"/>
   </g>
   <g id="patch_28">
    <path clip-path="url(#p72b3c5897a)" d="M 502.662857 52.9056 
L 524.981709 52.9056 
L 524.981709 51.2064 
L 502.662857 51.2064 
z
" style="fill:#008000;"/>
   </g>
   <g id="patch_29">
    <path clip-path="url(#p72b3c5897a)" d="M 502.662857 51.2064 
L 552.585603 51.2064 
L 552.585603 49.5072 
L 502.662857 49.5072 
z
" style="fill:#008000;"/>
   </g>
   <g id="patch_30">
    <path clip-path="url(#p72b3c5897a)" d="M 502.662857 49.5072 
L 561.330639 49.5072 
L 561.330639 47.808 
L 502.662857 47.808 
z
" style="fill:#008000;"/>
   </g>
   <g id="patch_31">
    <path clip-path="url(#p72b3c5897a)" d="M 502.662857 47.808 
L 573.193469 47.808 
L 573.193469 46.1088 
L 502.662857 46.1088 
z
" style="fill:#008000;"/>
   </g>
   <g id="patch_32">
    <path clip-path="url(#p72b3c5897a)" d="M 502.662857 46.1088 
L 527.567197 46.1088 
L 527.567197 44.4096 
L 502.662857 44.4096 
z
" style="fill:#008000;"/>
   </g>
   <g id="patch_33">
    <path clip-path="url(#p72b3c5897a)" d="M 502.662857 44.4096 
L 522.244132 44.4096 
L 522.244132 42.7104 
L 502.662857 42.7104 
z
" style="fill:#008000;"/>
   </g>
   <g id="patch_34">
    <path clip-path="url(#p72b3c5897a)" d="M 502.662857 42.7104 
L 516.426783 42.7104 
L 516.426783 41.0112 
L 502.662857 41.0112 
z
" style="fill:#008000;"/>
   </g>
   <g id="patch_35">
    <path clip-path="url(#p72b3c5897a)" d="M 502.662857 41.0112 
L 513.347009 41.0112 
L 513.347009 39.312 
L 502.662857 39.312 
z
" style="fill:#008000;"/>
   </g>
   <g id="patch_36">
    <path clip-path="url(#p72b3c5897a)" d="M 502.662857 39.312 
L 512.016243 39.312 
L 512.016243 37.6128 
L 502.662857 37.6128 
z
" style="fill:#008000;"/>
   </g>
   <g id="patch_37">
    <path clip-path="url(#p72b3c5897a)" d="M 502.662857 37.6128 
L 507.833835 37.6128 
L 507.833835 35.9136 
L 502.662857 35.9136 
z
" style="fill:#008000;"/>
   </g>
   <g id="patch_38">
    <path clip-path="url(#p72b3c5897a)" d="M 502.662857 35.9136 
L 504.33582 35.9136 
L 504.33582 34.2144 
L 502.662857 34.2144 
z
" style="fill:#008000;"/>
   </g>
   <g id="patch_39">
    <path clip-path="url(#p72b3c5897a)" d="M 502.662857 34.2144 
L 504.33582 34.2144 
L 504.33582 32.5152 
L 502.662857 32.5152 
z
" style="fill:#008000;"/>
   </g>
   <g id="patch_40">
    <path clip-path="url(#p72b3c5897a)" d="M 502.662857 32.5152 
L 504.792083 32.5152 
L 504.792083 30.816 
L 502.662857 30.816 
z
" style="fill:#008000;"/>
   </g>
   <g id="patch_41">
    <path clip-path="url(#p72b3c5897a)" d="M 502.662857 30.816 
L 506.274937 30.816 
L 506.274937 29.1168 
L 502.662857 29.1168 
z
" style="fill:#008000;"/>
   </g>
   <g id="patch_42">
    <path clip-path="url(#p72b3c5897a)" d="M 502.662857 29.1168 
L 503.575383 29.1168 
L 503.575383 27.4176 
L 502.662857 27.4176 
z
" style="fill:#008000;"/>
   </g>
   <g id="patch_43">
    <path clip-path="url(#p72b3c5897a)" d="M 502.662857 27.4176 
L 503.765492 27.4176 
L 503.765492 25.7184 
L 502.662857 25.7184 
z
" style="fill:#008000;"/>
   </g>
   <g id="patch_44">
    <path clip-path="url(#p72b3c5897a)" d="M 502.662857 25.7184 
L 503.841536 25.7184 
L 503.841536 24.0192 
L 502.662857 24.0192 
z
" style="fill:#008000;"/>
   </g>
   <g id="patch_45">
    <path clip-path="url(#p72b3c5897a)" d="M 502.662857 24.0192 
L 504.145711 24.0192 
L 504.145711 22.32 
L 502.662857 22.32 
z
" style="fill:#008000;"/>
   </g>
   <g id="patch_46">
    <path clip-path="url(#p72b3c5897a)" d="M 502.662857 22.32 
L 504.716039 22.32 
L 504.716039 20.6208 
L 502.662857 20.6208 
z
" style="fill:#008000;"/>
   </g>
   <g id="patch_47">
    <path clip-path="url(#p72b3c5897a)" d="M 502.662857 20.6208 
L 502.662857 20.6208 
L 502.662857 18.9216 
L 502.662857 18.9216 
z
" style="fill:#008000;"/>
   </g>
   <g id="patch_48">
    <path clip-path="url(#p72b3c5897a)" d="M 502.662857 18.9216 
L 502.662857 18.9216 
L 502.662857 17.2224 
L 502.662857 17.2224 
z
" style="fill:#008000;"/>
   </g>
   <g id="patch_49">
    <path clip-path="url(#p72b3c5897a)" d="M 502.662857 17.2224 
L 502.662857 17.2224 
L 502.662857 15.5232 
L 502.662857 15.5232 
z
" style="fill:#008000;"/>
   </g>
   <g id="patch_50">
    <path clip-path="url(#p72b3c5897a)" d="M 502.662857 15.5232 
L 502.662857 15.5232 
L 502.662857 13.824 
L 502.662857 13.824 
z
" style="fill:#008000;"/>
   </g>
   <g id="patch_51">
    <path clip-path="url(#p72b3c5897a)" d="M 502.662857 13.824 
L 502.662857 13.824 
L 502.662857 12.1248 
L 502.662857 12.1248 
z
" style="fill:#008000;"/>
   </g>
   <g id="patch_52">
    <path clip-path="url(#p72b3c5897a)" d="M 502.662857 12.1248 
L 502.662857 12.1248 
L 502.662857 10.4256 
L 502.662857 10.4256 
z
" style="fill:#008000;"/>
   </g>
   <g id="patch_53">
    <path clip-path="url(#p72b3c5897a)" d="M 502.662857 10.4256 
L 502.662857 10.4256 
L 502.662857 8.7264 
L 502.662857 8.7264 
z
" style="fill:#008000;"/>
   </g>
   <g id="matplotlib.axis_3">
    <g id="xtick_8">
     <g id="line2d_28">
      <g>
       <use style="stroke:#000000;stroke-width:0.8;" x="502.662857" xlink:href="#mb3bb9e38b4" y="81.792"/>
      </g>
     </g>
     <g id="line2d_29">
      <g>
       <use style="stroke:#000000;stroke-width:0.8;" x="502.662857" xlink:href="#ma71ba8bf1d" y="13.824"/>
      </g>
     </g>
    </g>
    <g id="xtick_9">
     <g id="line2d_30">
      <g>
       <use style="stroke:#000000;stroke-width:0.8;" x="569.292423" xlink:href="#mb3bb9e38b4" y="81.792"/>
      </g>
     </g>
     <g id="line2d_31">
      <g>
       <use style="stroke:#000000;stroke-width:0.8;" x="569.292423" xlink:href="#ma71ba8bf1d" y="13.824"/>
      </g>
     </g>
    </g>
    <g id="text_13">
     <!-- Histogram -->
     <defs>
      <path d="M 9.8125 72.90625 
L 19.671875 72.90625 
L 19.671875 43.015625 
L 55.515625 43.015625 
L 55.515625 72.90625 
L 65.375 72.90625 
L 65.375 0 
L 55.515625 0 
L 55.515625 34.71875 
L 19.671875 34.71875 
L 19.671875 0 
L 9.8125 0 
z
" id="DejaVuSans-48"/>
      <path d="M 45.40625 27.984375 
Q 45.40625 37.75 41.375 43.109375 
Q 37.359375 48.484375 30.078125 48.484375 
Q 22.859375 48.484375 18.828125 43.109375 
Q 14.796875 37.75 14.796875 27.984375 
Q 14.796875 18.265625 18.828125 12.890625 
Q 22.859375 7.515625 30.078125 7.515625 
Q 37.359375 7.515625 41.375 12.890625 
Q 45.40625 18.265625 45.40625 27.984375 
z
M 54.390625 6.78125 
Q 54.390625 -7.171875 48.1875 -13.984375 
Q 42 -20.796875 29.203125 -20.796875 
Q 24.46875 -20.796875 20.265625 -20.09375 
Q 16.0625 -19.390625 12.109375 -17.921875 
L 12.109375 -9.1875 
Q 16.0625 -11.328125 19.921875 -12.34375 
Q 23.78125 -13.375 27.78125 -13.375 
Q 36.625 -13.375 41.015625 -8.765625 
Q 45.40625 -4.15625 45.40625 5.171875 
L 45.40625 9.625 
Q 42.625 4.78125 38.28125 2.390625 
Q 33.9375 0 27.875 0 
Q 17.828125 0 11.671875 7.65625 
Q 5.515625 15.328125 5.515625 27.984375 
Q 5.515625 40.671875 11.671875 48.328125 
Q 17.828125 56 27.875 56 
Q 33.9375 56 38.28125 53.609375 
Q 42.625 51.21875 45.40625 46.390625 
L 45.40625 54.6875 
L 54.390625 54.6875 
z
" id="DejaVuSans-67"/>
     </defs>
     <g transform="translate(513.753929 96.890438)scale(0.1 -0.1)">
      <use xlink:href="#DejaVuSans-48"/>
      <use x="75.195312" xlink:href="#DejaVuSans-69"/>
      <use x="102.978516" xlink:href="#DejaVuSans-73"/>
      <use x="155.078125" xlink:href="#DejaVuSans-74"/>
      <use x="194.287109" xlink:href="#DejaVuSans-6f"/>
      <use x="255.46875" xlink:href="#DejaVuSans-67"/>
      <use x="318.945312" xlink:href="#DejaVuSans-72"/>
      <use x="360.058594" xlink:href="#DejaVuSans-61"/>
      <use x="421.337891" xlink:href="#DejaVuSans-6d"/>
     </g>
    </g>
   </g>
   <g id="matplotlib.axis_4">
    <g id="ytick_4">
     <g id="line2d_32">
      <g>
       <use style="stroke:#000000;stroke-width:0.8;" x="502.662857" xlink:href="#m0207468465" y="81.792"/>
      </g>
     </g>
    </g>
    <g id="ytick_5">
     <g id="line2d_33">
      <g>
       <use style="stroke:#000000;stroke-width:0.8;" x="502.662857" xlink:href="#m0207468465" y="47.808"/>
      </g>
     </g>
    </g>
    <g id="ytick_6">
     <g id="line2d_34">
      <g>
       <use style="stroke:#000000;stroke-width:0.8;" x="502.662857" xlink:href="#m0207468465" y="13.824"/>
      </g>
     </g>
    </g>
   </g>
   <g id="line2d_35">
    <path clip-path="url(#p72b3c5897a)" d="M 502.662857 47.808 
L 576.72 47.808 
" style="fill:none;stroke:#000000;stroke-linecap:square;stroke-width:0.5;"/>
   </g>
   <g id="patch_54">
    <path d="M 502.662857 81.792 
L 502.662857 13.824 
" style="fill:none;stroke:#000000;stroke-linecap:square;stroke-linejoin:miter;stroke-width:0.8;"/>
   </g>
   <g id="patch_55">
    <path d="M 576.72 81.792 
L 576.72 13.824 
" style="fill:none;stroke:#000000;stroke-linecap:square;stroke-linejoin:miter;stroke-width:0.8;"/>
   </g>
   <g id="patch_56">
    <path d="M 502.662857 81.792 
L 576.72 81.792 
" style="fill:none;stroke:#000000;stroke-linecap:square;stroke-linejoin:miter;stroke-width:0.8;"/>
   </g>
   <g id="patch_57">
    <path d="M 502.662857 13.824 
L 576.72 13.824 
" style="fill:none;stroke:#000000;stroke-linecap:square;stroke-linejoin:miter;stroke-width:0.8;"/>
   </g>
   <g id="text_14">
    <!-- R-STDP  -->
    <defs>
     <path d="M 44.390625 34.1875 
Q 47.5625 33.109375 50.5625 29.59375 
Q 53.5625 26.078125 56.59375 19.921875 
L 66.609375 0 
L 56 0 
L 46.6875 18.703125 
Q 43.0625 26.03125 39.671875 28.421875 
Q 36.28125 30.8125 30.421875 30.8125 
L 19.671875 30.8125 
L 19.671875 0 
L 9.8125 0 
L 9.8125 72.90625 
L 32.078125 72.90625 
Q 44.578125 72.90625 50.734375 67.671875 
Q 56.890625 62.453125 56.890625 51.90625 
Q 56.890625 45.015625 53.6875 40.46875 
Q 50.484375 35.9375 44.390625 34.1875 
z
M 19.671875 64.796875 
L 19.671875 38.921875 
L 32.078125 38.921875 
Q 39.203125 38.921875 42.84375 42.21875 
Q 46.484375 45.515625 46.484375 51.90625 
Q 46.484375 58.296875 42.84375 61.546875 
Q 39.203125 64.796875 32.078125 64.796875 
z
" id="DejaVuSans-52"/>
     <path d="M 53.515625 70.515625 
L 53.515625 60.890625 
Q 47.90625 63.578125 42.921875 64.890625 
Q 37.9375 66.21875 33.296875 66.21875 
Q 25.25 66.21875 20.875 63.09375 
Q 16.5 59.96875 16.5 54.203125 
Q 16.5 49.359375 19.40625 46.890625 
Q 22.3125 44.4375 30.421875 42.921875 
L 36.375 41.703125 
Q 47.40625 39.59375 52.65625 34.296875 
Q 57.90625 29 57.90625 20.125 
Q 57.90625 9.515625 50.796875 4.046875 
Q 43.703125 -1.421875 29.984375 -1.421875 
Q 24.8125 -1.421875 18.96875 -0.25 
Q 13.140625 0.921875 6.890625 3.21875 
L 6.890625 13.375 
Q 12.890625 10.015625 18.65625 8.296875 
Q 24.421875 6.59375 29.984375 6.59375 
Q 38.421875 6.59375 43.015625 9.90625 
Q 47.609375 13.234375 47.609375 19.390625 
Q 47.609375 24.75 44.3125 27.78125 
Q 41.015625 30.8125 33.5 32.328125 
L 27.484375 33.5 
Q 16.453125 35.6875 11.515625 40.375 
Q 6.59375 45.0625 6.59375 53.421875 
Q 6.59375 63.09375 13.40625 68.65625 
Q 20.21875 74.21875 32.171875 74.21875 
Q 37.3125 74.21875 42.625 73.28125 
Q 47.953125 72.359375 53.515625 70.515625 
z
" id="DejaVuSans-53"/>
     <path d="M -0.296875 72.90625 
L 61.375 72.90625 
L 61.375 64.59375 
L 35.5 64.59375 
L 35.5 0 
L 25.59375 0 
L 25.59375 64.59375 
L -0.296875 64.59375 
z
" id="DejaVuSans-54"/>
    </defs>
    <g transform="translate(584.125714 39.802775)scale(0.1 -0.1)">
     <use xlink:href="#DejaVuSans-52"/>
     <use x="69.419922" xlink:href="#DejaVuSans-2d"/>
     <use x="105.503906" xlink:href="#DejaVuSans-53"/>
     <use x="168.980469" xlink:href="#DejaVuSans-54"/>
     <use x="230.064453" xlink:href="#DejaVuSans-44"/>
     <use x="307.066406" xlink:href="#DejaVuSans-50"/>
     <use x="367.369141" xlink:href="#DejaVuSans-20"/>
    </g>
    <!-- e = 0.023 -->
    <defs>
     <path d="M 10.59375 45.40625 
L 73.1875 45.40625 
L 73.1875 37.203125 
L 10.59375 37.203125 
z
M 10.59375 25.484375 
L 73.1875 25.484375 
L 73.1875 17.1875 
L 10.59375 17.1875 
z
" id="DejaVuSans-3d"/>
    </defs>
    <g transform="translate(584.125714 51.000588)scale(0.1 -0.1)">
     <use xlink:href="#DejaVuSans-65"/>
     <use x="61.523438" xlink:href="#DejaVuSans-20"/>
     <use x="93.310547" xlink:href="#DejaVuSans-3d"/>
     <use x="177.099609" xlink:href="#DejaVuSans-20"/>
     <use x="208.886719" xlink:href="#DejaVuSans-30"/>
     <use x="272.509766" xlink:href="#DejaVuSans-2e"/>
     <use x="304.296875" xlink:href="#DejaVuSans-30"/>
     <use x="367.919922" xlink:href="#DejaVuSans-32"/>
     <use x="431.542969" xlink:href="#DejaVuSans-33"/>
    </g>
    <!-- MSE =0.036 -->
    <defs>
     <path d="M 9.8125 72.90625 
L 24.515625 72.90625 
L 43.109375 23.296875 
L 61.8125 72.90625 
L 76.515625 72.90625 
L 76.515625 0 
L 66.890625 0 
L 66.890625 64.015625 
L 48.09375 14.015625 
L 38.1875 14.015625 
L 19.390625 64.015625 
L 19.390625 0 
L 9.8125 0 
z
" id="DejaVuSans-4d"/>
     <path d="M 9.8125 72.90625 
L 55.90625 72.90625 
L 55.90625 64.59375 
L 19.671875 64.59375 
L 19.671875 43.015625 
L 54.390625 43.015625 
L 54.390625 34.71875 
L 19.671875 34.71875 
L 19.671875 8.296875 
L 56.78125 8.296875 
L 56.78125 0 
L 9.8125 0 
z
" id="DejaVuSans-45"/>
     <path d="M 33.015625 40.375 
Q 26.375 40.375 22.484375 35.828125 
Q 18.609375 31.296875 18.609375 23.390625 
Q 18.609375 15.53125 22.484375 10.953125 
Q 26.375 6.390625 33.015625 6.390625 
Q 39.65625 6.390625 43.53125 10.953125 
Q 47.40625 15.53125 47.40625 23.390625 
Q 47.40625 31.296875 43.53125 35.828125 
Q 39.65625 40.375 33.015625 40.375 
z
M 52.59375 71.296875 
L 52.59375 62.3125 
Q 48.875 64.0625 45.09375 64.984375 
Q 41.3125 65.921875 37.59375 65.921875 
Q 27.828125 65.921875 22.671875 59.328125 
Q 17.53125 52.734375 16.796875 39.40625 
Q 19.671875 43.65625 24.015625 45.921875 
Q 28.375 48.1875 33.59375 48.1875 
Q 44.578125 48.1875 50.953125 41.515625 
Q 57.328125 34.859375 57.328125 23.390625 
Q 57.328125 12.15625 50.6875 5.359375 
Q 44.046875 -1.421875 33.015625 -1.421875 
Q 20.359375 -1.421875 13.671875 8.265625 
Q 6.984375 17.96875 6.984375 36.375 
Q 6.984375 53.65625 15.1875 63.9375 
Q 23.390625 74.21875 37.203125 74.21875 
Q 40.921875 74.21875 44.703125 73.484375 
Q 48.484375 72.75 52.59375 71.296875 
z
" id="DejaVuSans-36"/>
    </defs>
    <g transform="translate(584.125714 62.1984)scale(0.1 -0.1)">
     <use xlink:href="#DejaVuSans-4d"/>
     <use x="86.279297" xlink:href="#DejaVuSans-53"/>
     <use x="149.755859" xlink:href="#DejaVuSans-45"/>
     <use x="212.939453" xlink:href="#DejaVuSans-20"/>
     <use x="244.726562" xlink:href="#DejaVuSans-3d"/>
     <use x="328.515625" xlink:href="#DejaVuSans-30"/>
     <use x="392.138672" xlink:href="#DejaVuSans-2e"/>
     <use x="423.925781" xlink:href="#DejaVuSans-30"/>
     <use x="487.548828" xlink:href="#DejaVuSans-33"/>
     <use x="551.171875" xlink:href="#DejaVuSans-36"/>
    </g>
   </g>
  </g>
 </g>
 <defs>
  <clipPath id="p1e5f50853d">
   <rect height="67.968" width="444.342857" x="58.32" y="13.824"/>
  </clipPath>
  <clipPath id="p72b3c5897a">
   <rect height="67.968" width="74.057143" x="502.662857" y="13.824"/>
  </clipPath>
 </defs>
</svg>
