<?xml version="1.0" encoding="utf-8" standalone="no"?>
<!DOCTYPE svg PUBLIC "-//W3C//DTD SVG 1.1//EN"
  "http://www.w3.org/Graphics/SVG/1.1/DTD/svg11.dtd">
<!-- Created with matplotlib (http://matplotlib.org/) -->
<svg height="115.2pt" version="1.1" viewBox="0 0 648 115.2" width="648pt" xmlns="http://www.w3.org/2000/svg" xmlns:xlink="http://www.w3.org/1999/xlink">
 <defs>
  <style type="text/css">
*{stroke-linecap:butt;stroke-linejoin:round;}
  </style>
 </defs>
 <g id="figure_1">
  <g id="patch_1">
   <path d="M 0 115.2 
L 648 115.2 
L 648 0 
L 0 0 
z
" style="fill:#ffffff;"/>
  </g>
  <g id="axes_1">
   <g id="patch_2">
    <path d="M 58.32 81.792 
L 502.662857 81.792 
L 502.662857 13.824 
L 58.32 13.824 
z
" style="fill:#ffffff;"/>
   </g>
   <g id="matplotlib.axis_1">
    <g id="xtick_1">
     <g id="line2d_1">
      <defs>
       <path d="M 0 0 
L 0 -3.5 
" id="m82288853b2" style="stroke:#000000;stroke-width:0.8;"/>
      </defs>
      <g>
       <use style="stroke:#000000;stroke-width:0.8;" x="58.32" xlink:href="#m82288853b2" y="81.792"/>
      </g>
     </g>
     <g id="line2d_2">
      <defs>
       <path d="M 0 0 
L 0 3.5 
" id="m3bb06253dd" style="stroke:#000000;stroke-width:0.8;"/>
      </defs>
      <g>
       <use style="stroke:#000000;stroke-width:0.8;" x="58.32" xlink:href="#m3bb06253dd" y="13.824"/>
      </g>
     </g>
     <g id="text_1">
      <!-- 0 -->
      <defs>
       <path d="M 31.78125 66.40625 
Q 24.171875 66.40625 20.328125 58.90625 
Q 16.5 51.421875 16.5 36.375 
Q 16.5 21.390625 20.328125 13.890625 
Q 24.171875 6.390625 31.78125 6.390625 
Q 39.453125 6.390625 43.28125 13.890625 
Q 47.125 21.390625 47.125 36.375 
Q 47.125 51.421875 43.28125 58.90625 
Q 39.453125 66.40625 31.78125 66.40625 
z
M 31.78125 74.21875 
Q 44.046875 74.21875 50.515625 64.515625 
Q 56.984375 54.828125 56.984375 36.375 
Q 56.984375 17.96875 50.515625 8.265625 
Q 44.046875 -1.421875 31.78125 -1.421875 
Q 19.53125 -1.421875 13.0625 8.265625 
Q 6.59375 17.96875 6.59375 36.375 
Q 6.59375 54.828125 13.0625 64.515625 
Q 19.53125 74.21875 31.78125 74.21875 
z
" id="DejaVuSans-30"/>
      </defs>
      <g transform="translate(55.13875 92.890438)scale(0.1 -0.1)">
       <use xlink:href="#DejaVuSans-30"/>
      </g>
     </g>
    </g>
    <g id="xtick_2">
     <g id="line2d_3">
      <g>
       <use style="stroke:#000000;stroke-width:0.8;" x="126.54112" xlink:href="#m82288853b2" y="81.792"/>
      </g>
     </g>
     <g id="line2d_4">
      <g>
       <use style="stroke:#000000;stroke-width:0.8;" x="126.54112" xlink:href="#m3bb06253dd" y="13.824"/>
      </g>
     </g>
     <g id="text_2">
      <!-- 5 -->
      <defs>
       <path d="M 10.796875 72.90625 
L 49.515625 72.90625 
L 49.515625 64.59375 
L 19.828125 64.59375 
L 19.828125 46.734375 
Q 21.96875 47.46875 24.109375 47.828125 
Q 26.265625 48.1875 28.421875 48.1875 
Q 40.625 48.1875 47.75 41.5 
Q 54.890625 34.8125 54.890625 23.390625 
Q 54.890625 11.625 47.5625 5.09375 
Q 40.234375 -1.421875 26.90625 -1.421875 
Q 22.3125 -1.421875 17.546875 -0.640625 
Q 12.796875 0.140625 7.71875 1.703125 
L 7.71875 11.625 
Q 12.109375 9.234375 16.796875 8.0625 
Q 21.484375 6.890625 26.703125 6.890625 
Q 35.15625 6.890625 40.078125 11.328125 
Q 45.015625 15.765625 45.015625 23.390625 
Q 45.015625 31 40.078125 35.4375 
Q 35.15625 39.890625 26.703125 39.890625 
Q 22.75 39.890625 18.8125 39.015625 
Q 14.890625 38.140625 10.796875 36.28125 
z
" id="DejaVuSans-35"/>
      </defs>
      <g transform="translate(123.35987 92.890438)scale(0.1 -0.1)">
       <use xlink:href="#DejaVuSans-35"/>
      </g>
     </g>
    </g>
    <g id="xtick_3">
     <g id="line2d_5">
      <g>
       <use style="stroke:#000000;stroke-width:0.8;" x="194.76224" xlink:href="#m82288853b2" y="81.792"/>
      </g>
     </g>
     <g id="line2d_6">
      <g>
       <use style="stroke:#000000;stroke-width:0.8;" x="194.76224" xlink:href="#m3bb06253dd" y="13.824"/>
      </g>
     </g>
     <g id="text_3">
      <!-- 10 -->
      <defs>
       <path d="M 12.40625 8.296875 
L 28.515625 8.296875 
L 28.515625 63.921875 
L 10.984375 60.40625 
L 10.984375 69.390625 
L 28.421875 72.90625 
L 38.28125 72.90625 
L 38.28125 8.296875 
L 54.390625 8.296875 
L 54.390625 0 
L 12.40625 0 
z
" id="DejaVuSans-31"/>
      </defs>
      <g transform="translate(188.39974 92.890438)scale(0.1 -0.1)">
       <use xlink:href="#DejaVuSans-31"/>
       <use x="63.623047" xlink:href="#DejaVuSans-30"/>
      </g>
     </g>
    </g>
    <g id="xtick_4">
     <g id="line2d_7">
      <g>
       <use style="stroke:#000000;stroke-width:0.8;" x="262.983361" xlink:href="#m82288853b2" y="81.792"/>
      </g>
     </g>
     <g id="line2d_8">
      <g>
       <use style="stroke:#000000;stroke-width:0.8;" x="262.983361" xlink:href="#m3bb06253dd" y="13.824"/>
      </g>
     </g>
     <g id="text_4">
      <!-- 15 -->
      <g transform="translate(256.620861 92.890438)scale(0.1 -0.1)">
       <use xlink:href="#DejaVuSans-31"/>
       <use x="63.623047" xlink:href="#DejaVuSans-35"/>
      </g>
     </g>
    </g>
    <g id="xtick_5">
     <g id="line2d_9">
      <g>
       <use style="stroke:#000000;stroke-width:0.8;" x="331.204481" xlink:href="#m82288853b2" y="81.792"/>
      </g>
     </g>
     <g id="line2d_10">
      <g>
       <use style="stroke:#000000;stroke-width:0.8;" x="331.204481" xlink:href="#m3bb06253dd" y="13.824"/>
      </g>
     </g>
     <g id="text_5">
      <!-- 20 -->
      <defs>
       <path d="M 19.1875 8.296875 
L 53.609375 8.296875 
L 53.609375 0 
L 7.328125 0 
L 7.328125 8.296875 
Q 12.9375 14.109375 22.625 23.890625 
Q 32.328125 33.6875 34.8125 36.53125 
Q 39.546875 41.84375 41.421875 45.53125 
Q 43.3125 49.21875 43.3125 52.78125 
Q 43.3125 58.59375 39.234375 62.25 
Q 35.15625 65.921875 28.609375 65.921875 
Q 23.96875 65.921875 18.8125 64.3125 
Q 13.671875 62.703125 7.8125 59.421875 
L 7.8125 69.390625 
Q 13.765625 71.78125 18.9375 73 
Q 24.125 74.21875 28.421875 74.21875 
Q 39.75 74.21875 46.484375 68.546875 
Q 53.21875 62.890625 53.21875 53.421875 
Q 53.21875 48.921875 51.53125 44.890625 
Q 49.859375 40.875 45.40625 35.40625 
Q 44.1875 33.984375 37.640625 27.21875 
Q 31.109375 20.453125 19.1875 8.296875 
z
" id="DejaVuSans-32"/>
      </defs>
      <g transform="translate(324.841981 92.890438)scale(0.1 -0.1)">
       <use xlink:href="#DejaVuSans-32"/>
       <use x="63.623047" xlink:href="#DejaVuSans-30"/>
      </g>
     </g>
    </g>
    <g id="xtick_6">
     <g id="line2d_11">
      <g>
       <use style="stroke:#000000;stroke-width:0.8;" x="399.425601" xlink:href="#m82288853b2" y="81.792"/>
      </g>
     </g>
     <g id="line2d_12">
      <g>
       <use style="stroke:#000000;stroke-width:0.8;" x="399.425601" xlink:href="#m3bb06253dd" y="13.824"/>
      </g>
     </g>
     <g id="text_6">
      <!-- 25 -->
      <g transform="translate(393.063101 92.890438)scale(0.1 -0.1)">
       <use xlink:href="#DejaVuSans-32"/>
       <use x="63.623047" xlink:href="#DejaVuSans-35"/>
      </g>
     </g>
    </g>
    <g id="xtick_7">
     <g id="line2d_13">
      <g>
       <use style="stroke:#000000;stroke-width:0.8;" x="467.646721" xlink:href="#m82288853b2" y="81.792"/>
      </g>
     </g>
     <g id="line2d_14">
      <g>
       <use style="stroke:#000000;stroke-width:0.8;" x="467.646721" xlink:href="#m3bb06253dd" y="13.824"/>
      </g>
     </g>
     <g id="text_7">
      <!-- 30 -->
      <defs>
       <path d="M 40.578125 39.3125 
Q 47.65625 37.796875 51.625 33 
Q 55.609375 28.21875 55.609375 21.1875 
Q 55.609375 10.40625 48.1875 4.484375 
Q 40.765625 -1.421875 27.09375 -1.421875 
Q 22.515625 -1.421875 17.65625 -0.515625 
Q 12.796875 0.390625 7.625 2.203125 
L 7.625 11.71875 
Q 11.71875 9.328125 16.59375 8.109375 
Q 21.484375 6.890625 26.8125 6.890625 
Q 36.078125 6.890625 40.9375 10.546875 
Q 45.796875 14.203125 45.796875 21.1875 
Q 45.796875 27.640625 41.28125 31.265625 
Q 36.765625 34.90625 28.71875 34.90625 
L 20.21875 34.90625 
L 20.21875 43.015625 
L 29.109375 43.015625 
Q 36.375 43.015625 40.234375 45.921875 
Q 44.09375 48.828125 44.09375 54.296875 
Q 44.09375 59.90625 40.109375 62.90625 
Q 36.140625 65.921875 28.71875 65.921875 
Q 24.65625 65.921875 20.015625 65.03125 
Q 15.375 64.15625 9.8125 62.3125 
L 9.8125 71.09375 
Q 15.4375 72.65625 20.34375 73.4375 
Q 25.25 74.21875 29.59375 74.21875 
Q 40.828125 74.21875 47.359375 69.109375 
Q 53.90625 64.015625 53.90625 55.328125 
Q 53.90625 49.265625 50.4375 45.09375 
Q 46.96875 40.921875 40.578125 39.3125 
z
" id="DejaVuSans-33"/>
      </defs>
      <g transform="translate(461.284221 92.890438)scale(0.1 -0.1)">
       <use xlink:href="#DejaVuSans-33"/>
       <use x="63.623047" xlink:href="#DejaVuSans-30"/>
      </g>
     </g>
    </g>
    <g id="text_8">
     <!-- Position [m] -->
     <defs>
      <path d="M 19.671875 64.796875 
L 19.671875 37.40625 
L 32.078125 37.40625 
Q 38.96875 37.40625 42.71875 40.96875 
Q 46.484375 44.53125 46.484375 51.125 
Q 46.484375 57.671875 42.71875 61.234375 
Q 38.96875 64.796875 32.078125 64.796875 
z
M 9.8125 72.90625 
L 32.078125 72.90625 
Q 44.34375 72.90625 50.609375 67.359375 
Q 56.890625 61.8125 56.890625 51.125 
Q 56.890625 40.328125 50.609375 34.8125 
Q 44.34375 29.296875 32.078125 29.296875 
L 19.671875 29.296875 
L 19.671875 0 
L 9.8125 0 
z
" id="DejaVuSans-50"/>
      <path d="M 30.609375 48.390625 
Q 23.390625 48.390625 19.1875 42.75 
Q 14.984375 37.109375 14.984375 27.296875 
Q 14.984375 17.484375 19.15625 11.84375 
Q 23.34375 6.203125 30.609375 6.203125 
Q 37.796875 6.203125 41.984375 11.859375 
Q 46.1875 17.53125 46.1875 27.296875 
Q 46.1875 37.015625 41.984375 42.703125 
Q 37.796875 48.390625 30.609375 48.390625 
z
M 30.609375 56 
Q 42.328125 56 49.015625 48.375 
Q 55.71875 40.765625 55.71875 27.296875 
Q 55.71875 13.875 49.015625 6.21875 
Q 42.328125 -1.421875 30.609375 -1.421875 
Q 18.84375 -1.421875 12.171875 6.21875 
Q 5.515625 13.875 5.515625 27.296875 
Q 5.515625 40.765625 12.171875 48.375 
Q 18.84375 56 30.609375 56 
z
" id="DejaVuSans-6f"/>
      <path d="M 44.28125 53.078125 
L 44.28125 44.578125 
Q 40.484375 46.53125 36.375 47.5 
Q 32.28125 48.484375 27.875 48.484375 
Q 21.1875 48.484375 17.84375 46.4375 
Q 14.5 44.390625 14.5 40.28125 
Q 14.5 37.15625 16.890625 35.375 
Q 19.28125 33.59375 26.515625 31.984375 
L 29.59375 31.296875 
Q 39.15625 29.25 43.1875 25.515625 
Q 47.21875 21.78125 47.21875 15.09375 
Q 47.21875 7.46875 41.1875 3.015625 
Q 35.15625 -1.421875 24.609375 -1.421875 
Q 20.21875 -1.421875 15.453125 -0.5625 
Q 10.6875 0.296875 5.421875 2 
L 5.421875 11.28125 
Q 10.40625 8.6875 15.234375 7.390625 
Q 20.0625 6.109375 24.8125 6.109375 
Q 31.15625 6.109375 34.5625 8.28125 
Q 37.984375 10.453125 37.984375 14.40625 
Q 37.984375 18.0625 35.515625 20.015625 
Q 33.0625 21.96875 24.703125 23.78125 
L 21.578125 24.515625 
Q 13.234375 26.265625 9.515625 29.90625 
Q 5.8125 33.546875 5.8125 39.890625 
Q 5.8125 47.609375 11.28125 51.796875 
Q 16.75 56 26.8125 56 
Q 31.78125 56 36.171875 55.265625 
Q 40.578125 54.546875 44.28125 53.078125 
z
" id="DejaVuSans-73"/>
      <path d="M 9.421875 54.6875 
L 18.40625 54.6875 
L 18.40625 0 
L 9.421875 0 
z
M 9.421875 75.984375 
L 18.40625 75.984375 
L 18.40625 64.59375 
L 9.421875 64.59375 
z
" id="DejaVuSans-69"/>
      <path d="M 18.3125 70.21875 
L 18.3125 54.6875 
L 36.8125 54.6875 
L 36.8125 47.703125 
L 18.3125 47.703125 
L 18.3125 18.015625 
Q 18.3125 11.328125 20.140625 9.421875 
Q 21.96875 7.515625 27.59375 7.515625 
L 36.8125 7.515625 
L 36.8125 0 
L 27.59375 0 
Q 17.1875 0 13.234375 3.875 
Q 9.28125 7.765625 9.28125 18.015625 
L 9.28125 47.703125 
L 2.6875 47.703125 
L 2.6875 54.6875 
L 9.28125 54.6875 
L 9.28125 70.21875 
z
" id="DejaVuSans-74"/>
      <path d="M 54.890625 33.015625 
L 54.890625 0 
L 45.90625 0 
L 45.90625 32.71875 
Q 45.90625 40.484375 42.875 44.328125 
Q 39.84375 48.1875 33.796875 48.1875 
Q 26.515625 48.1875 22.3125 43.546875 
Q 18.109375 38.921875 18.109375 30.90625 
L 18.109375 0 
L 9.078125 0 
L 9.078125 54.6875 
L 18.109375 54.6875 
L 18.109375 46.1875 
Q 21.34375 51.125 25.703125 53.5625 
Q 30.078125 56 35.796875 56 
Q 45.21875 56 50.046875 50.171875 
Q 54.890625 44.34375 54.890625 33.015625 
z
" id="DejaVuSans-6e"/>
      <path id="DejaVuSans-20"/>
      <path d="M 8.59375 75.984375 
L 29.296875 75.984375 
L 29.296875 69 
L 17.578125 69 
L 17.578125 -6.203125 
L 29.296875 -6.203125 
L 29.296875 -13.1875 
L 8.59375 -13.1875 
z
" id="DejaVuSans-5b"/>
      <path d="M 52 44.1875 
Q 55.375 50.25 60.0625 53.125 
Q 64.75 56 71.09375 56 
Q 79.640625 56 84.28125 50.015625 
Q 88.921875 44.046875 88.921875 33.015625 
L 88.921875 0 
L 79.890625 0 
L 79.890625 32.71875 
Q 79.890625 40.578125 77.09375 44.375 
Q 74.3125 48.1875 68.609375 48.1875 
Q 61.625 48.1875 57.5625 43.546875 
Q 53.515625 38.921875 53.515625 30.90625 
L 53.515625 0 
L 44.484375 0 
L 44.484375 32.71875 
Q 44.484375 40.625 41.703125 44.40625 
Q 38.921875 48.1875 33.109375 48.1875 
Q 26.21875 48.1875 22.15625 43.53125 
Q 18.109375 38.875 18.109375 30.90625 
L 18.109375 0 
L 9.078125 0 
L 9.078125 54.6875 
L 18.109375 54.6875 
L 18.109375 46.1875 
Q 21.1875 51.21875 25.484375 53.609375 
Q 29.78125 56 35.6875 56 
Q 41.65625 56 45.828125 52.96875 
Q 50 49.953125 52 44.1875 
z
" id="DejaVuSans-6d"/>
      <path d="M 30.421875 75.984375 
L 30.421875 -13.1875 
L 9.71875 -13.1875 
L 9.71875 -6.203125 
L 21.390625 -6.203125 
L 21.390625 69 
L 9.71875 69 
L 9.71875 75.984375 
z
" id="DejaVuSans-5d"/>
     </defs>
     <g transform="translate(250.487522 106.568563)scale(0.1 -0.1)">
      <use xlink:href="#DejaVuSans-50"/>
      <use x="60.255859" xlink:href="#DejaVuSans-6f"/>
      <use x="121.4375" xlink:href="#DejaVuSans-73"/>
      <use x="173.537109" xlink:href="#DejaVuSans-69"/>
      <use x="201.320312" xlink:href="#DejaVuSans-74"/>
      <use x="240.529297" xlink:href="#DejaVuSans-69"/>
      <use x="268.3125" xlink:href="#DejaVuSans-6f"/>
      <use x="329.494141" xlink:href="#DejaVuSans-6e"/>
      <use x="392.873047" xlink:href="#DejaVuSans-20"/>
      <use x="424.660156" xlink:href="#DejaVuSans-5b"/>
      <use x="463.673828" xlink:href="#DejaVuSans-6d"/>
      <use x="561.085938" xlink:href="#DejaVuSans-5d"/>
     </g>
    </g>
   </g>
   <g id="matplotlib.axis_2">
    <g id="ytick_1">
     <g id="line2d_15">
      <defs>
       <path d="M 0 0 
L 3.5 0 
" id="m9a61c39816" style="stroke:#000000;stroke-width:0.8;"/>
      </defs>
      <g>
       <use style="stroke:#000000;stroke-width:0.8;" x="58.32" xlink:href="#m9a61c39816" y="81.792"/>
      </g>
     </g>
     <g id="line2d_16">
      <defs>
       <path d="M 0 0 
L -3.5 0 
" id="m68703a458f" style="stroke:#000000;stroke-width:0.8;"/>
      </defs>
      <g>
       <use style="stroke:#000000;stroke-width:0.8;" x="502.662857" xlink:href="#m68703a458f" y="81.792"/>
      </g>
     </g>
     <g id="text_9">
      <!-- −0.2 -->
      <defs>
       <path d="M 10.59375 35.5 
L 73.1875 35.5 
L 73.1875 27.203125 
L 10.59375 27.203125 
z
" id="DejaVuSans-2212"/>
       <path d="M 10.6875 12.40625 
L 21 12.40625 
L 21 0 
L 10.6875 0 
z
" id="DejaVuSans-2e"/>
      </defs>
      <g transform="translate(30.537187 85.591219)scale(0.1 -0.1)">
       <use xlink:href="#DejaVuSans-2212"/>
       <use x="83.789062" xlink:href="#DejaVuSans-30"/>
       <use x="147.412109" xlink:href="#DejaVuSans-2e"/>
       <use x="179.199219" xlink:href="#DejaVuSans-32"/>
      </g>
     </g>
    </g>
    <g id="ytick_2">
     <g id="line2d_17">
      <g>
       <use style="stroke:#000000;stroke-width:0.8;" x="58.32" xlink:href="#m9a61c39816" y="47.808"/>
      </g>
     </g>
     <g id="line2d_18">
      <g>
       <use style="stroke:#000000;stroke-width:0.8;" x="502.662857" xlink:href="#m68703a458f" y="47.808"/>
      </g>
     </g>
     <g id="text_10">
      <!-- 0.0 -->
      <g transform="translate(38.916875 51.607219)scale(0.1 -0.1)">
       <use xlink:href="#DejaVuSans-30"/>
       <use x="63.623047" xlink:href="#DejaVuSans-2e"/>
       <use x="95.410156" xlink:href="#DejaVuSans-30"/>
      </g>
     </g>
    </g>
    <g id="ytick_3">
     <g id="line2d_19">
      <g>
       <use style="stroke:#000000;stroke-width:0.8;" x="58.32" xlink:href="#m9a61c39816" y="13.824"/>
      </g>
     </g>
     <g id="line2d_20">
      <g>
       <use style="stroke:#000000;stroke-width:0.8;" x="502.662857" xlink:href="#m68703a458f" y="13.824"/>
      </g>
     </g>
     <g id="text_11">
      <!-- 0.2 -->
      <g transform="translate(38.916875 17.623219)scale(0.1 -0.1)">
       <use xlink:href="#DejaVuSans-30"/>
       <use x="63.623047" xlink:href="#DejaVuSans-2e"/>
       <use x="95.410156" xlink:href="#DejaVuSans-32"/>
      </g>
     </g>
    </g>
    <g id="text_12">
     <!-- Distance to -->
     <defs>
      <path d="M 19.671875 64.796875 
L 19.671875 8.109375 
L 31.59375 8.109375 
Q 46.6875 8.109375 53.6875 14.9375 
Q 60.6875 21.78125 60.6875 36.53125 
Q 60.6875 51.171875 53.6875 57.984375 
Q 46.6875 64.796875 31.59375 64.796875 
z
M 9.8125 72.90625 
L 30.078125 72.90625 
Q 51.265625 72.90625 61.171875 64.09375 
Q 71.09375 55.28125 71.09375 36.53125 
Q 71.09375 17.671875 61.125 8.828125 
Q 51.171875 0 30.078125 0 
L 9.8125 0 
z
" id="DejaVuSans-44"/>
      <path d="M 34.28125 27.484375 
Q 23.390625 27.484375 19.1875 25 
Q 14.984375 22.515625 14.984375 16.5 
Q 14.984375 11.71875 18.140625 8.90625 
Q 21.296875 6.109375 26.703125 6.109375 
Q 34.1875 6.109375 38.703125 11.40625 
Q 43.21875 16.703125 43.21875 25.484375 
L 43.21875 27.484375 
z
M 52.203125 31.203125 
L 52.203125 0 
L 43.21875 0 
L 43.21875 8.296875 
Q 40.140625 3.328125 35.546875 0.953125 
Q 30.953125 -1.421875 24.3125 -1.421875 
Q 15.921875 -1.421875 10.953125 3.296875 
Q 6 8.015625 6 15.921875 
Q 6 25.140625 12.171875 29.828125 
Q 18.359375 34.515625 30.609375 34.515625 
L 43.21875 34.515625 
L 43.21875 35.40625 
Q 43.21875 41.609375 39.140625 45 
Q 35.0625 48.390625 27.6875 48.390625 
Q 23 48.390625 18.546875 47.265625 
Q 14.109375 46.140625 10.015625 43.890625 
L 10.015625 52.203125 
Q 14.9375 54.109375 19.578125 55.046875 
Q 24.21875 56 28.609375 56 
Q 40.484375 56 46.34375 49.84375 
Q 52.203125 43.703125 52.203125 31.203125 
z
" id="DejaVuSans-61"/>
      <path d="M 48.78125 52.59375 
L 48.78125 44.1875 
Q 44.96875 46.296875 41.140625 47.34375 
Q 37.3125 48.390625 33.40625 48.390625 
Q 24.65625 48.390625 19.8125 42.84375 
Q 14.984375 37.3125 14.984375 27.296875 
Q 14.984375 17.28125 19.8125 11.734375 
Q 24.65625 6.203125 33.40625 6.203125 
Q 37.3125 6.203125 41.140625 7.25 
Q 44.96875 8.296875 48.78125 10.40625 
L 48.78125 2.09375 
Q 45.015625 0.34375 40.984375 -0.53125 
Q 36.96875 -1.421875 32.421875 -1.421875 
Q 20.0625 -1.421875 12.78125 6.34375 
Q 5.515625 14.109375 5.515625 27.296875 
Q 5.515625 40.671875 12.859375 48.328125 
Q 20.21875 56 33.015625 56 
Q 37.15625 56 41.109375 55.140625 
Q 45.0625 54.296875 48.78125 52.59375 
z
" id="DejaVuSans-63"/>
      <path d="M 56.203125 29.59375 
L 56.203125 25.203125 
L 14.890625 25.203125 
Q 15.484375 15.921875 20.484375 11.0625 
Q 25.484375 6.203125 34.421875 6.203125 
Q 39.59375 6.203125 44.453125 7.46875 
Q 49.3125 8.734375 54.109375 11.28125 
L 54.109375 2.78125 
Q 49.265625 0.734375 44.1875 -0.34375 
Q 39.109375 -1.421875 33.890625 -1.421875 
Q 20.796875 -1.421875 13.15625 6.1875 
Q 5.515625 13.8125 5.515625 26.8125 
Q 5.515625 40.234375 12.765625 48.109375 
Q 20.015625 56 32.328125 56 
Q 43.359375 56 49.78125 48.890625 
Q 56.203125 41.796875 56.203125 29.59375 
z
M 47.21875 32.234375 
Q 47.125 39.59375 43.09375 43.984375 
Q 39.0625 48.390625 32.421875 48.390625 
Q 24.90625 48.390625 20.390625 44.140625 
Q 15.875 39.890625 15.1875 32.171875 
z
" id="DejaVuSans-65"/>
     </defs>
     <g transform="translate(13.259687 76.279094)rotate(-90)scale(0.1 -0.1)">
      <use xlink:href="#DejaVuSans-44"/>
      <use x="77.001953" xlink:href="#DejaVuSans-69"/>
      <use x="104.785156" xlink:href="#DejaVuSans-73"/>
      <use x="156.884766" xlink:href="#DejaVuSans-74"/>
      <use x="196.09375" xlink:href="#DejaVuSans-61"/>
      <use x="257.373047" xlink:href="#DejaVuSans-6e"/>
      <use x="320.751953" xlink:href="#DejaVuSans-63"/>
      <use x="375.732422" xlink:href="#DejaVuSans-65"/>
      <use x="437.255859" xlink:href="#DejaVuSans-20"/>
      <use x="469.042969" xlink:href="#DejaVuSans-74"/>
      <use x="508.251953" xlink:href="#DejaVuSans-6f"/>
     </g>
     <!-- Lane-Center [m] -->
     <defs>
      <path d="M 9.8125 72.90625 
L 19.671875 72.90625 
L 19.671875 8.296875 
L 55.171875 8.296875 
L 55.171875 0 
L 9.8125 0 
z
" id="DejaVuSans-4c"/>
      <path d="M 4.890625 31.390625 
L 31.203125 31.390625 
L 31.203125 23.390625 
L 4.890625 23.390625 
z
" id="DejaVuSans-2d"/>
      <path d="M 64.40625 67.28125 
L 64.40625 56.890625 
Q 59.421875 61.53125 53.78125 63.8125 
Q 48.140625 66.109375 41.796875 66.109375 
Q 29.296875 66.109375 22.65625 58.46875 
Q 16.015625 50.828125 16.015625 36.375 
Q 16.015625 21.96875 22.65625 14.328125 
Q 29.296875 6.6875 41.796875 6.6875 
Q 48.140625 6.6875 53.78125 8.984375 
Q 59.421875 11.28125 64.40625 15.921875 
L 64.40625 5.609375 
Q 59.234375 2.09375 53.4375 0.328125 
Q 47.65625 -1.421875 41.21875 -1.421875 
Q 24.65625 -1.421875 15.125 8.703125 
Q 5.609375 18.84375 5.609375 36.375 
Q 5.609375 53.953125 15.125 64.078125 
Q 24.65625 74.21875 41.21875 74.21875 
Q 47.75 74.21875 53.53125 72.484375 
Q 59.328125 70.75 64.40625 67.28125 
z
" id="DejaVuSans-43"/>
      <path d="M 41.109375 46.296875 
Q 39.59375 47.171875 37.8125 47.578125 
Q 36.03125 48 33.890625 48 
Q 26.265625 48 22.1875 43.046875 
Q 18.109375 38.09375 18.109375 28.8125 
L 18.109375 0 
L 9.078125 0 
L 9.078125 54.6875 
L 18.109375 54.6875 
L 18.109375 46.1875 
Q 20.953125 51.171875 25.484375 53.578125 
Q 30.03125 56 36.53125 56 
Q 37.453125 56 38.578125 55.875 
Q 39.703125 55.765625 41.0625 55.515625 
z
" id="DejaVuSans-72"/>
     </defs>
     <g transform="translate(24.4575 88.897063)rotate(-90)scale(0.1 -0.1)">
      <use xlink:href="#DejaVuSans-4c"/>
      <use x="55.712891" xlink:href="#DejaVuSans-61"/>
      <use x="116.992188" xlink:href="#DejaVuSans-6e"/>
      <use x="180.371094" xlink:href="#DejaVuSans-65"/>
      <use x="241.894531" xlink:href="#DejaVuSans-2d"/>
      <use x="277.978516" xlink:href="#DejaVuSans-43"/>
      <use x="347.802734" xlink:href="#DejaVuSans-65"/>
      <use x="409.326172" xlink:href="#DejaVuSans-6e"/>
      <use x="472.705078" xlink:href="#DejaVuSans-74"/>
      <use x="511.914062" xlink:href="#DejaVuSans-65"/>
      <use x="573.4375" xlink:href="#DejaVuSans-72"/>
      <use x="614.550781" xlink:href="#DejaVuSans-20"/>
      <use x="646.337891" xlink:href="#DejaVuSans-5b"/>
      <use x="685.351562" xlink:href="#DejaVuSans-6d"/>
      <use x="782.763672" xlink:href="#DejaVuSans-5d"/>
     </g>
    </g>
   </g>
   <g id="line2d_21">
    <path clip-path="url(#paa7e89172c)" d="M 58.32 47.808 
L 502.662857 47.808 
" style="fill:none;stroke:#000000;stroke-linecap:square;stroke-width:0.5;"/>
   </g>
   <g id="line2d_22">
    <path clip-path="url(#paa7e89172c)" d="M 126.54112 81.792 
L 126.54112 13.824 
" style="fill:none;stroke:#bfbfbf;stroke-dasharray:5.55,2.4;stroke-dashoffset:0;stroke-width:1.5;"/>
   </g>
   <g id="line2d_23">
    <path clip-path="url(#paa7e89172c)" d="M 169.405714 81.792 
L 169.405714 13.824 
" style="fill:none;stroke:#bfbfbf;stroke-dasharray:5.55,2.4;stroke-dashoffset:0;stroke-width:1.5;"/>
   </g>
   <g id="line2d_24">
    <path clip-path="url(#paa7e89172c)" d="M 237.626835 81.792 
L 237.626835 13.824 
" style="fill:none;stroke:#bfbfbf;stroke-dasharray:5.55,2.4;stroke-dashoffset:0;stroke-width:1.5;"/>
   </g>
   <g id="line2d_25">
    <path clip-path="url(#paa7e89172c)" d="M 280.491429 81.792 
L 280.491429 13.824 
" style="fill:none;stroke:#bfbfbf;stroke-dasharray:5.55,2.4;stroke-dashoffset:0;stroke-width:1.5;"/>
   </g>
   <g id="line2d_26">
    <path clip-path="url(#paa7e89172c)" d="M 348.712549 81.792 
L 348.712549 13.824 
" style="fill:none;stroke:#bfbfbf;stroke-dasharray:5.55,2.4;stroke-dashoffset:0;stroke-width:1.5;"/>
   </g>
   <g id="line2d_27">
    <path clip-path="url(#paa7e89172c)" d="M 391.577143 81.792 
L 391.577143 13.824 
" style="fill:none;stroke:#bfbfbf;stroke-dasharray:5.55,2.4;stroke-dashoffset:0;stroke-width:1.5;"/>
   </g>
   <g id="line2d_28">
    <path clip-path="url(#paa7e89172c)" d="M 459.798263 81.792 
L 459.798263 13.824 
" style="fill:none;stroke:#bfbfbf;stroke-dasharray:5.55,2.4;stroke-dashoffset:0;stroke-width:1.5;"/>
   </g>
   <g id="line2d_29">
    <path clip-path="url(#paa7e89172c)" d="M 59.665531 47.790443 
L 59.665079 47.789334 
L 60.869506 47.858519 
L 61.998787 48.213648 
L 63.160512 48.572362 
L 66.244599 49.972702 
L 66.244599 49.972702 
L 67.389466 50.244498 
L 68.157869 50.260095 
L 68.157869 50.260095 
L 68.926701 50.091514 
L 69.674704 49.958523 
L 69.674704 49.958523 
L 70.432841 50.090036 
L 71.569878 50.532195 
L 73.092794 50.825269 
L 73.092794 50.825269 
L 73.841971 50.752682 
L 75.340736 50.376122 
L 76.10126 50.455343 
L 76.10126 50.455343 
L 78.386206 51.14176 
L 79.142576 51.115164 
L 79.905452 50.885146 
L 80.637795 50.499653 
L 81.009168 50.422113 
L 81.009168 50.422113 
L 81.778863 50.560938 
L 83.303002 50.930925 
L 84.47751 50.917039 
L 88.740563 50.438713 
L 90.258644 50.637364 
L 90.258644 50.637364 
L 91.794292 50.38465 
L 92.901275 49.92663 
L 92.901275 49.92663 
L 93.661288 49.938905 
L 94.814509 50.246868 
L 95.938335 50.478557 
L 95.938335 50.478557 
L 96.687718 50.417221 
L 97.856013 49.936535 
L 97.856013 49.936535 
L 99.417569 49.144737 
L 101.34522 48.376871 
L 101.34522 48.376871 
L 102.112078 47.956365 
L 102.112078 47.956365 
L 102.842801 47.461688 
L 103.212646 47.31198 
L 103.97638 47.299077 
L 105.112159 47.299695 
L 107.048704 46.94766 
L 108.548692 46.417357 
L 109.700163 46.614053 
L 112.045765 47.174563 
L 113.998153 47.515503 
L 113.998153 47.515503 
L 117.524412 48.077071 
L 119.074282 47.978688 
L 120.203457 47.685816 
L 120.969664 47.233756 
L 123.673276 45.262109 
L 124.820654 44.767593 
L 125.579744 44.631488 
L 126.717135 44.726759 
L 128.217992 44.904485 
L 130.064217 44.756911 
L 130.064217 44.756911 
L 131.882855 44.716103 
L 132.971007 44.8702 
L 134.476423 45.224875 
L 135.605707 45.28831 
L 138.896269 45.061346 
L 143.34383 45.240075 
L 145.188243 45.225484 
L 147.05385 45.16419 
L 147.05385 45.16419 
L 148.893366 44.768226 
L 148.893366 44.768226 
L 150.723937 44.47192 
L 153.282112 44.311849 
L 155.093696 44.424315 
L 156.185842 44.629385 
L 158.056244 45.08695 
L 159.179798 45.185389 
L 160.297331 45.169859 
L 160.297331 45.169859 
L 162.131332 45.072384 
L 162.890298 45.101413 
L 164.390889 44.835615 
L 167.365199 43.780654 
L 169.529245 42.690513 
L 170.260209 42.667178 
L 171.000385 42.94817 
L 171.000385 42.94817 
L 171.756508 43.508858 
L 172.520819 44.276967 
L 174.685942 46.836682 
L 175.444853 47.04216 
L 176.97028 47.15057 
L 178.128741 47.600416 
L 178.128741 47.600416 
L 178.901087 48.066143 
L 180.414244 49.078783 
L 184.211513 50.396722 
L 186.128622 50.38311 
L 186.894471 50.250879 
L 188.391262 49.958381 
L 189.146805 50.227706 
L 190.292323 50.703642 
L 190.292323 50.703642 
L 191.82248 51.255903 
L 191.82248 51.255903 
L 192.961661 51.411469 
L 193.718115 51.326394 
L 194.822313 50.885784 
L 195.187889 50.867149 
L 195.187889 50.867149 
L 197.440422 51.514208 
L 198.192693 51.42735 
L 198.192693 51.42735 
L 198.949135 51.086886 
L 199.694939 50.706073 
L 200.433476 50.54208 
L 203.465059 51.151219 
L 203.465059 51.151219 
L 204.605326 50.872496 
L 206.490187 49.858884 
L 207.254599 49.716929 
L 208.749747 49.858722 
L 209.505759 49.729083 
L 209.505759 49.729083 
L 210.629045 49.249744 
L 213.248572 47.339356 
L 214.007558 47.327851 
L 214.007558 47.327851 
L 215.531924 47.517123 
L 216.278965 47.439178 
L 216.278965 47.439178 
L 218.164346 46.714012 
L 218.164346 46.714012 
L 220.874692 46.934559 
L 222.037418 46.94882 
L 224.345428 46.979933 
L 225.498747 46.850132 
L 226.643679 46.567844 
L 230.144818 46.155431 
L 230.144818 46.155431 
L 233.60612 44.780289 
L 233.983603 44.737832 
L 233.983603 44.737832 
L 235.09877 44.863096 
L 235.84499 45.245206 
L 236.594802 45.878166 
L 237.722982 47.166444 
L 239.604519 49.367903 
L 239.604519 49.367903 
L 241.131582 50.801439 
L 242.280594 51.603679 
L 243.4382 52.197585 
L 244.594107 52.540564 
L 245.748155 52.629108 
L 245.748155 52.629108 
L 247.649139 52.41592 
L 252.89097 51.096119 
L 255.863638 50.494469 
L 258.508772 50.127755 
L 266.685861 47.693009 
L 268.133521 47.255432 
L 269.583722 47.013642 
L 271.063061 47.015927 
L 273.306213 46.979602 
L 274.063511 46.882807 
L 274.063511 46.882807 
L 275.576293 46.417084 
L 277.070199 45.5357 
L 281.098953 42.634931 
L 281.833313 42.448899 
L 282.577764 42.564602 
L 283.311141 42.890805 
L 283.311141 42.890805 
L 284.065553 43.575459 
L 285.599854 45.483255 
L 285.956289 45.938772 
L 287.081547 46.928564 
L 287.081547 46.928564 
L 288.244254 47.549857 
L 290.190526 48.426052 
L 291.359902 49.166937 
L 291.359902 49.166937 
L 292.111763 49.821775 
L 292.804269 50.443716 
L 292.804269 50.443716 
L 293.539813 50.683062 
L 294.291974 50.579999 
L 295.027258 50.450522 
L 295.762984 50.541918 
L 296.509602 50.984472 
L 297.59838 51.830364 
L 298.335362 52.20502 
L 299.087165 52.350701 
L 299.087165 52.350701 
L 299.845129 52.252662 
L 300.588129 52.107305 
L 300.588129 52.107305 
L 301.338487 52.189463 
L 302.106282 52.505781 
L 302.106282 52.505781 
L 303.243517 53.080891 
L 304.365678 53.448092 
L 306.252225 53.291716 
L 308.509448 54.134367 
L 309.277093 54.113787 
L 309.277093 54.113787 
L 310.385234 53.882868 
L 311.129158 54.020771 
L 312.205854 54.80703 
L 312.904463 55.055126 
L 313.653527 54.896643 
L 315.924712 53.790825 
L 316.693873 53.677391 
L 316.693873 53.677391 
L 317.464394 53.719848 
L 319.364486 54.121727 
L 320.119984 54.073437 
L 322.033785 53.422327 
L 322.033785 53.422327 
L 323.179225 52.673015 
L 324.700364 51.919815 
L 325.451015 51.815617 
L 326.225147 51.975883 
L 327.743508 52.470293 
L 327.743508 52.470293 
L 328.497061 52.443879 
L 329.618766 52.281993 
L 330.36811 52.499948 
L 331.464289 53.036652 
L 332.225067 53.095961 
L 333.721864 52.888215 
L 334.479987 53.105198 
L 335.249392 53.540298 
L 338.329826 55.638986 
L 339.474605 56.154462 
L 340.608831 56.366421 
L 341.381496 56.291393 
L 341.381496 56.291393 
L 342.897671 55.893078 
L 344.045645 55.087536 
L 345.196166 54.263196 
L 346.737168 53.506916 
L 347.887351 53.279076 
L 350.587108 53.128737 
L 352.115369 52.610995 
L 352.115369 52.610995 
L 356.584581 50.770525 
L 356.584581 50.770525 
L 360.698094 50.049207 
L 362.592106 49.698775 
L 365.946792 48.770971 
L 365.946792 48.770971 
L 369.325388 47.731469 
L 371.192458 46.849305 
L 375.218668 44.729682 
L 376.299344 44.416477 
L 377.760927 44.273257 
L 379.581389 44.297039 
L 382.193949 44.596116 
L 383.31624 44.471341 
L 384.797261 44.091299 
L 388.133781 43.085052 
L 390.002159 42.107584 
L 391.117824 41.266781 
L 392.227106 40.335197 
L 392.969982 39.998784 
L 393.711363 39.916109 
L 394.453517 40.075408 
L 395.195027 40.489791 
L 396.74128 42.099508 
L 397.891697 43.240516 
L 397.891697 43.240516 
L 399.849003 44.841756 
L 401.41171 45.948278 
L 401.41171 45.948278 
L 406.032583 48.536174 
L 407.192317 48.877722 
L 407.954705 48.993161 
L 409.887724 48.90767 
L 411.034947 49.062447 
L 413.382012 49.936039 
L 414.877108 50.501162 
L 415.620264 50.497344 
L 417.90791 49.81669 
L 418.674273 49.846943 
L 420.170859 50.207511 
L 420.170859 50.207511 
L 420.915629 50.128502 
L 422.836124 49.607071 
L 423.60589 49.58405 
L 425.121688 49.816356 
L 425.865176 49.800911 
L 428.565398 49.152495 
L 429.693785 49.177481 
L 430.427546 49.018562 
L 430.427546 49.018562 
L 431.176604 48.536144 
L 432.326357 47.679197 
L 433.855713 46.8531 
L 434.618609 46.618808 
L 436.110913 46.450911 
L 437.656353 45.6997 
L 438.795033 45.264256 
L 439.528316 45.049684 
L 440.292822 45.168177 
L 442.199205 45.794686 
L 442.199205 45.794686 
L 442.94607 45.845159 
L 442.94607 45.845159 
L 445.649539 45.662855 
L 446.805948 45.763542 
L 447.963362 45.941537 
L 448.718567 46.063615 
L 449.886765 45.967769 
L 452.174564 45.60075 
L 452.924194 45.248219 
L 454.074223 44.33416 
L 455.602087 43.062997 
L 456.736967 42.505763 
L 457.486782 42.342191 
L 458.23879 42.416611 
L 458.988007 42.705108 
L 459.73518 43.197532 
L 462.323542 45.168409 
L 463.805789 46.052617 
L 465.689357 46.988414 
L 467.183937 47.358358 
L 468.692995 47.562583 
L 471.291928 47.449374 
L 473.126586 47.381216 
L 475.749556 47.444716 
L 476.876141 47.287918 
L 478.344974 46.952921 
L 478.344974 46.952921 
L 481.691419 46.477428 
L 484.257678 45.849568 
L 485.713285 45.753069 
L 488.641934 46.015171 
L 488.641934 46.015171 
" style="fill:none;stroke:#008000;stroke-linecap:square;stroke-width:1.5;"/>
   </g>
   <g id="patch_3">
    <path d="M 58.32 81.792 
L 58.32 13.824 
" style="fill:none;stroke:#000000;stroke-linecap:square;stroke-linejoin:miter;stroke-width:0.8;"/>
   </g>
   <g id="patch_4">
    <path d="M 502.662857 81.792 
L 502.662857 13.824 
" style="fill:none;stroke:#000000;stroke-linecap:square;stroke-linejoin:miter;stroke-width:0.8;"/>
   </g>
   <g id="patch_5">
    <path d="M 58.32 81.792 
L 502.662857 81.792 
" style="fill:none;stroke:#000000;stroke-linecap:square;stroke-linejoin:miter;stroke-width:0.8;"/>
   </g>
   <g id="patch_6">
    <path d="M 58.32 13.824 
L 502.662857 13.824 
" style="fill:none;stroke:#000000;stroke-linecap:square;stroke-linejoin:miter;stroke-width:0.8;"/>
   </g>
  </g>
  <g id="axes_2">
   <g id="patch_7">
    <path d="M 502.662857 81.792 
L 576.72 81.792 
L 576.72 13.824 
L 502.662857 13.824 
z
" style="fill:#ffffff;"/>
   </g>
   <g id="patch_8">
    <path clip-path="url(#p1d35e1e41b)" d="M 502.662857 86.8896 
L 502.662857 86.8896 
L 502.662857 85.1904 
L 502.662857 85.1904 
z
" style="fill:#008000;"/>
   </g>
   <g id="patch_9">
    <path clip-path="url(#p1d35e1e41b)" d="M 502.662857 85.1904 
L 502.662857 85.1904 
L 502.662857 83.4912 
L 502.662857 83.4912 
z
" style="fill:#008000;"/>
   </g>
   <g id="patch_10">
    <path clip-path="url(#p1d35e1e41b)" d="M 502.662857 83.4912 
L 502.662857 83.4912 
L 502.662857 81.792 
L 502.662857 81.792 
z
" style="fill:#008000;"/>
   </g>
   <g id="patch_11">
    <path clip-path="url(#p1d35e1e41b)" d="M 502.662857 81.792 
L 502.662857 81.792 
L 502.662857 80.0928 
L 502.662857 80.0928 
z
" style="fill:#008000;"/>
   </g>
   <g id="patch_12">
    <path clip-path="url(#p1d35e1e41b)" d="M 502.662857 80.0928 
L 502.662857 80.0928 
L 502.662857 78.3936 
L 502.662857 78.3936 
z
" style="fill:#008000;"/>
   </g>
   <g id="patch_13">
    <path clip-path="url(#p1d35e1e41b)" d="M 502.662857 78.3936 
L 502.662857 78.3936 
L 502.662857 76.6944 
L 502.662857 76.6944 
z
" style="fill:#008000;"/>
   </g>
   <g id="patch_14">
    <path clip-path="url(#p1d35e1e41b)" d="M 502.662857 76.6944 
L 502.662857 76.6944 
L 502.662857 74.9952 
L 502.662857 74.9952 
z
" style="fill:#008000;"/>
   </g>
   <g id="patch_15">
    <path clip-path="url(#p1d35e1e41b)" d="M 502.662857 74.9952 
L 502.662857 74.9952 
L 502.662857 73.296 
L 502.662857 73.296 
z
" style="fill:#008000;"/>
   </g>
   <g id="patch_16">
    <path clip-path="url(#p1d35e1e41b)" d="M 502.662857 73.296 
L 502.662857 73.296 
L 502.662857 71.5968 
L 502.662857 71.5968 
z
" style="fill:#008000;"/>
   </g>
   <g id="patch_17">
    <path clip-path="url(#p1d35e1e41b)" d="M 502.662857 71.5968 
L 502.662857 71.5968 
L 502.662857 69.8976 
L 502.662857 69.8976 
z
" style="fill:#008000;"/>
   </g>
   <g id="patch_18">
    <path clip-path="url(#p1d35e1e41b)" d="M 502.662857 69.8976 
L 502.662857 69.8976 
L 502.662857 68.1984 
L 502.662857 68.1984 
z
" style="fill:#008000;"/>
   </g>
   <g id="patch_19">
    <path clip-path="url(#p1d35e1e41b)" d="M 502.662857 68.1984 
L 502.662857 68.1984 
L 502.662857 66.4992 
L 502.662857 66.4992 
z
" style="fill:#008000;"/>
   </g>
   <g id="patch_20">
    <path clip-path="url(#p1d35e1e41b)" d="M 502.662857 66.4992 
L 502.662857 66.4992 
L 502.662857 64.8 
L 502.662857 64.8 
z
" style="fill:#008000;"/>
   </g>
   <g id="patch_21">
    <path clip-path="url(#p1d35e1e41b)" d="M 502.662857 64.8 
L 502.662857 64.8 
L 502.662857 63.1008 
L 502.662857 63.1008 
z
" style="fill:#008000;"/>
   </g>
   <g id="patch_22">
    <path clip-path="url(#p1d35e1e41b)" d="M 502.662857 63.1008 
L 502.662857 63.1008 
L 502.662857 61.4016 
L 502.662857 61.4016 
z
" style="fill:#008000;"/>
   </g>
   <g id="patch_23">
    <path clip-path="url(#p1d35e1e41b)" d="M 502.662857 61.4016 
L 502.662857 61.4016 
L 502.662857 59.7024 
L 502.662857 59.7024 
z
" style="fill:#008000;"/>
   </g>
   <g id="patch_24">
    <path clip-path="url(#p1d35e1e41b)" d="M 502.662857 59.7024 
L 502.662857 59.7024 
L 502.662857 58.0032 
L 502.662857 58.0032 
z
" style="fill:#008000;"/>
   </g>
   <g id="patch_25">
    <path clip-path="url(#p1d35e1e41b)" d="M 502.662857 58.0032 
L 503.375288 58.0032 
L 503.375288 56.304 
L 502.662857 56.304 
z
" style="fill:#008000;"/>
   </g>
   <g id="patch_26">
    <path clip-path="url(#p1d35e1e41b)" d="M 502.662857 56.304 
L 509.074731 56.304 
L 509.074731 54.6048 
L 502.662857 54.6048 
z
" style="fill:#008000;"/>
   </g>
   <g id="patch_27">
    <path clip-path="url(#p1d35e1e41b)" d="M 502.662857 54.6048 
L 524.510724 54.6048 
L 524.510724 52.9056 
L 502.662857 52.9056 
z
" style="fill:#008000;"/>
   </g>
   <g id="patch_28">
    <path clip-path="url(#p1d35e1e41b)" d="M 502.662857 52.9056 
L 528.547829 52.9056 
L 528.547829 51.2064 
L 502.662857 51.2064 
z
" style="fill:#008000;"/>
   </g>
   <g id="patch_29">
    <path clip-path="url(#p1d35e1e41b)" d="M 502.662857 51.2064 
L 573.193469 51.2064 
L 573.193469 49.5072 
L 502.662857 49.5072 
z
" style="fill:#008000;"/>
   </g>
   <g id="patch_30">
    <path clip-path="url(#p1d35e1e41b)" d="M 502.662857 49.5072 
L 537.096994 49.5072 
L 537.096994 47.808 
L 502.662857 47.808 
z
" style="fill:#008000;"/>
   </g>
   <g id="patch_31">
    <path clip-path="url(#p1d35e1e41b)" d="M 502.662857 47.808 
L 561.082152 47.808 
L 561.082152 46.1088 
L 502.662857 46.1088 
z
" style="fill:#008000;"/>
   </g>
   <g id="patch_32">
    <path clip-path="url(#p1d35e1e41b)" d="M 502.662857 46.1088 
L 563.219443 46.1088 
L 563.219443 44.4096 
L 502.662857 44.4096 
z
" style="fill:#008000;"/>
   </g>
   <g id="patch_33">
    <path clip-path="url(#p1d35e1e41b)" d="M 502.662857 44.4096 
L 522.848386 44.4096 
L 522.848386 42.7104 
L 502.662857 42.7104 
z
" style="fill:#008000;"/>
   </g>
   <g id="patch_34">
    <path clip-path="url(#p1d35e1e41b)" d="M 502.662857 42.7104 
L 509.074731 42.7104 
L 509.074731 41.0112 
L 502.662857 41.0112 
z
" style="fill:#008000;"/>
   </g>
   <g id="patch_35">
    <path clip-path="url(#p1d35e1e41b)" d="M 502.662857 41.0112 
L 505.750056 41.0112 
L 505.750056 39.312 
L 502.662857 39.312 
z
" style="fill:#008000;"/>
   </g>
   <g id="patch_36">
    <path clip-path="url(#p1d35e1e41b)" d="M 502.662857 39.312 
L 502.662857 39.312 
L 502.662857 37.6128 
L 502.662857 37.6128 
z
" style="fill:#008000;"/>
   </g>
   <g id="patch_37">
    <path clip-path="url(#p1d35e1e41b)" d="M 502.662857 37.6128 
L 502.662857 37.6128 
L 502.662857 35.9136 
L 502.662857 35.9136 
z
" style="fill:#008000;"/>
   </g>
   <g id="patch_38">
    <path clip-path="url(#p1d35e1e41b)" d="M 502.662857 35.9136 
L 502.662857 35.9136 
L 502.662857 34.2144 
L 502.662857 34.2144 
z
" style="fill:#008000;"/>
   </g>
   <g id="patch_39">
    <path clip-path="url(#p1d35e1e41b)" d="M 502.662857 34.2144 
L 502.662857 34.2144 
L 502.662857 32.5152 
L 502.662857 32.5152 
z
" style="fill:#008000;"/>
   </g>
   <g id="patch_40">
    <path clip-path="url(#p1d35e1e41b)" d="M 502.662857 32.5152 
L 502.662857 32.5152 
L 502.662857 30.816 
L 502.662857 30.816 
z
" style="fill:#008000;"/>
   </g>
   <g id="patch_41">
    <path clip-path="url(#p1d35e1e41b)" d="M 502.662857 30.816 
L 502.662857 30.816 
L 502.662857 29.1168 
L 502.662857 29.1168 
z
" style="fill:#008000;"/>
   </g>
   <g id="patch_42">
    <path clip-path="url(#p1d35e1e41b)" d="M 502.662857 29.1168 
L 502.662857 29.1168 
L 502.662857 27.4176 
L 502.662857 27.4176 
z
" style="fill:#008000;"/>
   </g>
   <g id="patch_43">
    <path clip-path="url(#p1d35e1e41b)" d="M 502.662857 27.4176 
L 502.662857 27.4176 
L 502.662857 25.7184 
L 502.662857 25.7184 
z
" style="fill:#008000;"/>
   </g>
   <g id="patch_44">
    <path clip-path="url(#p1d35e1e41b)" d="M 502.662857 25.7184 
L 502.662857 25.7184 
L 502.662857 24.0192 
L 502.662857 24.0192 
z
" style="fill:#008000;"/>
   </g>
   <g id="patch_45">
    <path clip-path="url(#p1d35e1e41b)" d="M 502.662857 24.0192 
L 502.662857 24.0192 
L 502.662857 22.32 
L 502.662857 22.32 
z
" style="fill:#008000;"/>
   </g>
   <g id="patch_46">
    <path clip-path="url(#p1d35e1e41b)" d="M 502.662857 22.32 
L 502.662857 22.32 
L 502.662857 20.6208 
L 502.662857 20.6208 
z
" style="fill:#008000;"/>
   </g>
   <g id="patch_47">
    <path clip-path="url(#p1d35e1e41b)" d="M 502.662857 20.6208 
L 502.662857 20.6208 
L 502.662857 18.9216 
L 502.662857 18.9216 
z
" style="fill:#008000;"/>
   </g>
   <g id="patch_48">
    <path clip-path="url(#p1d35e1e41b)" d="M 502.662857 18.9216 
L 502.662857 18.9216 
L 502.662857 17.2224 
L 502.662857 17.2224 
z
" style="fill:#008000;"/>
   </g>
   <g id="patch_49">
    <path clip-path="url(#p1d35e1e41b)" d="M 502.662857 17.2224 
L 502.662857 17.2224 
L 502.662857 15.5232 
L 502.662857 15.5232 
z
" style="fill:#008000;"/>
   </g>
   <g id="patch_50">
    <path clip-path="url(#p1d35e1e41b)" d="M 502.662857 15.5232 
L 502.662857 15.5232 
L 502.662857 13.824 
L 502.662857 13.824 
z
" style="fill:#008000;"/>
   </g>
   <g id="patch_51">
    <path clip-path="url(#p1d35e1e41b)" d="M 502.662857 13.824 
L 502.662857 13.824 
L 502.662857 12.1248 
L 502.662857 12.1248 
z
" style="fill:#008000;"/>
   </g>
   <g id="patch_52">
    <path clip-path="url(#p1d35e1e41b)" d="M 502.662857 12.1248 
L 502.662857 12.1248 
L 502.662857 10.4256 
L 502.662857 10.4256 
z
" style="fill:#008000;"/>
   </g>
   <g id="patch_53">
    <path clip-path="url(#p1d35e1e41b)" d="M 502.662857 10.4256 
L 502.662857 10.4256 
L 502.662857 8.7264 
L 502.662857 8.7264 
z
" style="fill:#008000;"/>
   </g>
   <g id="matplotlib.axis_3">
    <g id="xtick_8">
     <g id="line2d_30">
      <g>
       <use style="stroke:#000000;stroke-width:0.8;" x="502.662857" xlink:href="#m82288853b2" y="81.792"/>
      </g>
     </g>
     <g id="line2d_31">
      <g>
       <use style="stroke:#000000;stroke-width:0.8;" x="502.662857" xlink:href="#m3bb06253dd" y="13.824"/>
      </g>
     </g>
    </g>
    <g id="xtick_9">
     <g id="line2d_32">
      <g>
       <use style="stroke:#000000;stroke-width:0.8;" x="564.359332" xlink:href="#m82288853b2" y="81.792"/>
      </g>
     </g>
     <g id="line2d_33">
      <g>
       <use style="stroke:#000000;stroke-width:0.8;" x="564.359332" xlink:href="#m3bb06253dd" y="13.824"/>
      </g>
     </g>
    </g>
    <g id="text_13">
     <!-- Histogram -->
     <defs>
      <path d="M 9.8125 72.90625 
L 19.671875 72.90625 
L 19.671875 43.015625 
L 55.515625 43.015625 
L 55.515625 72.90625 
L 65.375 72.90625 
L 65.375 0 
L 55.515625 0 
L 55.515625 34.71875 
L 19.671875 34.71875 
L 19.671875 0 
L 9.8125 0 
z
" id="DejaVuSans-48"/>
      <path d="M 45.40625 27.984375 
Q 45.40625 37.75 41.375 43.109375 
Q 37.359375 48.484375 30.078125 48.484375 
Q 22.859375 48.484375 18.828125 43.109375 
Q 14.796875 37.75 14.796875 27.984375 
Q 14.796875 18.265625 18.828125 12.890625 
Q 22.859375 7.515625 30.078125 7.515625 
Q 37.359375 7.515625 41.375 12.890625 
Q 45.40625 18.265625 45.40625 27.984375 
z
M 54.390625 6.78125 
Q 54.390625 -7.171875 48.1875 -13.984375 
Q 42 -20.796875 29.203125 -20.796875 
Q 24.46875 -20.796875 20.265625 -20.09375 
Q 16.0625 -19.390625 12.109375 -17.921875 
L 12.109375 -9.1875 
Q 16.0625 -11.328125 19.921875 -12.34375 
Q 23.78125 -13.375 27.78125 -13.375 
Q 36.625 -13.375 41.015625 -8.765625 
Q 45.40625 -4.15625 45.40625 5.171875 
L 45.40625 9.625 
Q 42.625 4.78125 38.28125 2.390625 
Q 33.9375 0 27.875 0 
Q 17.828125 0 11.671875 7.65625 
Q 5.515625 15.328125 5.515625 27.984375 
Q 5.515625 40.671875 11.671875 48.328125 
Q 17.828125 56 27.875 56 
Q 33.9375 56 38.28125 53.609375 
Q 42.625 51.21875 45.40625 46.390625 
L 45.40625 54.6875 
L 54.390625 54.6875 
z
" id="DejaVuSans-67"/>
     </defs>
     <g transform="translate(513.753929 96.890438)scale(0.1 -0.1)">
      <use xlink:href="#DejaVuSans-48"/>
      <use x="75.195312" xlink:href="#DejaVuSans-69"/>
      <use x="102.978516" xlink:href="#DejaVuSans-73"/>
      <use x="155.078125" xlink:href="#DejaVuSans-74"/>
      <use x="194.287109" xlink:href="#DejaVuSans-6f"/>
      <use x="255.46875" xlink:href="#DejaVuSans-67"/>
      <use x="318.945312" xlink:href="#DejaVuSans-72"/>
      <use x="360.058594" xlink:href="#DejaVuSans-61"/>
      <use x="421.337891" xlink:href="#DejaVuSans-6d"/>
     </g>
    </g>
   </g>
   <g id="matplotlib.axis_4">
    <g id="ytick_4">
     <g id="line2d_34">
      <g>
       <use style="stroke:#000000;stroke-width:0.8;" x="502.662857" xlink:href="#m9a61c39816" y="81.792"/>
      </g>
     </g>
    </g>
    <g id="ytick_5">
     <g id="line2d_35">
      <g>
       <use style="stroke:#000000;stroke-width:0.8;" x="502.662857" xlink:href="#m9a61c39816" y="47.808"/>
      </g>
     </g>
    </g>
    <g id="ytick_6">
     <g id="line2d_36">
      <g>
       <use style="stroke:#000000;stroke-width:0.8;" x="502.662857" xlink:href="#m9a61c39816" y="13.824"/>
      </g>
     </g>
    </g>
   </g>
   <g id="line2d_37">
    <path clip-path="url(#p1d35e1e41b)" d="M 502.662857 47.808 
L 576.72 47.808 
" style="fill:none;stroke:#000000;stroke-linecap:square;stroke-width:0.5;"/>
   </g>
   <g id="patch_54">
    <path d="M 502.662857 81.792 
L 502.662857 13.824 
" style="fill:none;stroke:#000000;stroke-linecap:square;stroke-linejoin:miter;stroke-width:0.8;"/>
   </g>
   <g id="patch_55">
    <path d="M 576.72 81.792 
L 576.72 13.824 
" style="fill:none;stroke:#000000;stroke-linecap:square;stroke-linejoin:miter;stroke-width:0.8;"/>
   </g>
   <g id="patch_56">
    <path d="M 502.662857 81.792 
L 576.72 81.792 
" style="fill:none;stroke:#000000;stroke-linecap:square;stroke-linejoin:miter;stroke-width:0.8;"/>
   </g>
   <g id="patch_57">
    <path d="M 502.662857 13.824 
L 576.72 13.824 
" style="fill:none;stroke:#000000;stroke-linecap:square;stroke-linejoin:miter;stroke-width:0.8;"/>
   </g>
   <g id="text_14">
    <!-- R-STDP  -->
    <defs>
     <path d="M 44.390625 34.1875 
Q 47.5625 33.109375 50.5625 29.59375 
Q 53.5625 26.078125 56.59375 19.921875 
L 66.609375 0 
L 56 0 
L 46.6875 18.703125 
Q 43.0625 26.03125 39.671875 28.421875 
Q 36.28125 30.8125 30.421875 30.8125 
L 19.671875 30.8125 
L 19.671875 0 
L 9.8125 0 
L 9.8125 72.90625 
L 32.078125 72.90625 
Q 44.578125 72.90625 50.734375 67.671875 
Q 56.890625 62.453125 56.890625 51.90625 
Q 56.890625 45.015625 53.6875 40.46875 
Q 50.484375 35.9375 44.390625 34.1875 
z
M 19.671875 64.796875 
L 19.671875 38.921875 
L 32.078125 38.921875 
Q 39.203125 38.921875 42.84375 42.21875 
Q 46.484375 45.515625 46.484375 51.90625 
Q 46.484375 58.296875 42.84375 61.546875 
Q 39.203125 64.796875 32.078125 64.796875 
z
" id="DejaVuSans-52"/>
     <path d="M 53.515625 70.515625 
L 53.515625 60.890625 
Q 47.90625 63.578125 42.921875 64.890625 
Q 37.9375 66.21875 33.296875 66.21875 
Q 25.25 66.21875 20.875 63.09375 
Q 16.5 59.96875 16.5 54.203125 
Q 16.5 49.359375 19.40625 46.890625 
Q 22.3125 44.4375 30.421875 42.921875 
L 36.375 41.703125 
Q 47.40625 39.59375 52.65625 34.296875 
Q 57.90625 29 57.90625 20.125 
Q 57.90625 9.515625 50.796875 4.046875 
Q 43.703125 -1.421875 29.984375 -1.421875 
Q 24.8125 -1.421875 18.96875 -0.25 
Q 13.140625 0.921875 6.890625 3.21875 
L 6.890625 13.375 
Q 12.890625 10.015625 18.65625 8.296875 
Q 24.421875 6.59375 29.984375 6.59375 
Q 38.421875 6.59375 43.015625 9.90625 
Q 47.609375 13.234375 47.609375 19.390625 
Q 47.609375 24.75 44.3125 27.78125 
Q 41.015625 30.8125 33.5 32.328125 
L 27.484375 33.5 
Q 16.453125 35.6875 11.515625 40.375 
Q 6.59375 45.0625 6.59375 53.421875 
Q 6.59375 63.09375 13.40625 68.65625 
Q 20.21875 74.21875 32.171875 74.21875 
Q 37.3125 74.21875 42.625 73.28125 
Q 47.953125 72.359375 53.515625 70.515625 
z
" id="DejaVuSans-53"/>
     <path d="M -0.296875 72.90625 
L 61.375 72.90625 
L 61.375 64.59375 
L 35.5 64.59375 
L 35.5 0 
L 25.59375 0 
L 25.59375 64.59375 
L -0.296875 64.59375 
z
" id="DejaVuSans-54"/>
    </defs>
    <g transform="translate(584.125714 39.802775)scale(0.1 -0.1)">
     <use xlink:href="#DejaVuSans-52"/>
     <use x="69.419922" xlink:href="#DejaVuSans-2d"/>
     <use x="105.503906" xlink:href="#DejaVuSans-53"/>
     <use x="168.980469" xlink:href="#DejaVuSans-54"/>
     <use x="230.064453" xlink:href="#DejaVuSans-44"/>
     <use x="307.066406" xlink:href="#DejaVuSans-50"/>
     <use x="367.369141" xlink:href="#DejaVuSans-20"/>
    </g>
    <!-- e = 0.016 -->
    <defs>
     <path d="M 10.59375 45.40625 
L 73.1875 45.40625 
L 73.1875 37.203125 
L 10.59375 37.203125 
z
M 10.59375 25.484375 
L 73.1875 25.484375 
L 73.1875 17.1875 
L 10.59375 17.1875 
z
" id="DejaVuSans-3d"/>
     <path d="M 33.015625 40.375 
Q 26.375 40.375 22.484375 35.828125 
Q 18.609375 31.296875 18.609375 23.390625 
Q 18.609375 15.53125 22.484375 10.953125 
Q 26.375 6.390625 33.015625 6.390625 
Q 39.65625 6.390625 43.53125 10.953125 
Q 47.40625 15.53125 47.40625 23.390625 
Q 47.40625 31.296875 43.53125 35.828125 
Q 39.65625 40.375 33.015625 40.375 
z
M 52.59375 71.296875 
L 52.59375 62.3125 
Q 48.875 64.0625 45.09375 64.984375 
Q 41.3125 65.921875 37.59375 65.921875 
Q 27.828125 65.921875 22.671875 59.328125 
Q 17.53125 52.734375 16.796875 39.40625 
Q 19.671875 43.65625 24.015625 45.921875 
Q 28.375 48.1875 33.59375 48.1875 
Q 44.578125 48.1875 50.953125 41.515625 
Q 57.328125 34.859375 57.328125 23.390625 
Q 57.328125 12.15625 50.6875 5.359375 
Q 44.046875 -1.421875 33.015625 -1.421875 
Q 20.359375 -1.421875 13.671875 8.265625 
Q 6.984375 17.96875 6.984375 36.375 
Q 6.984375 53.65625 15.1875 63.9375 
Q 23.390625 74.21875 37.203125 74.21875 
Q 40.921875 74.21875 44.703125 73.484375 
Q 48.484375 72.75 52.59375 71.296875 
z
" id="DejaVuSans-36"/>
    </defs>
    <g transform="translate(584.125714 51.000588)scale(0.1 -0.1)">
     <use xlink:href="#DejaVuSans-65"/>
     <use x="61.523438" xlink:href="#DejaVuSans-20"/>
     <use x="93.310547" xlink:href="#DejaVuSans-3d"/>
     <use x="177.099609" xlink:href="#DejaVuSans-20"/>
     <use x="208.886719" xlink:href="#DejaVuSans-30"/>
     <use x="272.509766" xlink:href="#DejaVuSans-2e"/>
     <use x="304.296875" xlink:href="#DejaVuSans-30"/>
     <use x="367.919922" xlink:href="#DejaVuSans-31"/>
     <use x="431.542969" xlink:href="#DejaVuSans-36"/>
    </g>
    <!-- MSE =0.019 -->
    <defs>
     <path d="M 9.8125 72.90625 
L 24.515625 72.90625 
L 43.109375 23.296875 
L 61.8125 72.90625 
L 76.515625 72.90625 
L 76.515625 0 
L 66.890625 0 
L 66.890625 64.015625 
L 48.09375 14.015625 
L 38.1875 14.015625 
L 19.390625 64.015625 
L 19.390625 0 
L 9.8125 0 
z
" id="DejaVuSans-4d"/>
     <path d="M 9.8125 72.90625 
L 55.90625 72.90625 
L 55.90625 64.59375 
L 19.671875 64.59375 
L 19.671875 43.015625 
L 54.390625 43.015625 
L 54.390625 34.71875 
L 19.671875 34.71875 
L 19.671875 8.296875 
L 56.78125 8.296875 
L 56.78125 0 
L 9.8125 0 
z
" id="DejaVuSans-45"/>
     <path d="M 10.984375 1.515625 
L 10.984375 10.5 
Q 14.703125 8.734375 18.5 7.8125 
Q 22.3125 6.890625 25.984375 6.890625 
Q 35.75 6.890625 40.890625 13.453125 
Q 46.046875 20.015625 46.78125 33.40625 
Q 43.953125 29.203125 39.59375 26.953125 
Q 35.25 24.703125 29.984375 24.703125 
Q 19.046875 24.703125 12.671875 31.3125 
Q 6.296875 37.9375 6.296875 49.421875 
Q 6.296875 60.640625 12.9375 67.421875 
Q 19.578125 74.21875 30.609375 74.21875 
Q 43.265625 74.21875 49.921875 64.515625 
Q 56.59375 54.828125 56.59375 36.375 
Q 56.59375 19.140625 48.40625 8.859375 
Q 40.234375 -1.421875 26.421875 -1.421875 
Q 22.703125 -1.421875 18.890625 -0.6875 
Q 15.09375 0.046875 10.984375 1.515625 
z
M 30.609375 32.421875 
Q 37.25 32.421875 41.125 36.953125 
Q 45.015625 41.5 45.015625 49.421875 
Q 45.015625 57.28125 41.125 61.84375 
Q 37.25 66.40625 30.609375 66.40625 
Q 23.96875 66.40625 20.09375 61.84375 
Q 16.21875 57.28125 16.21875 49.421875 
Q 16.21875 41.5 20.09375 36.953125 
Q 23.96875 32.421875 30.609375 32.421875 
z
" id="DejaVuSans-39"/>
    </defs>
    <g transform="translate(584.125714 62.1984)scale(0.1 -0.1)">
     <use xlink:href="#DejaVuSans-4d"/>
     <use x="86.279297" xlink:href="#DejaVuSans-53"/>
     <use x="149.755859" xlink:href="#DejaVuSans-45"/>
     <use x="212.939453" xlink:href="#DejaVuSans-20"/>
     <use x="244.726562" xlink:href="#DejaVuSans-3d"/>
     <use x="328.515625" xlink:href="#DejaVuSans-30"/>
     <use x="392.138672" xlink:href="#DejaVuSans-2e"/>
     <use x="423.925781" xlink:href="#DejaVuSans-30"/>
     <use x="487.548828" xlink:href="#DejaVuSans-31"/>
     <use x="551.171875" xlink:href="#DejaVuSans-39"/>
    </g>
   </g>
  </g>
 </g>
 <defs>
  <clipPath id="paa7e89172c">
   <rect height="67.968" width="444.342857" x="58.32" y="13.824"/>
  </clipPath>
  <clipPath id="p1d35e1e41b">
   <rect height="67.968" width="74.057143" x="502.662857" y="13.824"/>
  </clipPath>
 </defs>
</svg>
