<?xml version="1.0" encoding="utf-8" standalone="no"?>
<!DOCTYPE svg PUBLIC "-//W3C//DTD SVG 1.1//EN"
  "http://www.w3.org/Graphics/SVG/1.1/DTD/svg11.dtd">
<!-- Created with matplotlib (http://matplotlib.org/) -->
<svg height="115.2pt" version="1.1" viewBox="0 0 648 115.2" width="648pt" xmlns="http://www.w3.org/2000/svg" xmlns:xlink="http://www.w3.org/1999/xlink">
 <defs>
  <style type="text/css">
*{stroke-linecap:butt;stroke-linejoin:round;}
  </style>
 </defs>
 <g id="figure_1">
  <g id="patch_1">
   <path d="M 0 115.2 
L 648 115.2 
L 648 0 
L 0 0 
z
" style="fill:#ffffff;"/>
  </g>
  <g id="axes_1">
   <g id="patch_2">
    <path d="M 58.32 81.792 
L 502.662857 81.792 
L 502.662857 13.824 
L 58.32 13.824 
z
" style="fill:#ffffff;"/>
   </g>
   <g id="matplotlib.axis_1">
    <g id="xtick_1">
     <g id="line2d_1">
      <defs>
       <path d="M 0 0 
L 0 -3.5 
" id="m611eea0b4a" style="stroke:#000000;stroke-width:0.8;"/>
      </defs>
      <g>
       <use style="stroke:#000000;stroke-width:0.8;" x="58.32" xlink:href="#m611eea0b4a" y="81.792"/>
      </g>
     </g>
     <g id="line2d_2">
      <defs>
       <path d="M 0 0 
L 0 3.5 
" id="mf006f1d2ea" style="stroke:#000000;stroke-width:0.8;"/>
      </defs>
      <g>
       <use style="stroke:#000000;stroke-width:0.8;" x="58.32" xlink:href="#mf006f1d2ea" y="13.824"/>
      </g>
     </g>
     <g id="text_1">
      <!-- 0 -->
      <defs>
       <path d="M 31.78125 66.40625 
Q 24.171875 66.40625 20.328125 58.90625 
Q 16.5 51.421875 16.5 36.375 
Q 16.5 21.390625 20.328125 13.890625 
Q 24.171875 6.390625 31.78125 6.390625 
Q 39.453125 6.390625 43.28125 13.890625 
Q 47.125 21.390625 47.125 36.375 
Q 47.125 51.421875 43.28125 58.90625 
Q 39.453125 66.40625 31.78125 66.40625 
z
M 31.78125 74.21875 
Q 44.046875 74.21875 50.515625 64.515625 
Q 56.984375 54.828125 56.984375 36.375 
Q 56.984375 17.96875 50.515625 8.265625 
Q 44.046875 -1.421875 31.78125 -1.421875 
Q 19.53125 -1.421875 13.0625 8.265625 
Q 6.59375 17.96875 6.59375 36.375 
Q 6.59375 54.828125 13.0625 64.515625 
Q 19.53125 74.21875 31.78125 74.21875 
z
" id="DejaVuSans-30"/>
      </defs>
      <g transform="translate(55.13875 92.890438)scale(0.1 -0.1)">
       <use xlink:href="#DejaVuSans-30"/>
      </g>
     </g>
    </g>
    <g id="xtick_2">
     <g id="line2d_3">
      <g>
       <use style="stroke:#000000;stroke-width:0.8;" x="127.767781" xlink:href="#m611eea0b4a" y="81.792"/>
      </g>
     </g>
     <g id="line2d_4">
      <g>
       <use style="stroke:#000000;stroke-width:0.8;" x="127.767781" xlink:href="#mf006f1d2ea" y="13.824"/>
      </g>
     </g>
     <g id="text_2">
      <!-- 5 -->
      <defs>
       <path d="M 10.796875 72.90625 
L 49.515625 72.90625 
L 49.515625 64.59375 
L 19.828125 64.59375 
L 19.828125 46.734375 
Q 21.96875 47.46875 24.109375 47.828125 
Q 26.265625 48.1875 28.421875 48.1875 
Q 40.625 48.1875 47.75 41.5 
Q 54.890625 34.8125 54.890625 23.390625 
Q 54.890625 11.625 47.5625 5.09375 
Q 40.234375 -1.421875 26.90625 -1.421875 
Q 22.3125 -1.421875 17.546875 -0.640625 
Q 12.796875 0.140625 7.71875 1.703125 
L 7.71875 11.625 
Q 12.109375 9.234375 16.796875 8.0625 
Q 21.484375 6.890625 26.703125 6.890625 
Q 35.15625 6.890625 40.078125 11.328125 
Q 45.015625 15.765625 45.015625 23.390625 
Q 45.015625 31 40.078125 35.4375 
Q 35.15625 39.890625 26.703125 39.890625 
Q 22.75 39.890625 18.8125 39.015625 
Q 14.890625 38.140625 10.796875 36.28125 
z
" id="DejaVuSans-35"/>
      </defs>
      <g transform="translate(124.586531 92.890438)scale(0.1 -0.1)">
       <use xlink:href="#DejaVuSans-35"/>
      </g>
     </g>
    </g>
    <g id="xtick_3">
     <g id="line2d_5">
      <g>
       <use style="stroke:#000000;stroke-width:0.8;" x="197.215562" xlink:href="#m611eea0b4a" y="81.792"/>
      </g>
     </g>
     <g id="line2d_6">
      <g>
       <use style="stroke:#000000;stroke-width:0.8;" x="197.215562" xlink:href="#mf006f1d2ea" y="13.824"/>
      </g>
     </g>
     <g id="text_3">
      <!-- 10 -->
      <defs>
       <path d="M 12.40625 8.296875 
L 28.515625 8.296875 
L 28.515625 63.921875 
L 10.984375 60.40625 
L 10.984375 69.390625 
L 28.421875 72.90625 
L 38.28125 72.90625 
L 38.28125 8.296875 
L 54.390625 8.296875 
L 54.390625 0 
L 12.40625 0 
z
" id="DejaVuSans-31"/>
      </defs>
      <g transform="translate(190.853062 92.890438)scale(0.1 -0.1)">
       <use xlink:href="#DejaVuSans-31"/>
       <use x="63.623047" xlink:href="#DejaVuSans-30"/>
      </g>
     </g>
    </g>
    <g id="xtick_4">
     <g id="line2d_7">
      <g>
       <use style="stroke:#000000;stroke-width:0.8;" x="266.663344" xlink:href="#m611eea0b4a" y="81.792"/>
      </g>
     </g>
     <g id="line2d_8">
      <g>
       <use style="stroke:#000000;stroke-width:0.8;" x="266.663344" xlink:href="#mf006f1d2ea" y="13.824"/>
      </g>
     </g>
     <g id="text_4">
      <!-- 15 -->
      <g transform="translate(260.300844 92.890438)scale(0.1 -0.1)">
       <use xlink:href="#DejaVuSans-31"/>
       <use x="63.623047" xlink:href="#DejaVuSans-35"/>
      </g>
     </g>
    </g>
    <g id="xtick_5">
     <g id="line2d_9">
      <g>
       <use style="stroke:#000000;stroke-width:0.8;" x="336.111125" xlink:href="#m611eea0b4a" y="81.792"/>
      </g>
     </g>
     <g id="line2d_10">
      <g>
       <use style="stroke:#000000;stroke-width:0.8;" x="336.111125" xlink:href="#mf006f1d2ea" y="13.824"/>
      </g>
     </g>
     <g id="text_5">
      <!-- 20 -->
      <defs>
       <path d="M 19.1875 8.296875 
L 53.609375 8.296875 
L 53.609375 0 
L 7.328125 0 
L 7.328125 8.296875 
Q 12.9375 14.109375 22.625 23.890625 
Q 32.328125 33.6875 34.8125 36.53125 
Q 39.546875 41.84375 41.421875 45.53125 
Q 43.3125 49.21875 43.3125 52.78125 
Q 43.3125 58.59375 39.234375 62.25 
Q 35.15625 65.921875 28.609375 65.921875 
Q 23.96875 65.921875 18.8125 64.3125 
Q 13.671875 62.703125 7.8125 59.421875 
L 7.8125 69.390625 
Q 13.765625 71.78125 18.9375 73 
Q 24.125 74.21875 28.421875 74.21875 
Q 39.75 74.21875 46.484375 68.546875 
Q 53.21875 62.890625 53.21875 53.421875 
Q 53.21875 48.921875 51.53125 44.890625 
Q 49.859375 40.875 45.40625 35.40625 
Q 44.1875 33.984375 37.640625 27.21875 
Q 31.109375 20.453125 19.1875 8.296875 
z
" id="DejaVuSans-32"/>
      </defs>
      <g transform="translate(329.748625 92.890438)scale(0.1 -0.1)">
       <use xlink:href="#DejaVuSans-32"/>
       <use x="63.623047" xlink:href="#DejaVuSans-30"/>
      </g>
     </g>
    </g>
    <g id="xtick_6">
     <g id="line2d_11">
      <g>
       <use style="stroke:#000000;stroke-width:0.8;" x="405.558906" xlink:href="#m611eea0b4a" y="81.792"/>
      </g>
     </g>
     <g id="line2d_12">
      <g>
       <use style="stroke:#000000;stroke-width:0.8;" x="405.558906" xlink:href="#mf006f1d2ea" y="13.824"/>
      </g>
     </g>
     <g id="text_6">
      <!-- 25 -->
      <g transform="translate(399.196406 92.890438)scale(0.1 -0.1)">
       <use xlink:href="#DejaVuSans-32"/>
       <use x="63.623047" xlink:href="#DejaVuSans-35"/>
      </g>
     </g>
    </g>
    <g id="xtick_7">
     <g id="line2d_13">
      <g>
       <use style="stroke:#000000;stroke-width:0.8;" x="475.006687" xlink:href="#m611eea0b4a" y="81.792"/>
      </g>
     </g>
     <g id="line2d_14">
      <g>
       <use style="stroke:#000000;stroke-width:0.8;" x="475.006687" xlink:href="#mf006f1d2ea" y="13.824"/>
      </g>
     </g>
     <g id="text_7">
      <!-- 30 -->
      <defs>
       <path d="M 40.578125 39.3125 
Q 47.65625 37.796875 51.625 33 
Q 55.609375 28.21875 55.609375 21.1875 
Q 55.609375 10.40625 48.1875 4.484375 
Q 40.765625 -1.421875 27.09375 -1.421875 
Q 22.515625 -1.421875 17.65625 -0.515625 
Q 12.796875 0.390625 7.625 2.203125 
L 7.625 11.71875 
Q 11.71875 9.328125 16.59375 8.109375 
Q 21.484375 6.890625 26.8125 6.890625 
Q 36.078125 6.890625 40.9375 10.546875 
Q 45.796875 14.203125 45.796875 21.1875 
Q 45.796875 27.640625 41.28125 31.265625 
Q 36.765625 34.90625 28.71875 34.90625 
L 20.21875 34.90625 
L 20.21875 43.015625 
L 29.109375 43.015625 
Q 36.375 43.015625 40.234375 45.921875 
Q 44.09375 48.828125 44.09375 54.296875 
Q 44.09375 59.90625 40.109375 62.90625 
Q 36.140625 65.921875 28.71875 65.921875 
Q 24.65625 65.921875 20.015625 65.03125 
Q 15.375 64.15625 9.8125 62.3125 
L 9.8125 71.09375 
Q 15.4375 72.65625 20.34375 73.4375 
Q 25.25 74.21875 29.59375 74.21875 
Q 40.828125 74.21875 47.359375 69.109375 
Q 53.90625 64.015625 53.90625 55.328125 
Q 53.90625 49.265625 50.4375 45.09375 
Q 46.96875 40.921875 40.578125 39.3125 
z
" id="DejaVuSans-33"/>
      </defs>
      <g transform="translate(468.644187 92.890438)scale(0.1 -0.1)">
       <use xlink:href="#DejaVuSans-33"/>
       <use x="63.623047" xlink:href="#DejaVuSans-30"/>
      </g>
     </g>
    </g>
    <g id="text_8">
     <!-- Position [m] -->
     <defs>
      <path d="M 19.671875 64.796875 
L 19.671875 37.40625 
L 32.078125 37.40625 
Q 38.96875 37.40625 42.71875 40.96875 
Q 46.484375 44.53125 46.484375 51.125 
Q 46.484375 57.671875 42.71875 61.234375 
Q 38.96875 64.796875 32.078125 64.796875 
z
M 9.8125 72.90625 
L 32.078125 72.90625 
Q 44.34375 72.90625 50.609375 67.359375 
Q 56.890625 61.8125 56.890625 51.125 
Q 56.890625 40.328125 50.609375 34.8125 
Q 44.34375 29.296875 32.078125 29.296875 
L 19.671875 29.296875 
L 19.671875 0 
L 9.8125 0 
z
" id="DejaVuSans-50"/>
      <path d="M 30.609375 48.390625 
Q 23.390625 48.390625 19.1875 42.75 
Q 14.984375 37.109375 14.984375 27.296875 
Q 14.984375 17.484375 19.15625 11.84375 
Q 23.34375 6.203125 30.609375 6.203125 
Q 37.796875 6.203125 41.984375 11.859375 
Q 46.1875 17.53125 46.1875 27.296875 
Q 46.1875 37.015625 41.984375 42.703125 
Q 37.796875 48.390625 30.609375 48.390625 
z
M 30.609375 56 
Q 42.328125 56 49.015625 48.375 
Q 55.71875 40.765625 55.71875 27.296875 
Q 55.71875 13.875 49.015625 6.21875 
Q 42.328125 -1.421875 30.609375 -1.421875 
Q 18.84375 -1.421875 12.171875 6.21875 
Q 5.515625 13.875 5.515625 27.296875 
Q 5.515625 40.765625 12.171875 48.375 
Q 18.84375 56 30.609375 56 
z
" id="DejaVuSans-6f"/>
      <path d="M 44.28125 53.078125 
L 44.28125 44.578125 
Q 40.484375 46.53125 36.375 47.5 
Q 32.28125 48.484375 27.875 48.484375 
Q 21.1875 48.484375 17.84375 46.4375 
Q 14.5 44.390625 14.5 40.28125 
Q 14.5 37.15625 16.890625 35.375 
Q 19.28125 33.59375 26.515625 31.984375 
L 29.59375 31.296875 
Q 39.15625 29.25 43.1875 25.515625 
Q 47.21875 21.78125 47.21875 15.09375 
Q 47.21875 7.46875 41.1875 3.015625 
Q 35.15625 -1.421875 24.609375 -1.421875 
Q 20.21875 -1.421875 15.453125 -0.5625 
Q 10.6875 0.296875 5.421875 2 
L 5.421875 11.28125 
Q 10.40625 8.6875 15.234375 7.390625 
Q 20.0625 6.109375 24.8125 6.109375 
Q 31.15625 6.109375 34.5625 8.28125 
Q 37.984375 10.453125 37.984375 14.40625 
Q 37.984375 18.0625 35.515625 20.015625 
Q 33.0625 21.96875 24.703125 23.78125 
L 21.578125 24.515625 
Q 13.234375 26.265625 9.515625 29.90625 
Q 5.8125 33.546875 5.8125 39.890625 
Q 5.8125 47.609375 11.28125 51.796875 
Q 16.75 56 26.8125 56 
Q 31.78125 56 36.171875 55.265625 
Q 40.578125 54.546875 44.28125 53.078125 
z
" id="DejaVuSans-73"/>
      <path d="M 9.421875 54.6875 
L 18.40625 54.6875 
L 18.40625 0 
L 9.421875 0 
z
M 9.421875 75.984375 
L 18.40625 75.984375 
L 18.40625 64.59375 
L 9.421875 64.59375 
z
" id="DejaVuSans-69"/>
      <path d="M 18.3125 70.21875 
L 18.3125 54.6875 
L 36.8125 54.6875 
L 36.8125 47.703125 
L 18.3125 47.703125 
L 18.3125 18.015625 
Q 18.3125 11.328125 20.140625 9.421875 
Q 21.96875 7.515625 27.59375 7.515625 
L 36.8125 7.515625 
L 36.8125 0 
L 27.59375 0 
Q 17.1875 0 13.234375 3.875 
Q 9.28125 7.765625 9.28125 18.015625 
L 9.28125 47.703125 
L 2.6875 47.703125 
L 2.6875 54.6875 
L 9.28125 54.6875 
L 9.28125 70.21875 
z
" id="DejaVuSans-74"/>
      <path d="M 54.890625 33.015625 
L 54.890625 0 
L 45.90625 0 
L 45.90625 32.71875 
Q 45.90625 40.484375 42.875 44.328125 
Q 39.84375 48.1875 33.796875 48.1875 
Q 26.515625 48.1875 22.3125 43.546875 
Q 18.109375 38.921875 18.109375 30.90625 
L 18.109375 0 
L 9.078125 0 
L 9.078125 54.6875 
L 18.109375 54.6875 
L 18.109375 46.1875 
Q 21.34375 51.125 25.703125 53.5625 
Q 30.078125 56 35.796875 56 
Q 45.21875 56 50.046875 50.171875 
Q 54.890625 44.34375 54.890625 33.015625 
z
" id="DejaVuSans-6e"/>
      <path id="DejaVuSans-20"/>
      <path d="M 8.59375 75.984375 
L 29.296875 75.984375 
L 29.296875 69 
L 17.578125 69 
L 17.578125 -6.203125 
L 29.296875 -6.203125 
L 29.296875 -13.1875 
L 8.59375 -13.1875 
z
" id="DejaVuSans-5b"/>
      <path d="M 52 44.1875 
Q 55.375 50.25 60.0625 53.125 
Q 64.75 56 71.09375 56 
Q 79.640625 56 84.28125 50.015625 
Q 88.921875 44.046875 88.921875 33.015625 
L 88.921875 0 
L 79.890625 0 
L 79.890625 32.71875 
Q 79.890625 40.578125 77.09375 44.375 
Q 74.3125 48.1875 68.609375 48.1875 
Q 61.625 48.1875 57.5625 43.546875 
Q 53.515625 38.921875 53.515625 30.90625 
L 53.515625 0 
L 44.484375 0 
L 44.484375 32.71875 
Q 44.484375 40.625 41.703125 44.40625 
Q 38.921875 48.1875 33.109375 48.1875 
Q 26.21875 48.1875 22.15625 43.53125 
Q 18.109375 38.875 18.109375 30.90625 
L 18.109375 0 
L 9.078125 0 
L 9.078125 54.6875 
L 18.109375 54.6875 
L 18.109375 46.1875 
Q 21.1875 51.21875 25.484375 53.609375 
Q 29.78125 56 35.6875 56 
Q 41.65625 56 45.828125 52.96875 
Q 50 49.953125 52 44.1875 
z
" id="DejaVuSans-6d"/>
      <path d="M 30.421875 75.984375 
L 30.421875 -13.1875 
L 9.71875 -13.1875 
L 9.71875 -6.203125 
L 21.390625 -6.203125 
L 21.390625 69 
L 9.71875 69 
L 9.71875 75.984375 
z
" id="DejaVuSans-5d"/>
     </defs>
     <g transform="translate(250.487522 106.568563)scale(0.1 -0.1)">
      <use xlink:href="#DejaVuSans-50"/>
      <use x="60.255859" xlink:href="#DejaVuSans-6f"/>
      <use x="121.4375" xlink:href="#DejaVuSans-73"/>
      <use x="173.537109" xlink:href="#DejaVuSans-69"/>
      <use x="201.320312" xlink:href="#DejaVuSans-74"/>
      <use x="240.529297" xlink:href="#DejaVuSans-69"/>
      <use x="268.3125" xlink:href="#DejaVuSans-6f"/>
      <use x="329.494141" xlink:href="#DejaVuSans-6e"/>
      <use x="392.873047" xlink:href="#DejaVuSans-20"/>
      <use x="424.660156" xlink:href="#DejaVuSans-5b"/>
      <use x="463.673828" xlink:href="#DejaVuSans-6d"/>
      <use x="561.085938" xlink:href="#DejaVuSans-5d"/>
     </g>
    </g>
   </g>
   <g id="matplotlib.axis_2">
    <g id="ytick_1">
     <g id="line2d_15">
      <defs>
       <path d="M 0 0 
L 3.5 0 
" id="m2ab73aef62" style="stroke:#000000;stroke-width:0.8;"/>
      </defs>
      <g>
       <use style="stroke:#000000;stroke-width:0.8;" x="58.32" xlink:href="#m2ab73aef62" y="81.792"/>
      </g>
     </g>
     <g id="line2d_16">
      <defs>
       <path d="M 0 0 
L -3.5 0 
" id="m255e800c69" style="stroke:#000000;stroke-width:0.8;"/>
      </defs>
      <g>
       <use style="stroke:#000000;stroke-width:0.8;" x="502.662857" xlink:href="#m255e800c69" y="81.792"/>
      </g>
     </g>
     <g id="text_9">
      <!-- −0.2 -->
      <defs>
       <path d="M 10.59375 35.5 
L 73.1875 35.5 
L 73.1875 27.203125 
L 10.59375 27.203125 
z
" id="DejaVuSans-2212"/>
       <path d="M 10.6875 12.40625 
L 21 12.40625 
L 21 0 
L 10.6875 0 
z
" id="DejaVuSans-2e"/>
      </defs>
      <g transform="translate(30.537187 85.591219)scale(0.1 -0.1)">
       <use xlink:href="#DejaVuSans-2212"/>
       <use x="83.789062" xlink:href="#DejaVuSans-30"/>
       <use x="147.412109" xlink:href="#DejaVuSans-2e"/>
       <use x="179.199219" xlink:href="#DejaVuSans-32"/>
      </g>
     </g>
    </g>
    <g id="ytick_2">
     <g id="line2d_17">
      <g>
       <use style="stroke:#000000;stroke-width:0.8;" x="58.32" xlink:href="#m2ab73aef62" y="47.808"/>
      </g>
     </g>
     <g id="line2d_18">
      <g>
       <use style="stroke:#000000;stroke-width:0.8;" x="502.662857" xlink:href="#m255e800c69" y="47.808"/>
      </g>
     </g>
     <g id="text_10">
      <!-- 0.0 -->
      <g transform="translate(38.916875 51.607219)scale(0.1 -0.1)">
       <use xlink:href="#DejaVuSans-30"/>
       <use x="63.623047" xlink:href="#DejaVuSans-2e"/>
       <use x="95.410156" xlink:href="#DejaVuSans-30"/>
      </g>
     </g>
    </g>
    <g id="ytick_3">
     <g id="line2d_19">
      <g>
       <use style="stroke:#000000;stroke-width:0.8;" x="58.32" xlink:href="#m2ab73aef62" y="13.824"/>
      </g>
     </g>
     <g id="line2d_20">
      <g>
       <use style="stroke:#000000;stroke-width:0.8;" x="502.662857" xlink:href="#m255e800c69" y="13.824"/>
      </g>
     </g>
     <g id="text_11">
      <!-- 0.2 -->
      <g transform="translate(38.916875 17.623219)scale(0.1 -0.1)">
       <use xlink:href="#DejaVuSans-30"/>
       <use x="63.623047" xlink:href="#DejaVuSans-2e"/>
       <use x="95.410156" xlink:href="#DejaVuSans-32"/>
      </g>
     </g>
    </g>
    <g id="text_12">
     <!-- Distance to -->
     <defs>
      <path d="M 19.671875 64.796875 
L 19.671875 8.109375 
L 31.59375 8.109375 
Q 46.6875 8.109375 53.6875 14.9375 
Q 60.6875 21.78125 60.6875 36.53125 
Q 60.6875 51.171875 53.6875 57.984375 
Q 46.6875 64.796875 31.59375 64.796875 
z
M 9.8125 72.90625 
L 30.078125 72.90625 
Q 51.265625 72.90625 61.171875 64.09375 
Q 71.09375 55.28125 71.09375 36.53125 
Q 71.09375 17.671875 61.125 8.828125 
Q 51.171875 0 30.078125 0 
L 9.8125 0 
z
" id="DejaVuSans-44"/>
      <path d="M 34.28125 27.484375 
Q 23.390625 27.484375 19.1875 25 
Q 14.984375 22.515625 14.984375 16.5 
Q 14.984375 11.71875 18.140625 8.90625 
Q 21.296875 6.109375 26.703125 6.109375 
Q 34.1875 6.109375 38.703125 11.40625 
Q 43.21875 16.703125 43.21875 25.484375 
L 43.21875 27.484375 
z
M 52.203125 31.203125 
L 52.203125 0 
L 43.21875 0 
L 43.21875 8.296875 
Q 40.140625 3.328125 35.546875 0.953125 
Q 30.953125 -1.421875 24.3125 -1.421875 
Q 15.921875 -1.421875 10.953125 3.296875 
Q 6 8.015625 6 15.921875 
Q 6 25.140625 12.171875 29.828125 
Q 18.359375 34.515625 30.609375 34.515625 
L 43.21875 34.515625 
L 43.21875 35.40625 
Q 43.21875 41.609375 39.140625 45 
Q 35.0625 48.390625 27.6875 48.390625 
Q 23 48.390625 18.546875 47.265625 
Q 14.109375 46.140625 10.015625 43.890625 
L 10.015625 52.203125 
Q 14.9375 54.109375 19.578125 55.046875 
Q 24.21875 56 28.609375 56 
Q 40.484375 56 46.34375 49.84375 
Q 52.203125 43.703125 52.203125 31.203125 
z
" id="DejaVuSans-61"/>
      <path d="M 48.78125 52.59375 
L 48.78125 44.1875 
Q 44.96875 46.296875 41.140625 47.34375 
Q 37.3125 48.390625 33.40625 48.390625 
Q 24.65625 48.390625 19.8125 42.84375 
Q 14.984375 37.3125 14.984375 27.296875 
Q 14.984375 17.28125 19.8125 11.734375 
Q 24.65625 6.203125 33.40625 6.203125 
Q 37.3125 6.203125 41.140625 7.25 
Q 44.96875 8.296875 48.78125 10.40625 
L 48.78125 2.09375 
Q 45.015625 0.34375 40.984375 -0.53125 
Q 36.96875 -1.421875 32.421875 -1.421875 
Q 20.0625 -1.421875 12.78125 6.34375 
Q 5.515625 14.109375 5.515625 27.296875 
Q 5.515625 40.671875 12.859375 48.328125 
Q 20.21875 56 33.015625 56 
Q 37.15625 56 41.109375 55.140625 
Q 45.0625 54.296875 48.78125 52.59375 
z
" id="DejaVuSans-63"/>
      <path d="M 56.203125 29.59375 
L 56.203125 25.203125 
L 14.890625 25.203125 
Q 15.484375 15.921875 20.484375 11.0625 
Q 25.484375 6.203125 34.421875 6.203125 
Q 39.59375 6.203125 44.453125 7.46875 
Q 49.3125 8.734375 54.109375 11.28125 
L 54.109375 2.78125 
Q 49.265625 0.734375 44.1875 -0.34375 
Q 39.109375 -1.421875 33.890625 -1.421875 
Q 20.796875 -1.421875 13.15625 6.1875 
Q 5.515625 13.8125 5.515625 26.8125 
Q 5.515625 40.234375 12.765625 48.109375 
Q 20.015625 56 32.328125 56 
Q 43.359375 56 49.78125 48.890625 
Q 56.203125 41.796875 56.203125 29.59375 
z
M 47.21875 32.234375 
Q 47.125 39.59375 43.09375 43.984375 
Q 39.0625 48.390625 32.421875 48.390625 
Q 24.90625 48.390625 20.390625 44.140625 
Q 15.875 39.890625 15.1875 32.171875 
z
" id="DejaVuSans-65"/>
     </defs>
     <g transform="translate(13.259687 76.279094)rotate(-90)scale(0.1 -0.1)">
      <use xlink:href="#DejaVuSans-44"/>
      <use x="77.001953" xlink:href="#DejaVuSans-69"/>
      <use x="104.785156" xlink:href="#DejaVuSans-73"/>
      <use x="156.884766" xlink:href="#DejaVuSans-74"/>
      <use x="196.09375" xlink:href="#DejaVuSans-61"/>
      <use x="257.373047" xlink:href="#DejaVuSans-6e"/>
      <use x="320.751953" xlink:href="#DejaVuSans-63"/>
      <use x="375.732422" xlink:href="#DejaVuSans-65"/>
      <use x="437.255859" xlink:href="#DejaVuSans-20"/>
      <use x="469.042969" xlink:href="#DejaVuSans-74"/>
      <use x="508.251953" xlink:href="#DejaVuSans-6f"/>
     </g>
     <!-- Lane-Center [m] -->
     <defs>
      <path d="M 9.8125 72.90625 
L 19.671875 72.90625 
L 19.671875 8.296875 
L 55.171875 8.296875 
L 55.171875 0 
L 9.8125 0 
z
" id="DejaVuSans-4c"/>
      <path d="M 4.890625 31.390625 
L 31.203125 31.390625 
L 31.203125 23.390625 
L 4.890625 23.390625 
z
" id="DejaVuSans-2d"/>
      <path d="M 64.40625 67.28125 
L 64.40625 56.890625 
Q 59.421875 61.53125 53.78125 63.8125 
Q 48.140625 66.109375 41.796875 66.109375 
Q 29.296875 66.109375 22.65625 58.46875 
Q 16.015625 50.828125 16.015625 36.375 
Q 16.015625 21.96875 22.65625 14.328125 
Q 29.296875 6.6875 41.796875 6.6875 
Q 48.140625 6.6875 53.78125 8.984375 
Q 59.421875 11.28125 64.40625 15.921875 
L 64.40625 5.609375 
Q 59.234375 2.09375 53.4375 0.328125 
Q 47.65625 -1.421875 41.21875 -1.421875 
Q 24.65625 -1.421875 15.125 8.703125 
Q 5.609375 18.84375 5.609375 36.375 
Q 5.609375 53.953125 15.125 64.078125 
Q 24.65625 74.21875 41.21875 74.21875 
Q 47.75 74.21875 53.53125 72.484375 
Q 59.328125 70.75 64.40625 67.28125 
z
" id="DejaVuSans-43"/>
      <path d="M 41.109375 46.296875 
Q 39.59375 47.171875 37.8125 47.578125 
Q 36.03125 48 33.890625 48 
Q 26.265625 48 22.1875 43.046875 
Q 18.109375 38.09375 18.109375 28.8125 
L 18.109375 0 
L 9.078125 0 
L 9.078125 54.6875 
L 18.109375 54.6875 
L 18.109375 46.1875 
Q 20.953125 51.171875 25.484375 53.578125 
Q 30.03125 56 36.53125 56 
Q 37.453125 56 38.578125 55.875 
Q 39.703125 55.765625 41.0625 55.515625 
z
" id="DejaVuSans-72"/>
     </defs>
     <g transform="translate(24.4575 88.897063)rotate(-90)scale(0.1 -0.1)">
      <use xlink:href="#DejaVuSans-4c"/>
      <use x="55.712891" xlink:href="#DejaVuSans-61"/>
      <use x="116.992188" xlink:href="#DejaVuSans-6e"/>
      <use x="180.371094" xlink:href="#DejaVuSans-65"/>
      <use x="241.894531" xlink:href="#DejaVuSans-2d"/>
      <use x="277.978516" xlink:href="#DejaVuSans-43"/>
      <use x="347.802734" xlink:href="#DejaVuSans-65"/>
      <use x="409.326172" xlink:href="#DejaVuSans-6e"/>
      <use x="472.705078" xlink:href="#DejaVuSans-74"/>
      <use x="511.914062" xlink:href="#DejaVuSans-65"/>
      <use x="573.4375" xlink:href="#DejaVuSans-72"/>
      <use x="614.550781" xlink:href="#DejaVuSans-20"/>
      <use x="646.337891" xlink:href="#DejaVuSans-5b"/>
      <use x="685.351562" xlink:href="#DejaVuSans-6d"/>
      <use x="782.763672" xlink:href="#DejaVuSans-5d"/>
     </g>
    </g>
   </g>
   <g id="line2d_21">
    <path clip-path="url(#p46537f3b19)" d="M 58.32 47.808 
L 502.662857 47.808 
" style="fill:none;stroke:#000000;stroke-linecap:square;stroke-width:0.5;"/>
   </g>
   <g id="line2d_22">
    <path clip-path="url(#p46537f3b19)" d="M 127.767781 81.792 
L 127.767781 13.824 
" style="fill:none;stroke:#bfbfbf;stroke-dasharray:5.55,2.4;stroke-dashoffset:0;stroke-width:1.5;"/>
   </g>
   <g id="line2d_23">
    <path clip-path="url(#p46537f3b19)" d="M 176.857525 81.792 
L 176.857525 13.824 
" style="fill:none;stroke:#bfbfbf;stroke-dasharray:5.55,2.4;stroke-dashoffset:0;stroke-width:1.5;"/>
   </g>
   <g id="line2d_24">
    <path clip-path="url(#p46537f3b19)" d="M 246.305306 81.792 
L 246.305306 13.824 
" style="fill:none;stroke:#bfbfbf;stroke-dasharray:5.55,2.4;stroke-dashoffset:0;stroke-width:1.5;"/>
   </g>
   <g id="line2d_25">
    <path clip-path="url(#p46537f3b19)" d="M 344.484794 81.792 
L 344.484794 13.824 
" style="fill:none;stroke:#bfbfbf;stroke-dasharray:5.55,2.4;stroke-dashoffset:0;stroke-width:1.5;"/>
   </g>
   <g id="line2d_26">
    <path clip-path="url(#p46537f3b19)" d="M 404.48337 81.792 
L 404.48337 13.824 
" style="fill:none;stroke:#bfbfbf;stroke-dasharray:5.55,2.4;stroke-dashoffset:0;stroke-width:1.5;"/>
   </g>
   <g id="line2d_27">
    <path clip-path="url(#p46537f3b19)" d="M 58.438195 47.794606 
L 58.437751 47.794388 
L 58.437751 47.794388 
L 59.492861 47.872445 
L 59.492861 47.872445 
L 60.62384 48.181896 
L 60.62384 48.181896 
L 61.399569 48.192318 
L 61.399569 48.192318 
L 62.52379 47.944505 
L 62.52379 47.944505 
L 65.182848 48.473796 
L 65.182848 48.473796 
L 65.558216 48.45039 
L 65.558216 48.45039 
L 67.083075 48.938156 
L 67.083075 48.938156 
L 67.825563 48.874693 
L 67.825563 48.874693 
L 69.363371 49.144939 
L 69.363371 49.144939 
L 70.141149 49.136736 
L 70.141149 49.136736 
L 70.899165 49.15687 
L 70.899165 49.15687 
L 71.647736 48.994862 
L 71.647736 48.994862 
L 71.991095 49.08326 
L 71.991095 49.08326 
L 72.370612 48.992148 
L 72.370612 48.992148 
L 72.737871 48.761584 
L 72.737871 48.761584 
L 75.424183 48.209738 
L 75.424183 48.209738 
L 76.186579 47.939522 
L 76.186579 47.939522 
L 78.429285 47.727624 
L 78.429285 47.727624 
L 82.228426 46.838693 
L 82.228426 46.838693 
L 82.580773 46.986385 
L 82.580773 46.986385 
L 84.508824 46.682605 
L 84.508824 46.682605 
L 84.892047 46.613633 
L 84.892047 46.613633 
L 86.06764 46.687932 
L 86.06764 46.687932 
L 86.810939 46.786797 
L 86.810939 46.786797 
L 88.357012 47.242355 
L 88.357012 47.242355 
L 88.709166 47.177131 
L 88.709166 47.177131 
L 89.093171 47.321597 
L 89.093171 47.321597 
L 91.046171 48.713192 
L 91.046171 48.713192 
L 92.596285 49.737104 
L 92.596285 49.737104 
L 93.348412 50.311019 
L 93.348412 50.311019 
L 95.279642 51.074712 
L 95.279642 51.074712 
L 96.824894 51.731494 
L 96.824894 51.731494 
L 97.200176 51.743283 
L 97.200176 51.743283 
L 99.446426 52.717558 
L 99.446426 52.717558 
L 100.2046 52.736447 
L 100.2046 52.736447 
L 101.718545 53.296213 
L 101.718545 53.296213 
L 102.829099 53.193889 
L 102.829099 53.193889 
L 103.172226 53.196523 
L 103.172226 53.196523 
L 103.54884 52.998813 
L 103.54884 52.998813 
L 106.183525 50.635814 
L 106.183525 50.635814 
L 107.330453 49.026421 
L 107.330453 49.026421 
L 109.621514 46.109703 
L 109.621514 46.109703 
L 110.362004 44.85395 
L 110.362004 44.85395 
L 111.501071 42.762382 
L 111.501071 42.762382 
L 113.392377 39.484519 
L 113.392377 39.484519 
L 114.165579 38.285781 
L 114.165579 38.285781 
L 114.905646 37.060777 
L 114.905646 37.060777 
L 117.485989 33.95624 
L 117.485989 33.95624 
L 118.240985 33.649041 
L 118.240985 33.649041 
L 119.391787 33.627109 
L 119.391787 33.627109 
L 120.151617 33.832333 
L 120.151617 33.832333 
L 120.882995 34.156263 
L 120.882995 34.156263 
L 121.620644 34.872825 
L 121.620644 34.872825 
L 123.154067 37.444983 
L 123.154067 37.444983 
L 124.618266 40.110532 
L 124.618266 40.110532 
L 131.370861 57.894882 
L 131.370861 57.894882 
L 133.059091 61.70099 
L 133.059091 61.70099 
L 135.264249 66.450993 
L 135.264249 66.450993 
L 136.613229 68.420348 
L 136.613229 68.420348 
L 137.508455 69.623845 
L 137.508455 69.623845 
L 138.86139 71.372484 
L 138.86139 71.372484 
L 139.788859 71.963207 
L 139.788859 71.963207 
L 141.164411 72.624356 
L 141.164411 72.624356 
L 142.029428 72.872663 
L 142.029428 72.872663 
L 142.49607 72.715328 
L 142.49607 72.715328 
L 142.898738 72.370065 
L 142.898738 72.370065 
L 144.712806 71.787814 
L 144.712806 71.787814 
L 145.652934 71.577246 
L 145.652934 71.577246 
L 146.533771 71.17931 
L 146.533771 71.17931 
L 147.469404 71.038931 
L 147.469404 71.038931 
L 148.352805 70.549315 
L 148.352805 70.549315 
L 149.3015 70.146678 
L 149.3015 70.146678 
L 150.675663 68.983386 
L 150.675663 68.983386 
L 153.842144 65.774537 
L 153.842144 65.774537 
L 154.740166 64.563529 
L 154.740166 64.563529 
L 156.902308 61.29387 
L 156.902308 61.29387 
L 158.901056 56.995985 
L 158.901056 56.995985 
L 160.125916 55.050668 
L 160.125916 55.050668 
L 162.59829 51.702361 
L 162.59829 51.702361 
L 163.480693 50.916667 
L 163.480693 50.916667 
L 164.76534 49.324319 
L 164.76534 49.324319 
L 166.869084 46.636698 
L 166.869084 46.636698 
L 170.020659 41.28351 
L 170.020659 41.28351 
L 173.295374 37.366791 
L 173.295374 37.366791 
L 174.51174 35.519278 
L 174.51174 35.519278 
L 176.555728 31.383345 
L 176.555728 31.383345 
L 178.844309 26.288467 
L 178.844309 26.288467 
L 180.724327 23.090281 
L 180.724327 23.090281 
L 183.781739 19.252976 
L 183.781739 19.252976 
L 184.928216 18.01914 
L 184.928216 18.01914 
L 186.455483 16.906192 
L 186.455483 16.906192 
L 187.223834 16.651452 
L 187.223834 16.651452 
L 188.35373 16.517276 
L 188.35373 16.517276 
L 189.490571 16.766992 
L 189.490571 16.766992 
L 189.849647 16.885126 
L 189.849647 16.885126 
L 191.369033 18.306776 
L 191.369033 18.306776 
L 192.444935 19.613209 
L 192.444935 19.613209 
L 193.519317 21.782064 
L 193.519317 21.782064 
L 194.605303 24.884318 
L 194.605303 24.884318 
L 197.885809 35.849643 
L 197.885809 35.849643 
L 200.069484 43.950115 
L 200.069484 43.950115 
L 202.306587 51.299818 
L 202.306587 51.299818 
L 203.381078 54.728112 
L 203.381078 54.728112 
L 204.870246 59.092074 
L 204.870246 59.092074 
L 206.361268 62.82113 
L 206.361268 62.82113 
L 207.893234 66.307925 
L 207.893234 66.307925 
L 208.58937 68.154465 
L 208.58937 68.154465 
L 210.100997 71.211021 
L 210.100997 71.211021 
L 210.837415 72.41893 
L 210.837415 72.41893 
L 213.870397 77.034228 
L 213.870397 77.034228 
L 215.345193 78.694089 
L 215.345193 78.694089 
L 216.060138 79.125786 
L 216.060138 79.125786 
L 217.499434 79.099859 
L 217.499434 79.099859 
L 218.225759 78.578063 
L 218.225759 78.578063 
L 219.303363 77.292857 
L 219.303363 77.292857 
L 219.977762 76.127406 
L 219.977762 76.127406 
L 220.983063 73.715316 
L 220.983063 73.715316 
L 222.03791 70.01948 
L 222.03791 70.01948 
L 223.85339 62.737514 
L 223.85339 62.737514 
L 228.239257 44.170015 
L 228.239257 44.170015 
L 229.698456 39.078456 
L 229.698456 39.078456 
L 231.495503 33.311642 
L 231.495503 33.311642 
L 232.646272 30.721299 
L 232.646272 30.721299 
L 233.781881 28.451002 
L 233.781881 28.451002 
L 235.670704 25.212142 
L 235.670704 25.212142 
L 236.808625 23.994996 
L 236.808625 23.994996 
L 237.175304 23.579667 
L 237.175304 23.579667 
L 237.53875 23.375324 
L 237.53875 23.375324 
L 239.033382 22.001802 
L 239.033382 22.001802 
L 239.389014 21.660204 
L 239.389014 21.660204 
L 240.169561 21.32525 
L 240.169561 21.32525 
L 240.929331 21.171628 
L 240.929331 21.171628 
L 241.67273 21.285872 
L 241.67273 21.285872 
L 242.789291 21.446462 
L 242.789291 21.446462 
L 243.153665 21.625039 
L 243.153665 21.625039 
L 244.271266 22.605918 
L 244.271266 22.605918 
L 245.398941 24.166606 
L 245.398941 24.166606 
L 246.117191 25.443222 
L 246.117191 25.443222 
L 250.44554 34.598267 
L 250.44554 34.598267 
L 253.538273 39.733023 
L 253.538273 39.733023 
L 255.121403 43.680823 
L 255.121403 43.680823 
L 256.386821 47.004212 
L 256.386821 47.004212 
L 259.339573 52.88033 
L 259.339573 52.88033 
L 262.410192 57.482621 
L 262.410192 57.482621 
L 263.696674 58.583877 
L 263.696674 58.583877 
L 265.920288 60.537511 
L 265.920288 60.537511 
L 269.02042 62.517883 
L 269.02042 62.517883 
L 270.332445 63.326129 
L 270.332445 63.326129 
L 271.204457 63.222368 
L 271.204457 63.222368 
L 272.068198 63.184731 
L 272.068198 63.184731 
L 272.949229 63.289193 
L 272.949229 63.289193 
L 274.358818 63.478555 
L 274.358818 63.478555 
L 275.269977 63.270163 
L 275.269977 63.270163 
L 275.697816 63.091296 
L 275.697816 63.091296 
L 276.173728 63.017211 
L 276.173728 63.017211 
L 277.537484 62.396838 
L 277.537484 62.396838 
L 279.318103 61.149022 
L 279.318103 61.149022 
L 280.208948 60.325565 
L 280.208948 60.325565 
L 281.98839 58.277014 
L 281.98839 58.277014 
L 282.882105 57.114519 
L 282.882105 57.114519 
L 285.398406 53.319285 
L 285.398406 53.319285 
L 289.110358 48.794803 
L 289.110358 48.794803 
L 289.92992 48.039135 
L 289.92992 48.039135 
L 290.788104 47.415865 
L 290.788104 47.415865 
L 294.102834 44.345709 
L 294.102834 44.345709 
L 296.55515 42.600591 
L 296.55515 42.600591 
L 297.853091 42.073279 
L 297.853091 42.073279 
L 299.887876 40.714463 
L 299.887876 40.714463 
L 301.100313 40.168485 
L 301.100313 40.168485 
L 302.37127 39.859548 
L 302.37127 39.859548 
L 303.118261 39.455029 
L 303.118261 39.455029 
L 304.785149 39.64519 
L 304.785149 39.64519 
L 306.452132 39.31215 
L 306.452132 39.31215 
L 306.828491 39.155237 
L 306.828491 39.155237 
L 309.356368 39.165904 
L 309.356368 39.165904 
L 309.789162 39.106569 
L 309.789162 39.106569 
L 310.568287 38.721775 
L 310.568287 38.721775 
L 312.122868 38.524118 
L 312.122868 38.524118 
L 313.38551 39.146913 
L 313.38551 39.146913 
L 313.797294 39.231912 
L 313.797294 39.231912 
L 315.392752 39.206446 
L 315.392752 39.206446 
L 316.210753 39.558773 
L 316.210753 39.558773 
L 317.875846 39.817129 
L 317.875846 39.817129 
L 320.318473 40.143127 
L 320.318473 40.143127 
L 320.731664 40.322314 
L 320.731664 40.322314 
L 322.326519 40.600385 
L 322.326519 40.600385 
L 323.148514 40.968755 
L 323.148514 40.968755 
L 324.27537 41.552654 
L 324.27537 41.552654 
L 325.920491 43.793844 
L 325.920491 43.793844 
L 328.366187 47.29565 
L 328.366187 47.29565 
L 329.210719 48.563698 
L 329.210719 48.563698 
L 329.558218 48.874446 
L 329.558218 48.874446 
L 330.342132 50.350291 
L 330.342132 50.350291 
L 331.197866 51.749886 
L 331.197866 51.749886 
L 332.457038 53.629464 
L 332.457038 53.629464 
L 333.697549 55.67891 
L 333.697549 55.67891 
L 335.385927 58.324701 
L 335.385927 58.324701 
L 337.605186 60.808435 
L 337.605186 60.808435 
L 338.018436 61.221993 
L 338.018436 61.221993 
L 338.452651 61.429612 
L 338.452651 61.429612 
L 339.802393 61.581847 
L 339.802393 61.581847 
L 340.258484 61.472174 
L 340.258484 61.472174 
L 341.555062 60.726722 
L 341.555062 60.726722 
L 342.456351 59.597532 
L 342.456351 59.597532 
L 344.609744 56.131144 
L 344.609744 56.131144 
L 345.983711 53.140232 
L 345.983711 53.140232 
L 349.741976 45.279681 
L 349.741976 45.279681 
L 351.83079 41.505901 
L 351.83079 41.505901 
L 352.519753 40.358389 
L 352.519753 40.358389 
L 353.230792 39.184854 
L 353.230792 39.184854 
L 354.95023 36.354556 
L 354.95023 36.354556 
L 356.377862 34.027125 
L 356.377862 34.027125 
L 358.512815 31.524331 
L 358.512815 31.524331 
L 359.204137 30.876355 
L 359.204137 30.876355 
L 360.309972 29.731903 
L 360.309972 29.731903 
L 361.39612 29.245085 
L 361.39612 29.245085 
L 361.732151 29.243282 
L 361.732151 29.243282 
L 362.478414 28.96325 
L 362.478414 28.96325 
L 364.263946 29.00131 
L 364.263946 29.00131 
L 365.39848 29.0072 
L 365.39848 29.0072 
L 366.153717 29.290531 
L 366.153717 29.290531 
L 367.600211 30.264019 
L 367.600211 30.264019 
L 368.678846 30.974087 
L 368.678846 30.974087 
L 369.022618 31.11365 
L 369.022618 31.11365 
L 369.747858 31.915083 
L 369.747858 31.915083 
L 370.472968 32.779432 
L 370.472968 32.779432 
L 371.550632 34.584815 
L 371.550632 34.584815 
L 372.627678 37.071208 
L 372.627678 37.071208 
L 373.292072 39.019477 
L 373.292072 39.019477 
L 377.644722 51.879415 
L 377.644722 51.879415 
L 379.2411 55.955845 
L 379.2411 55.955845 
L 380.573118 58.183251 
L 380.573118 58.183251 
L 381.93112 60.354271 
L 381.93112 60.354271 
L 382.858115 61.99254 
L 382.858115 61.99254 
L 383.809906 63.151244 
L 383.809906 63.151244 
L 384.163467 63.347913 
L 384.163467 63.347913 
L 385.107271 64.215441 
L 385.107271 64.215441 
L 385.406825 64.452796 
L 385.406825 64.452796 
L 386.080405 64.543077 
L 386.080405 64.543077 
L 386.755448 64.604183 
L 386.755448 64.604183 
L 388.035177 64.912112 
L 388.035177 64.912112 
L 389.06973 64.628788 
L 389.06973 64.628788 
L 389.402003 64.621258 
L 389.402003 64.621258 
L 390.71367 65.056205 
L 390.71367 65.056205 
L 391.751779 65.057839 
L 391.751779 65.057839 
L 392.714979 65.444214 
L 392.714979 65.444214 
L 393.031749 65.356139 
L 393.031749 65.356139 
L 394.370262 65.894245 
L 394.370262 65.894245 
L 395.354171 66.405345 
L 395.354171 66.405345 
L 395.677232 66.410897 
L 395.677232 66.410897 
L 399.546651 68.560976 
L 399.546651 68.560976 
L 400.518804 68.411312 
L 400.518804 68.411312 
L 400.801113 68.436412 
L 400.801113 68.436412 
L 401.728269 67.834503 
L 401.728269 67.834503 
L 402.021029 67.601874 
L 402.021029 67.601874 
L 402.656553 66.582128 
L 402.656553 66.582128 
L 405.088392 62.449786 
L 405.088392 62.449786 
L 406.363901 59.642392 
L 406.363901 59.642392 
L 409.275187 52.98704 
L 409.275187 52.98704 
L 413.405797 44.227295 
L 413.405797 44.227295 
L 415.012142 41.102433 
L 415.012142 41.102433 
L 416.198227 39.066469 
L 416.198227 39.066469 
L 417.429357 37.285101 
L 417.429357 37.285101 
L 418.656096 35.410643 
L 418.656096 35.410643 
L 420.241121 33.035485 
L 420.241121 33.035485 
L 422.199818 30.533099 
L 422.199818 30.533099 
L 422.978908 29.781195 
L 422.978908 29.781195 
L 423.768065 29.192324 
L 423.768065 29.192324 
L 424.582882 28.679509 
L 424.582882 28.679509 
L 426.558683 27.150187 
L 426.558683 27.150187 
L 428.098068 26.234954 
L 428.098068 26.234954 
L 428.911084 26.097074 
L 428.911084 26.097074 
L 429.660124 25.827869 
L 429.660124 25.827869 
L 430.048206 25.890389 
L 430.048206 25.890389 
L 430.396011 25.826555 
L 430.396011 25.826555 
L 431.183387 26.057678 
L 431.183387 26.057678 
L 432.331267 26.498777 
L 432.331267 26.498777 
L 433.05288 26.866223 
L 433.05288 26.866223 
L 434.250719 28.311147 
L 434.250719 28.311147 
L 435.486806 29.914733 
L 435.486806 29.914733 
L 435.863618 30.250479 
L 435.863618 30.250479 
L 437.442461 32.172445 
L 437.442461 32.172445 
L 438.278638 32.883822 
L 438.278638 32.883822 
L 440.290403 33.993083 
L 440.290403 33.993083 
L 441.060097 34.241634 
L 441.060097 34.241634 
L 441.860755 34.816958 
L 441.860755 34.816958 
L 442.658589 35.39428 
L 442.658589 35.39428 
L 443.868178 36.442078 
L 443.868178 36.442078 
L 449.60147 41.402304 
L 449.60147 41.402304 
L 450.349752 42.074094 
L 450.349752 42.074094 
L 451.875574 44.399976 
L 451.875574 44.399976 
L 454.781751 50.353962 
L 454.781751 50.353962 
L 455.602735 51.930598 
L 455.602735 51.930598 
L 456.911492 54.162493 
L 456.911492 54.162493 
L 458.613166 56.534797 
L 458.613166 56.534797 
L 459.510934 57.790054 
L 459.510934 57.790054 
L 459.961796 58.339439 
L 459.961796 58.339439 
L 460.753972 58.936011 
L 460.753972 58.936011 
L 463.015371 61.727455 
L 463.015371 61.727455 
L 463.912308 62.543813 
L 463.912308 62.543813 
L 464.804655 62.967612 
L 464.804655 62.967612 
L 466.617313 63.402818 
L 466.617313 63.402818 
L 467.038614 63.358026 
L 467.038614 63.358026 
L 468.827575 63.593722 
L 468.827575 63.593722 
L 469.25973 63.563788 
L 469.25973 63.563788 
L 470.16803 63.620543 
L 470.16803 63.620543 
L 473.2876 62.764756 
L 473.2876 62.764756 
L 474.672087 62.035616 
L 474.672087 62.035616 
L 475.569736 61.227645 
L 475.569736 61.227645 
L 476.370843 60.376189 
L 476.370843 60.376189 
L 477.254709 59.817081 
L 477.254709 59.817081 
L 478.181754 59.214378 
L 478.181754 59.214378 
L 481.208928 55.549329 
L 481.208928 55.549329 
L 484.594507 51.083198 
L 484.594507 51.083198 
L 485.846156 49.707933 
L 485.846156 49.707933 
L 486.694605 48.848144 
L 486.694605 48.848144 
L 487.863626 47.660255 
L 487.863626 47.660255 
L 489.16953 47.117406 
L 489.16953 47.117406 
L 490.056846 46.452842 
L 490.056846 46.452842 
L 491.655495 44.871344 
L 491.655495 44.871344 
L 492.963956 44.090925 
L 492.963956 44.090925 
L 497.994631 39.590343 
L 497.994631 39.590343 
L 498.829783 38.341289 
L 498.829783 38.341289 
L 499.602885 37.055595 
L 499.602885 37.055595 
L 501.240541 34.751222 
L 501.240541 34.751222 
" style="fill:none;stroke:#008000;stroke-linecap:square;stroke-width:1.5;"/>
   </g>
   <g id="patch_3">
    <path d="M 58.32 81.792 
L 58.32 13.824 
" style="fill:none;stroke:#000000;stroke-linecap:square;stroke-linejoin:miter;stroke-width:0.8;"/>
   </g>
   <g id="patch_4">
    <path d="M 502.662857 81.792 
L 502.662857 13.824 
" style="fill:none;stroke:#000000;stroke-linecap:square;stroke-linejoin:miter;stroke-width:0.8;"/>
   </g>
   <g id="patch_5">
    <path d="M 58.32 81.792 
L 502.662857 81.792 
" style="fill:none;stroke:#000000;stroke-linecap:square;stroke-linejoin:miter;stroke-width:0.8;"/>
   </g>
   <g id="patch_6">
    <path d="M 58.32 13.824 
L 502.662857 13.824 
" style="fill:none;stroke:#000000;stroke-linecap:square;stroke-linejoin:miter;stroke-width:0.8;"/>
   </g>
  </g>
  <g id="axes_2">
   <g id="patch_7">
    <path d="M 502.662857 81.792 
L 576.72 81.792 
L 576.72 13.824 
L 502.662857 13.824 
z
" style="fill:#ffffff;"/>
   </g>
   <g id="patch_8">
    <path clip-path="url(#p929d6e1f46)" d="M 502.662857 86.8896 
L 502.662857 86.8896 
L 502.662857 85.1904 
L 502.662857 85.1904 
z
" style="fill:#008000;"/>
   </g>
   <g id="patch_9">
    <path clip-path="url(#p929d6e1f46)" d="M 502.662857 85.1904 
L 502.662857 85.1904 
L 502.662857 83.4912 
L 502.662857 83.4912 
z
" style="fill:#008000;"/>
   </g>
   <g id="patch_10">
    <path clip-path="url(#p929d6e1f46)" d="M 502.662857 83.4912 
L 502.662857 83.4912 
L 502.662857 81.792 
L 502.662857 81.792 
z
" style="fill:#008000;"/>
   </g>
   <g id="patch_11">
    <path clip-path="url(#p929d6e1f46)" d="M 502.662857 81.792 
L 502.662857 81.792 
L 502.662857 80.0928 
L 502.662857 80.0928 
z
" style="fill:#008000;"/>
   </g>
   <g id="patch_12">
    <path clip-path="url(#p929d6e1f46)" d="M 502.662857 80.0928 
L 510.287788 80.0928 
L 510.287788 78.3936 
L 502.662857 78.3936 
z
" style="fill:#008000;"/>
   </g>
   <g id="patch_13">
    <path clip-path="url(#p929d6e1f46)" d="M 502.662857 78.3936 
L 509.615 78.3936 
L 509.615 76.6944 
L 502.662857 76.6944 
z
" style="fill:#008000;"/>
   </g>
   <g id="patch_14">
    <path clip-path="url(#p929d6e1f46)" d="M 502.662857 76.6944 
L 507.035979 76.6944 
L 507.035979 74.9952 
L 502.662857 74.9952 
z
" style="fill:#008000;"/>
   </g>
   <g id="patch_15">
    <path clip-path="url(#p929d6e1f46)" d="M 502.662857 74.9952 
L 506.923848 74.9952 
L 506.923848 73.296 
L 502.662857 73.296 
z
" style="fill:#008000;"/>
   </g>
   <g id="patch_16">
    <path clip-path="url(#p929d6e1f46)" d="M 502.662857 73.296 
L 517.239931 73.296 
L 517.239931 71.5968 
L 502.662857 71.5968 
z
" style="fill:#008000;"/>
   </g>
   <g id="patch_17">
    <path clip-path="url(#p929d6e1f46)" d="M 502.662857 71.5968 
L 515.44583 71.5968 
L 515.44583 69.8976 
L 502.662857 69.8976 
z
" style="fill:#008000;"/>
   </g>
   <g id="patch_18">
    <path clip-path="url(#p929d6e1f46)" d="M 502.662857 69.8976 
L 521.276659 69.8976 
L 521.276659 68.1984 
L 502.662857 68.1984 
z
" style="fill:#008000;"/>
   </g>
   <g id="patch_19">
    <path clip-path="url(#p929d6e1f46)" d="M 502.662857 68.1984 
L 527.556014 68.1984 
L 527.556014 66.4992 
L 502.662857 66.4992 
z
" style="fill:#008000;"/>
   </g>
   <g id="patch_20">
    <path clip-path="url(#p929d6e1f46)" d="M 502.662857 66.4992 
L 540.114724 66.4992 
L 540.114724 64.8 
L 502.662857 64.8 
z
" style="fill:#008000;"/>
   </g>
   <g id="patch_21">
    <path clip-path="url(#p929d6e1f46)" d="M 502.662857 64.8 
L 556.261637 64.8 
L 556.261637 63.1008 
L 502.662857 63.1008 
z
" style="fill:#008000;"/>
   </g>
   <g id="patch_22">
    <path clip-path="url(#p929d6e1f46)" d="M 502.662857 63.1008 
L 543.366533 63.1008 
L 543.366533 61.4016 
L 502.662857 61.4016 
z
" style="fill:#008000;"/>
   </g>
   <g id="patch_23">
    <path clip-path="url(#p929d6e1f46)" d="M 502.662857 61.4016 
L 535.629471 61.4016 
L 535.629471 59.7024 
L 502.662857 59.7024 
z
" style="fill:#008000;"/>
   </g>
   <g id="patch_24">
    <path clip-path="url(#p929d6e1f46)" d="M 502.662857 59.7024 
L 533.611107 59.7024 
L 533.611107 58.0032 
L 502.662857 58.0032 
z
" style="fill:#008000;"/>
   </g>
   <g id="patch_25">
    <path clip-path="url(#p929d6e1f46)" d="M 502.662857 58.0032 
L 528.677328 58.0032 
L 528.677328 56.304 
L 502.662857 56.304 
z
" style="fill:#008000;"/>
   </g>
   <g id="patch_26">
    <path clip-path="url(#p929d6e1f46)" d="M 502.662857 56.304 
L 526.434701 56.304 
L 526.434701 54.6048 
L 502.662857 54.6048 
z
" style="fill:#008000;"/>
   </g>
   <g id="patch_27">
    <path clip-path="url(#p929d6e1f46)" d="M 502.662857 54.6048 
L 534.508157 54.6048 
L 534.508157 52.9056 
L 502.662857 52.9056 
z
" style="fill:#008000;"/>
   </g>
   <g id="patch_28">
    <path clip-path="url(#p929d6e1f46)" d="M 502.662857 52.9056 
L 542.133088 52.9056 
L 542.133088 51.2064 
L 502.662857 51.2064 
z
" style="fill:#008000;"/>
   </g>
   <g id="patch_29">
    <path clip-path="url(#p929d6e1f46)" d="M 502.662857 51.2064 
L 537.19931 51.2064 
L 537.19931 49.5072 
L 502.662857 49.5072 
z
" style="fill:#008000;"/>
   </g>
   <g id="patch_30">
    <path clip-path="url(#p929d6e1f46)" d="M 502.662857 49.5072 
L 573.193469 49.5072 
L 573.193469 47.808 
L 502.662857 47.808 
z
" style="fill:#008000;"/>
   </g>
   <g id="patch_31">
    <path clip-path="url(#p929d6e1f46)" d="M 502.662857 47.808 
L 555.588849 47.808 
L 555.588849 46.1088 
L 502.662857 46.1088 
z
" style="fill:#008000;"/>
   </g>
   <g id="patch_32">
    <path clip-path="url(#p929d6e1f46)" d="M 502.662857 46.1088 
L 531.36848 46.1088 
L 531.36848 44.4096 
L 502.662857 44.4096 
z
" style="fill:#008000;"/>
   </g>
   <g id="patch_33">
    <path clip-path="url(#p929d6e1f46)" d="M 502.662857 44.4096 
L 533.611107 44.4096 
L 533.611107 42.7104 
L 502.662857 42.7104 
z
" style="fill:#008000;"/>
   </g>
   <g id="patch_34">
    <path clip-path="url(#p929d6e1f46)" d="M 502.662857 42.7104 
L 538.432754 42.7104 
L 538.432754 41.0112 
L 502.662857 41.0112 
z
" style="fill:#008000;"/>
   </g>
   <g id="patch_35">
    <path clip-path="url(#p929d6e1f46)" d="M 502.662857 41.0112 
L 555.813112 41.0112 
L 555.813112 39.312 
L 502.662857 39.312 
z
" style="fill:#008000;"/>
   </g>
   <g id="patch_36">
    <path clip-path="url(#p929d6e1f46)" d="M 502.662857 39.312 
L 548.524575 39.312 
L 548.524575 37.6128 
L 502.662857 37.6128 
z
" style="fill:#008000;"/>
   </g>
   <g id="patch_37">
    <path clip-path="url(#p929d6e1f46)" d="M 502.662857 37.6128 
L 526.658964 37.6128 
L 526.658964 35.9136 
L 502.662857 35.9136 
z
" style="fill:#008000;"/>
   </g>
   <g id="patch_38">
    <path clip-path="url(#p929d6e1f46)" d="M 502.662857 35.9136 
L 528.90159 35.9136 
L 528.90159 34.2144 
L 502.662857 34.2144 
z
" style="fill:#008000;"/>
   </g>
   <g id="patch_39">
    <path clip-path="url(#p929d6e1f46)" d="M 502.662857 34.2144 
L 532.601925 34.2144 
L 532.601925 32.5152 
L 502.662857 32.5152 
z
" style="fill:#008000;"/>
   </g>
   <g id="patch_40">
    <path clip-path="url(#p929d6e1f46)" d="M 502.662857 32.5152 
L 528.677328 32.5152 
L 528.677328 30.816 
L 502.662857 30.816 
z
" style="fill:#008000;"/>
   </g>
   <g id="patch_41">
    <path clip-path="url(#p929d6e1f46)" d="M 502.662857 30.816 
L 536.750784 30.816 
L 536.750784 29.1168 
L 502.662857 29.1168 
z
" style="fill:#008000;"/>
   </g>
   <g id="patch_42">
    <path clip-path="url(#p929d6e1f46)" d="M 502.662857 29.1168 
L 528.228802 29.1168 
L 528.228802 27.4176 
L 502.662857 27.4176 
z
" style="fill:#008000;"/>
   </g>
   <g id="patch_43">
    <path clip-path="url(#p929d6e1f46)" d="M 502.662857 27.4176 
L 525.649782 27.4176 
L 525.649782 25.7184 
L 502.662857 25.7184 
z
" style="fill:#008000;"/>
   </g>
   <g id="patch_44">
    <path clip-path="url(#p929d6e1f46)" d="M 502.662857 25.7184 
L 510.175657 25.7184 
L 510.175657 24.0192 
L 502.662857 24.0192 
z
" style="fill:#008000;"/>
   </g>
   <g id="patch_45">
    <path clip-path="url(#p929d6e1f46)" d="M 502.662857 24.0192 
L 512.418284 24.0192 
L 512.418284 22.32 
L 502.662857 22.32 
z
" style="fill:#008000;"/>
   </g>
   <g id="patch_46">
    <path clip-path="url(#p929d6e1f46)" d="M 502.662857 22.32 
L 515.557961 22.32 
L 515.557961 20.6208 
L 502.662857 20.6208 
z
" style="fill:#008000;"/>
   </g>
   <g id="patch_47">
    <path clip-path="url(#p929d6e1f46)" d="M 502.662857 20.6208 
L 507.372373 20.6208 
L 507.372373 18.9216 
L 502.662857 18.9216 
z
" style="fill:#008000;"/>
   </g>
   <g id="patch_48">
    <path clip-path="url(#p929d6e1f46)" d="M 502.662857 18.9216 
L 508.942212 18.9216 
L 508.942212 17.2224 
L 502.662857 17.2224 
z
" style="fill:#008000;"/>
   </g>
   <g id="patch_49">
    <path clip-path="url(#p929d6e1f46)" d="M 502.662857 17.2224 
L 511.072708 17.2224 
L 511.072708 15.5232 
L 502.662857 15.5232 
z
" style="fill:#008000;"/>
   </g>
   <g id="patch_50">
    <path clip-path="url(#p929d6e1f46)" d="M 502.662857 15.5232 
L 502.662857 15.5232 
L 502.662857 13.824 
L 502.662857 13.824 
z
" style="fill:#008000;"/>
   </g>
   <g id="patch_51">
    <path clip-path="url(#p929d6e1f46)" d="M 502.662857 13.824 
L 502.662857 13.824 
L 502.662857 12.1248 
L 502.662857 12.1248 
z
" style="fill:#008000;"/>
   </g>
   <g id="patch_52">
    <path clip-path="url(#p929d6e1f46)" d="M 502.662857 12.1248 
L 502.662857 12.1248 
L 502.662857 10.4256 
L 502.662857 10.4256 
z
" style="fill:#008000;"/>
   </g>
   <g id="patch_53">
    <path clip-path="url(#p929d6e1f46)" d="M 502.662857 10.4256 
L 502.662857 10.4256 
L 502.662857 8.7264 
L 502.662857 8.7264 
z
" style="fill:#008000;"/>
   </g>
   <g id="matplotlib.axis_3">
    <g id="xtick_8">
     <g id="line2d_28">
      <g>
       <use style="stroke:#000000;stroke-width:0.8;" x="502.662857" xlink:href="#m611eea0b4a" y="81.792"/>
      </g>
     </g>
     <g id="line2d_29">
      <g>
       <use style="stroke:#000000;stroke-width:0.8;" x="502.662857" xlink:href="#mf006f1d2ea" y="13.824"/>
      </g>
     </g>
    </g>
    <g id="xtick_9">
     <g id="line2d_30">
      <g>
       <use style="stroke:#000000;stroke-width:0.8;" x="552.74632" xlink:href="#m611eea0b4a" y="81.792"/>
      </g>
     </g>
     <g id="line2d_31">
      <g>
       <use style="stroke:#000000;stroke-width:0.8;" x="552.74632" xlink:href="#mf006f1d2ea" y="13.824"/>
      </g>
     </g>
    </g>
    <g id="text_13">
     <!-- Histogram -->
     <defs>
      <path d="M 9.8125 72.90625 
L 19.671875 72.90625 
L 19.671875 43.015625 
L 55.515625 43.015625 
L 55.515625 72.90625 
L 65.375 72.90625 
L 65.375 0 
L 55.515625 0 
L 55.515625 34.71875 
L 19.671875 34.71875 
L 19.671875 0 
L 9.8125 0 
z
" id="DejaVuSans-48"/>
      <path d="M 45.40625 27.984375 
Q 45.40625 37.75 41.375 43.109375 
Q 37.359375 48.484375 30.078125 48.484375 
Q 22.859375 48.484375 18.828125 43.109375 
Q 14.796875 37.75 14.796875 27.984375 
Q 14.796875 18.265625 18.828125 12.890625 
Q 22.859375 7.515625 30.078125 7.515625 
Q 37.359375 7.515625 41.375 12.890625 
Q 45.40625 18.265625 45.40625 27.984375 
z
M 54.390625 6.78125 
Q 54.390625 -7.171875 48.1875 -13.984375 
Q 42 -20.796875 29.203125 -20.796875 
Q 24.46875 -20.796875 20.265625 -20.09375 
Q 16.0625 -19.390625 12.109375 -17.921875 
L 12.109375 -9.1875 
Q 16.0625 -11.328125 19.921875 -12.34375 
Q 23.78125 -13.375 27.78125 -13.375 
Q 36.625 -13.375 41.015625 -8.765625 
Q 45.40625 -4.15625 45.40625 5.171875 
L 45.40625 9.625 
Q 42.625 4.78125 38.28125 2.390625 
Q 33.9375 0 27.875 0 
Q 17.828125 0 11.671875 7.65625 
Q 5.515625 15.328125 5.515625 27.984375 
Q 5.515625 40.671875 11.671875 48.328125 
Q 17.828125 56 27.875 56 
Q 33.9375 56 38.28125 53.609375 
Q 42.625 51.21875 45.40625 46.390625 
L 45.40625 54.6875 
L 54.390625 54.6875 
z
" id="DejaVuSans-67"/>
     </defs>
     <g transform="translate(513.753929 96.890438)scale(0.1 -0.1)">
      <use xlink:href="#DejaVuSans-48"/>
      <use x="75.195312" xlink:href="#DejaVuSans-69"/>
      <use x="102.978516" xlink:href="#DejaVuSans-73"/>
      <use x="155.078125" xlink:href="#DejaVuSans-74"/>
      <use x="194.287109" xlink:href="#DejaVuSans-6f"/>
      <use x="255.46875" xlink:href="#DejaVuSans-67"/>
      <use x="318.945312" xlink:href="#DejaVuSans-72"/>
      <use x="360.058594" xlink:href="#DejaVuSans-61"/>
      <use x="421.337891" xlink:href="#DejaVuSans-6d"/>
     </g>
    </g>
   </g>
   <g id="matplotlib.axis_4">
    <g id="ytick_4">
     <g id="line2d_32">
      <g>
       <use style="stroke:#000000;stroke-width:0.8;" x="502.662857" xlink:href="#m2ab73aef62" y="81.792"/>
      </g>
     </g>
    </g>
    <g id="ytick_5">
     <g id="line2d_33">
      <g>
       <use style="stroke:#000000;stroke-width:0.8;" x="502.662857" xlink:href="#m2ab73aef62" y="47.808"/>
      </g>
     </g>
    </g>
    <g id="ytick_6">
     <g id="line2d_34">
      <g>
       <use style="stroke:#000000;stroke-width:0.8;" x="502.662857" xlink:href="#m2ab73aef62" y="13.824"/>
      </g>
     </g>
    </g>
   </g>
   <g id="line2d_35">
    <path clip-path="url(#p929d6e1f46)" d="M 502.662857 47.808 
L 576.72 47.808 
" style="fill:none;stroke:#000000;stroke-linecap:square;stroke-width:0.5;"/>
   </g>
   <g id="patch_54">
    <path d="M 502.662857 81.792 
L 502.662857 13.824 
" style="fill:none;stroke:#000000;stroke-linecap:square;stroke-linejoin:miter;stroke-width:0.8;"/>
   </g>
   <g id="patch_55">
    <path d="M 576.72 81.792 
L 576.72 13.824 
" style="fill:none;stroke:#000000;stroke-linecap:square;stroke-linejoin:miter;stroke-width:0.8;"/>
   </g>
   <g id="patch_56">
    <path d="M 502.662857 81.792 
L 576.72 81.792 
" style="fill:none;stroke:#000000;stroke-linecap:square;stroke-linejoin:miter;stroke-width:0.8;"/>
   </g>
   <g id="patch_57">
    <path d="M 502.662857 13.824 
L 576.72 13.824 
" style="fill:none;stroke:#000000;stroke-linecap:square;stroke-linejoin:miter;stroke-width:0.8;"/>
   </g>
   <g id="text_14">
    <!-- R-STDP  -->
    <defs>
     <path d="M 44.390625 34.1875 
Q 47.5625 33.109375 50.5625 29.59375 
Q 53.5625 26.078125 56.59375 19.921875 
L 66.609375 0 
L 56 0 
L 46.6875 18.703125 
Q 43.0625 26.03125 39.671875 28.421875 
Q 36.28125 30.8125 30.421875 30.8125 
L 19.671875 30.8125 
L 19.671875 0 
L 9.8125 0 
L 9.8125 72.90625 
L 32.078125 72.90625 
Q 44.578125 72.90625 50.734375 67.671875 
Q 56.890625 62.453125 56.890625 51.90625 
Q 56.890625 45.015625 53.6875 40.46875 
Q 50.484375 35.9375 44.390625 34.1875 
z
M 19.671875 64.796875 
L 19.671875 38.921875 
L 32.078125 38.921875 
Q 39.203125 38.921875 42.84375 42.21875 
Q 46.484375 45.515625 46.484375 51.90625 
Q 46.484375 58.296875 42.84375 61.546875 
Q 39.203125 64.796875 32.078125 64.796875 
z
" id="DejaVuSans-52"/>
     <path d="M 53.515625 70.515625 
L 53.515625 60.890625 
Q 47.90625 63.578125 42.921875 64.890625 
Q 37.9375 66.21875 33.296875 66.21875 
Q 25.25 66.21875 20.875 63.09375 
Q 16.5 59.96875 16.5 54.203125 
Q 16.5 49.359375 19.40625 46.890625 
Q 22.3125 44.4375 30.421875 42.921875 
L 36.375 41.703125 
Q 47.40625 39.59375 52.65625 34.296875 
Q 57.90625 29 57.90625 20.125 
Q 57.90625 9.515625 50.796875 4.046875 
Q 43.703125 -1.421875 29.984375 -1.421875 
Q 24.8125 -1.421875 18.96875 -0.25 
Q 13.140625 0.921875 6.890625 3.21875 
L 6.890625 13.375 
Q 12.890625 10.015625 18.65625 8.296875 
Q 24.421875 6.59375 29.984375 6.59375 
Q 38.421875 6.59375 43.015625 9.90625 
Q 47.609375 13.234375 47.609375 19.390625 
Q 47.609375 24.75 44.3125 27.78125 
Q 41.015625 30.8125 33.5 32.328125 
L 27.484375 33.5 
Q 16.453125 35.6875 11.515625 40.375 
Q 6.59375 45.0625 6.59375 53.421875 
Q 6.59375 63.09375 13.40625 68.65625 
Q 20.21875 74.21875 32.171875 74.21875 
Q 37.3125 74.21875 42.625 73.28125 
Q 47.953125 72.359375 53.515625 70.515625 
z
" id="DejaVuSans-53"/>
     <path d="M -0.296875 72.90625 
L 61.375 72.90625 
L 61.375 64.59375 
L 35.5 64.59375 
L 35.5 0 
L 25.59375 0 
L 25.59375 64.59375 
L -0.296875 64.59375 
z
" id="DejaVuSans-54"/>
    </defs>
    <g transform="translate(584.125714 39.802775)scale(0.1 -0.1)">
     <use xlink:href="#DejaVuSans-52"/>
     <use x="69.419922" xlink:href="#DejaVuSans-2d"/>
     <use x="105.503906" xlink:href="#DejaVuSans-53"/>
     <use x="168.980469" xlink:href="#DejaVuSans-54"/>
     <use x="230.064453" xlink:href="#DejaVuSans-44"/>
     <use x="307.066406" xlink:href="#DejaVuSans-50"/>
     <use x="367.369141" xlink:href="#DejaVuSans-20"/>
    </g>
    <!-- e = 0.069 -->
    <defs>
     <path d="M 10.59375 45.40625 
L 73.1875 45.40625 
L 73.1875 37.203125 
L 10.59375 37.203125 
z
M 10.59375 25.484375 
L 73.1875 25.484375 
L 73.1875 17.1875 
L 10.59375 17.1875 
z
" id="DejaVuSans-3d"/>
     <path d="M 33.015625 40.375 
Q 26.375 40.375 22.484375 35.828125 
Q 18.609375 31.296875 18.609375 23.390625 
Q 18.609375 15.53125 22.484375 10.953125 
Q 26.375 6.390625 33.015625 6.390625 
Q 39.65625 6.390625 43.53125 10.953125 
Q 47.40625 15.53125 47.40625 23.390625 
Q 47.40625 31.296875 43.53125 35.828125 
Q 39.65625 40.375 33.015625 40.375 
z
M 52.59375 71.296875 
L 52.59375 62.3125 
Q 48.875 64.0625 45.09375 64.984375 
Q 41.3125 65.921875 37.59375 65.921875 
Q 27.828125 65.921875 22.671875 59.328125 
Q 17.53125 52.734375 16.796875 39.40625 
Q 19.671875 43.65625 24.015625 45.921875 
Q 28.375 48.1875 33.59375 48.1875 
Q 44.578125 48.1875 50.953125 41.515625 
Q 57.328125 34.859375 57.328125 23.390625 
Q 57.328125 12.15625 50.6875 5.359375 
Q 44.046875 -1.421875 33.015625 -1.421875 
Q 20.359375 -1.421875 13.671875 8.265625 
Q 6.984375 17.96875 6.984375 36.375 
Q 6.984375 53.65625 15.1875 63.9375 
Q 23.390625 74.21875 37.203125 74.21875 
Q 40.921875 74.21875 44.703125 73.484375 
Q 48.484375 72.75 52.59375 71.296875 
z
" id="DejaVuSans-36"/>
     <path d="M 10.984375 1.515625 
L 10.984375 10.5 
Q 14.703125 8.734375 18.5 7.8125 
Q 22.3125 6.890625 25.984375 6.890625 
Q 35.75 6.890625 40.890625 13.453125 
Q 46.046875 20.015625 46.78125 33.40625 
Q 43.953125 29.203125 39.59375 26.953125 
Q 35.25 24.703125 29.984375 24.703125 
Q 19.046875 24.703125 12.671875 31.3125 
Q 6.296875 37.9375 6.296875 49.421875 
Q 6.296875 60.640625 12.9375 67.421875 
Q 19.578125 74.21875 30.609375 74.21875 
Q 43.265625 74.21875 49.921875 64.515625 
Q 56.59375 54.828125 56.59375 36.375 
Q 56.59375 19.140625 48.40625 8.859375 
Q 40.234375 -1.421875 26.421875 -1.421875 
Q 22.703125 -1.421875 18.890625 -0.6875 
Q 15.09375 0.046875 10.984375 1.515625 
z
M 30.609375 32.421875 
Q 37.25 32.421875 41.125 36.953125 
Q 45.015625 41.5 45.015625 49.421875 
Q 45.015625 57.28125 41.125 61.84375 
Q 37.25 66.40625 30.609375 66.40625 
Q 23.96875 66.40625 20.09375 61.84375 
Q 16.21875 57.28125 16.21875 49.421875 
Q 16.21875 41.5 20.09375 36.953125 
Q 23.96875 32.421875 30.609375 32.421875 
z
" id="DejaVuSans-39"/>
    </defs>
    <g transform="translate(584.125714 51.000588)scale(0.1 -0.1)">
     <use xlink:href="#DejaVuSans-65"/>
     <use x="61.523438" xlink:href="#DejaVuSans-20"/>
     <use x="93.310547" xlink:href="#DejaVuSans-3d"/>
     <use x="177.099609" xlink:href="#DejaVuSans-20"/>
     <use x="208.886719" xlink:href="#DejaVuSans-30"/>
     <use x="272.509766" xlink:href="#DejaVuSans-2e"/>
     <use x="304.296875" xlink:href="#DejaVuSans-30"/>
     <use x="367.919922" xlink:href="#DejaVuSans-36"/>
     <use x="431.542969" xlink:href="#DejaVuSans-39"/>
    </g>
    <!-- MSE =0.083 -->
    <defs>
     <path d="M 9.8125 72.90625 
L 24.515625 72.90625 
L 43.109375 23.296875 
L 61.8125 72.90625 
L 76.515625 72.90625 
L 76.515625 0 
L 66.890625 0 
L 66.890625 64.015625 
L 48.09375 14.015625 
L 38.1875 14.015625 
L 19.390625 64.015625 
L 19.390625 0 
L 9.8125 0 
z
" id="DejaVuSans-4d"/>
     <path d="M 9.8125 72.90625 
L 55.90625 72.90625 
L 55.90625 64.59375 
L 19.671875 64.59375 
L 19.671875 43.015625 
L 54.390625 43.015625 
L 54.390625 34.71875 
L 19.671875 34.71875 
L 19.671875 8.296875 
L 56.78125 8.296875 
L 56.78125 0 
L 9.8125 0 
z
" id="DejaVuSans-45"/>
     <path d="M 31.78125 34.625 
Q 24.75 34.625 20.71875 30.859375 
Q 16.703125 27.09375 16.703125 20.515625 
Q 16.703125 13.921875 20.71875 10.15625 
Q 24.75 6.390625 31.78125 6.390625 
Q 38.8125 6.390625 42.859375 10.171875 
Q 46.921875 13.96875 46.921875 20.515625 
Q 46.921875 27.09375 42.890625 30.859375 
Q 38.875 34.625 31.78125 34.625 
z
M 21.921875 38.8125 
Q 15.578125 40.375 12.03125 44.71875 
Q 8.5 49.078125 8.5 55.328125 
Q 8.5 64.0625 14.71875 69.140625 
Q 20.953125 74.21875 31.78125 74.21875 
Q 42.671875 74.21875 48.875 69.140625 
Q 55.078125 64.0625 55.078125 55.328125 
Q 55.078125 49.078125 51.53125 44.71875 
Q 48 40.375 41.703125 38.8125 
Q 48.828125 37.15625 52.796875 32.3125 
Q 56.78125 27.484375 56.78125 20.515625 
Q 56.78125 9.90625 50.3125 4.234375 
Q 43.84375 -1.421875 31.78125 -1.421875 
Q 19.734375 -1.421875 13.25 4.234375 
Q 6.78125 9.90625 6.78125 20.515625 
Q 6.78125 27.484375 10.78125 32.3125 
Q 14.796875 37.15625 21.921875 38.8125 
z
M 18.3125 54.390625 
Q 18.3125 48.734375 21.84375 45.5625 
Q 25.390625 42.390625 31.78125 42.390625 
Q 38.140625 42.390625 41.71875 45.5625 
Q 45.3125 48.734375 45.3125 54.390625 
Q 45.3125 60.0625 41.71875 63.234375 
Q 38.140625 66.40625 31.78125 66.40625 
Q 25.390625 66.40625 21.84375 63.234375 
Q 18.3125 60.0625 18.3125 54.390625 
z
" id="DejaVuSans-38"/>
    </defs>
    <g transform="translate(584.125714 62.1984)scale(0.1 -0.1)">
     <use xlink:href="#DejaVuSans-4d"/>
     <use x="86.279297" xlink:href="#DejaVuSans-53"/>
     <use x="149.755859" xlink:href="#DejaVuSans-45"/>
     <use x="212.939453" xlink:href="#DejaVuSans-20"/>
     <use x="244.726562" xlink:href="#DejaVuSans-3d"/>
     <use x="328.515625" xlink:href="#DejaVuSans-30"/>
     <use x="392.138672" xlink:href="#DejaVuSans-2e"/>
     <use x="423.925781" xlink:href="#DejaVuSans-30"/>
     <use x="487.548828" xlink:href="#DejaVuSans-38"/>
     <use x="551.171875" xlink:href="#DejaVuSans-33"/>
    </g>
   </g>
  </g>
 </g>
 <defs>
  <clipPath id="p46537f3b19">
   <rect height="67.968" width="444.342857" x="58.32" y="13.824"/>
  </clipPath>
  <clipPath id="p929d6e1f46">
   <rect height="67.968" width="74.057143" x="502.662857" y="13.824"/>
  </clipPath>
 </defs>
</svg>
